SplineFontDB: 3.0
FontName: Spinnaker
FullName: Spinnaker
FamilyName: Spinnaker
Weight: Book
Copyright: Copyright (c) 2011, Sorkin Type Co (www.sorkintype.com)\nwith Reserved Font Name "Spinnaker".
Version: 1.0
ItalicAngle: 0
UnderlinePosition: -103
UnderlineWidth: 102
Ascent: 1638
Descent: 410
LayerCount: 2
Layer: 0 1 "Back"  1
Layer: 1 1 "Fore"  0
XUID: [1021 631 1661839179 3252394]
FSType: 0
OS2Version: 3
OS2_WeightWidthSlopeOnly: 0
OS2_UseTypoMetrics: 1
CreationTime: 1315834200
ModificationTime: 1315881890
PfmFamily: 17
TTFWeight: 400
TTFWidth: 5
LineGap: 0
VLineGap: 0
Panose: 2 11 5 5 3 3 0 0 0 3
OS2TypoAscent: 282
OS2TypoAOffset: 1
OS2TypoDescent: -77
OS2TypoDOffset: 1
OS2TypoLinegap: 0
OS2WinAscent: 0
OS2WinAOffset: 1
OS2WinDescent: 0
OS2WinDOffset: 1
HheadAscent: 0
HheadAOffset: 1
HheadDescent: 0
HheadDOffset: 1
OS2SubXSize: 1434
OS2SubYSize: 1331
OS2SubXOff: 0
OS2SubYOff: 287
OS2SupXSize: 1434
OS2SupYSize: 1331
OS2SupXOff: 0
OS2SupYOff: 977
OS2StrikeYSize: 102
OS2StrikeYPos: 512
OS2Vendor: 'STC '
OS2CodePages: 00000001.00000000
OS2UnicodeRanges: 800000af.40000043.00000000.00000000
Lookup: 4 0 1 "'liga' Standard Ligatures in Latin lookup 0"  {"'liga' Standard Ligatures in Latin lookup 0 subtable"  } ['liga' ('latn' <'dflt' > ) ]
Lookup: 257 0 0 "'cpsp' Capital Spacing in Latin lookup 0"  {"'cpsp' Capital Spacing in Latin lookup 0 subtable"  } ['cpsp' ('latn' <'dflt' > ) ]
DEI: 91125
TtTable: prep
PUSHW_1
 511
SCANCTRL
PUSHB_1
 4
SCANTYPE
EndTTInstrs
ShortTable: maxp 16
  1
  0
  267
  110
  5
  0
  0
  1
  0
  0
  0
  0
  0
  0
  0
  0
EndShort

StartChar: .notdef
Encoding: 65536 -1 0
Width: 1307
Flags: W
LayerCount: 2
Fore
SplineSet
184 1000 m 1,0,-1
 1123 1000 l 1,1,-1
 1123 0 l 1,2,-1
 184 0 l 1,3,-1
 184 1000 l 1,0,-1
892 863 m 1,4,-1
 423 863 l 1,5,-1
 657 599 l 1,6,-1
 892 863 l 1,4,-1
568 499 m 1,7,-1
 329 767 l 1,8,-1
 329 230 l 1,9,-1
 568 499 l 1,7,-1
978 239 m 1,10,-1
 978 758 l 1,11,-1
 747 499 l 1,12,-1
 978 239 l 1,10,-1
889 138 m 1,13,-1
 657 398 l 1,14,-1
 425 138 l 1,15,-1
 889 138 l 1,13,-1
EndSplineSet
EndChar

StartChar: a
Encoding: 97 97 5
Width: 1201
Flags: W
LayerCount: 2
Fore
SplineSet
112 263 m 0,0,1
 112 336 112 336 138 393 c 128,-1,2
 164 450 164 450 211 493 c 128,-1,3
 258 536 258 536 323 567 c 128,-1,4
 388 598 388 598 465.5 617.5 c 128,-1,5
 543 637 543 637 630 646.5 c 128,-1,6
 717 656 717 656 809 658 c 1,7,8
 807 717 807 717 788 756 c 128,-1,9
 769 795 769 795 734 818 c 128,-1,10
 699 841 699 841 649.5 850.5 c 128,-1,11
 600 860 600 860 539 860 c 0,12,13
 512 860 512 860 478 856 c 128,-1,14
 444 852 444 852 408 845 c 128,-1,15
 372 838 372 838 337 828.5 c 128,-1,16
 302 819 302 819 274 808 c 1,17,-1
 221 950 l 1,18,19
 259 969 259 969 303 982 c 128,-1,20
 347 995 347 995 391.5 1003.5 c 128,-1,21
 436 1012 436 1012 479 1016 c 128,-1,22
 522 1020 522 1020 559 1020 c 0,23,24
 653 1020 653 1020 734 999.5 c 128,-1,25
 815 979 815 979 873.5 935 c 128,-1,26
 932 891 932 891 965.5 823 c 128,-1,27
 999 755 999 755 999 661 c 2,28,-1
 999 342 l 2,29,30
 999 298 999 298 1002 262 c 128,-1,31
 1005 226 1005 226 1016.5 198.5 c 128,-1,32
 1028 171 1028 171 1049.5 152 c 128,-1,33
 1071 133 1071 133 1109 123 c 1,34,-1
 1081 0 l 1,35,36
 1029 -6 1029 -6 989 0.5 c 128,-1,37
 949 7 949 7 919.5 24 c 128,-1,38
 890 41 890 41 870 67.5 c 128,-1,39
 850 94 850 94 837 128 c 1,40,41
 811 107 811 107 774 81 c 128,-1,42
 737 55 737 55 688.5 32.5 c 128,-1,43
 640 10 640 10 581 -5 c 128,-1,44
 522 -20 522 -20 452 -20 c 0,45,46
 385 -20 385 -20 323.5 -1 c 128,-1,47
 262 18 262 18 215 54.5 c 128,-1,48
 168 91 168 91 140 143.5 c 128,-1,49
 112 196 112 196 112 263 c 0,0,1
302 276 m 0,50,51
 302 243 302 243 316 217.5 c 128,-1,52
 330 192 330 192 353 175 c 128,-1,53
 376 158 376 158 406.5 149 c 128,-1,54
 437 140 437 140 470 140 c 0,55,56
 526 140 526 140 576.5 153.5 c 128,-1,57
 627 167 627 167 670.5 189 c 128,-1,58
 714 211 714 211 749.5 238.5 c 128,-1,59
 785 266 785 266 809 293 c 1,60,-1
 809 509 l 1,61,62
 707 504 707 504 615 491.5 c 128,-1,63
 523 479 523 479 453.5 452.5 c 128,-1,64
 384 426 384 426 343 383.5 c 128,-1,65
 302 341 302 341 302 276 c 0,50,51
EndSplineSet
EndChar

StartChar: b
Encoding: 98 98 6
Width: 1269
Flags: W
LayerCount: 2
Fore
SplineSet
184 1561 m 1,0,-1
 374 1561 l 1,1,-1
 374 919 l 1,2,3
 434 964 434 964 516.5 992 c 128,-1,4
 599 1020 599 1020 698 1020 c 0,5,6
 807 1020 807 1020 895 982.5 c 128,-1,7
 983 945 983 945 1045 878.5 c 128,-1,8
 1107 812 1107 812 1140.5 720.5 c 128,-1,9
 1174 629 1174 629 1174 520 c 0,10,11
 1174 396 1174 396 1123 296.5 c 128,-1,12
 1072 197 1072 197 986 126.5 c 128,-1,13
 900 56 900 56 787 18 c 128,-1,14
 674 -20 674 -20 550 -20 c 0,15,16
 516 -20 516 -20 466.5 -16.5 c 128,-1,17
 417 -13 417 -13 364.5 -7.5 c 128,-1,18
 312 -2 312 -2 263.5 5 c 128,-1,19
 215 12 215 12 184 20 c 1,20,-1
 184 1561 l 1,0,-1
374 174 m 1,21,22
 392 166 392 166 416 160 c 128,-1,23
 440 154 440 154 466 149.5 c 128,-1,24
 492 145 492 145 518.5 142.5 c 128,-1,25
 545 140 545 140 568 140 c 0,26,27
 655 140 655 140 731 165 c 128,-1,28
 807 190 807 190 863 237 c 128,-1,29
 919 284 919 284 951.5 352.5 c 128,-1,30
 984 421 984 421 984 508 c 0,31,32
 984 579 984 579 964 643 c 128,-1,33
 944 707 944 707 905.5 755 c 128,-1,34
 867 803 867 803 811.5 831.5 c 128,-1,35
 756 860 756 860 685 860 c 0,36,37
 643 860 643 860 597 851 c 128,-1,38
 551 842 551 842 509 825 c 128,-1,39
 467 808 467 808 431.5 782 c 128,-1,40
 396 756 396 756 374 722 c 1,41,-1
 374 174 l 1,21,22
EndSplineSet
EndChar

StartChar: c
Encoding: 99 99 7
Width: 990
Flags: W
LayerCount: 2
Fore
SplineSet
95 498 m 0,0,1
 95 608 95 608 133.5 703.5 c 128,-1,2
 172 799 172 799 240.5 869.5 c 128,-1,3
 309 940 309 940 403 980 c 128,-1,4
 497 1020 497 1020 607 1020 c 0,5,6
 702 1020 702 1020 780 1000.5 c 128,-1,7
 858 981 858 981 929 929 c 1,8,-1
 863 780 l 1,9,10
 812 818 812 818 741 841 c 128,-1,11
 670 864 670 864 589 864 c 0,12,13
 518 864 518 864 461.5 835.5 c 128,-1,14
 405 807 405 807 366 758.5 c 128,-1,15
 327 710 327 710 306 645.5 c 128,-1,16
 285 581 285 581 285 510 c 0,17,18
 285 433 285 433 306.5 366 c 128,-1,19
 328 299 328 299 369.5 248.5 c 128,-1,20
 411 198 411 198 470.5 169 c 128,-1,21
 530 140 530 140 607 140 c 0,22,23
 695 140 695 140 769.5 158 c 128,-1,24
 844 176 844 176 921 214 c 1,25,-1
 956 73 l 1,26,27
 921 47 921 47 876 29.5 c 128,-1,28
 831 12 831 12 782.5 1 c 128,-1,29
 734 -10 734 -10 683.5 -15 c 128,-1,30
 633 -20 633 -20 588 -20 c 0,31,32
 470 -20 470 -20 378.5 17 c 128,-1,33
 287 54 287 54 224 121.5 c 128,-1,34
 161 189 161 189 128 284.5 c 128,-1,35
 95 380 95 380 95 498 c 0,0,1
EndSplineSet
EndChar

StartChar: d
Encoding: 100 100 8
Width: 1269
Flags: W
LayerCount: 2
Fore
SplineSet
95 480 m 0,0,1
 95 604 95 604 146 703.5 c 128,-1,2
 197 803 197 803 283 873.5 c 128,-1,3
 369 944 369 944 482 982 c 128,-1,4
 595 1020 595 1020 719 1020 c 0,5,6
 776 1020 776 1020 818 1016 c 128,-1,7
 860 1012 860 1012 895 1005 c 1,8,-1
 895 1561 l 1,9,-1
 1085 1561 l 1,10,-1
 1085 0 l 1,11,-1
 940 0 l 1,12,-1
 911 95 l 1,13,14
 884 73 884 73 849 52 c 128,-1,15
 814 31 814 31 771.5 15 c 128,-1,16
 729 -1 729 -1 678.5 -10.5 c 128,-1,17
 628 -20 628 -20 571 -20 c 0,18,19
 462 -20 462 -20 374 17.5 c 128,-1,20
 286 55 286 55 224 121.5 c 128,-1,21
 162 188 162 188 128.5 279.5 c 128,-1,22
 95 371 95 371 95 480 c 0,0,1
285 492 m 0,23,24
 285 421 285 421 305 357 c 128,-1,25
 325 293 325 293 363 245 c 128,-1,26
 401 197 401 197 457 168.5 c 128,-1,27
 513 140 513 140 584 140 c 0,28,29
 634 140 634 140 681 149 c 128,-1,30
 728 158 728 158 768.5 175.5 c 128,-1,31
 809 193 809 193 841.5 218 c 128,-1,32
 874 243 874 243 895 276 c 1,33,-1
 895 836 l 1,34,35
 847 847 847 847 797.5 853.5 c 128,-1,36
 748 860 748 860 701 860 c 0,37,38
 614 860 614 860 538 835 c 128,-1,39
 462 810 462 810 406 763 c 128,-1,40
 350 716 350 716 317.5 647.5 c 128,-1,41
 285 579 285 579 285 492 c 0,23,24
EndSplineSet
EndChar

StartChar: e
Encoding: 101 101 9
Width: 1106
Flags: W
LayerCount: 2
Fore
SplineSet
294 400 m 1,0,1
 316 279 316 279 392 209.5 c 128,-1,2
 468 140 468 140 607 140 c 0,3,4
 651 140 651 140 697.5 145.5 c 128,-1,5
 744 151 744 151 789 160 c 128,-1,6
 834 169 834 169 875 181.5 c 128,-1,7
 916 194 916 194 948 208 c 1,8,-1
 980 65 l 1,9,10
 944 44 944 44 895.5 28.5 c 128,-1,11
 847 13 847 13 793.5 2 c 128,-1,12
 740 -9 740 -9 686.5 -14.5 c 128,-1,13
 633 -20 633 -20 588 -20 c 0,14,15
 463 -20 463 -20 370 14 c 128,-1,16
 277 48 277 48 216 114 c 128,-1,17
 155 180 155 180 125 276.5 c 128,-1,18
 95 373 95 373 95 498 c 0,19,20
 95 608 95 608 133.5 703.5 c 128,-1,21
 172 799 172 799 240.5 869.5 c 128,-1,22
 309 940 309 940 403 980 c 128,-1,23
 497 1020 497 1020 607 1020 c 0,24,25
 694 1020 694 1020 768 993 c 128,-1,26
 842 966 842 966 895.5 912.5 c 128,-1,27
 949 859 949 859 979.5 778.5 c 128,-1,28
 1010 698 1010 698 1010 591 c 0,29,30
 1010 546 1010 546 1003.5 494 c 128,-1,31
 997 442 997 442 990 400 c 1,32,-1
 294 400 l 1,0,1
829 547 m 1,33,34
 829 551 829 551 830 558.5 c 128,-1,35
 831 566 831 566 831.5 574.5 c 128,-1,36
 832 583 832 583 832.5 590 c 128,-1,37
 833 597 833 597 833 601 c 0,38,39
 833 657 833 657 818 705 c 128,-1,40
 803 753 803 753 772.5 788.5 c 128,-1,41
 742 824 742 824 696 844 c 128,-1,42
 650 864 650 864 589 864 c 0,43,44
 522 864 522 864 468.5 839 c 128,-1,45
 415 814 415 814 376 771 c 128,-1,46
 337 728 337 728 314 670 c 128,-1,47
 291 612 291 612 286 547 c 1,48,-1
 829 547 l 1,33,34
EndSplineSet
EndChar

StartChar: f
Encoding: 102 102 10
Width: 776
Flags: W
LayerCount: 2
Fore
SplineSet
204 846 m 1,0,-1
 19 846 l 1,1,-1
 19 1000 l 1,2,-1
 204 1000 l 1,3,-1
 204 1038 l 2,4,5
 204 1154 204 1154 229.5 1250 c 128,-1,6
 255 1346 255 1346 309 1415 c 128,-1,7
 363 1484 363 1484 447 1522 c 128,-1,8
 531 1560 531 1560 647 1560 c 0,9,10
 707 1560 707 1560 768 1544.5 c 128,-1,11
 829 1529 829 1529 877 1506 c 1,12,-1
 832 1355 l 1,13,14
 790 1377 790 1377 736 1390.5 c 128,-1,15
 682 1404 682 1404 629 1404 c 0,16,17
 556 1404 556 1404 510.5 1376 c 128,-1,18
 465 1348 465 1348 439.5 1300 c 128,-1,19
 414 1252 414 1252 404.5 1187.5 c 128,-1,20
 395 1123 395 1123 395 1050 c 2,21,-1
 395 1000 l 1,22,-1
 781 1000 l 1,23,-1
 781 846 l 1,24,-1
 395 846 l 1,25,-1
 395 0 l 1,26,-1
 204 0 l 1,27,-1
 204 846 l 1,0,-1
EndSplineSet
EndChar

StartChar: g
Encoding: 103 103 11
Width: 1229
Flags: W
LayerCount: 2
Fore
SplineSet
162 -179 m 0,0,1
 162 -145 162 -145 172 -111 c 128,-1,2
 182 -77 182 -77 198.5 -46 c 128,-1,3
 215 -15 215 -15 236.5 12.5 c 128,-1,4
 258 40 258 40 282 62 c 1,5,6
 217 87 217 87 177 129 c 128,-1,7
 137 171 137 171 137 241 c 0,8,9
 137 283 137 283 148 322 c 128,-1,10
 159 361 159 361 177 396.5 c 128,-1,11
 195 432 195 432 219 462 c 128,-1,12
 243 492 243 492 269 515 c 1,13,14
 247 549 247 549 235 588.5 c 128,-1,15
 223 628 223 628 223 673 c 0,16,17
 223 755 223 755 258.5 819.5 c 128,-1,18
 294 884 294 884 353 928.5 c 128,-1,19
 412 973 412 973 488 996.5 c 128,-1,20
 564 1020 564 1020 646 1020 c 0,21,22
 724 1020 724 1020 797.5 996.5 c 128,-1,23
 871 973 871 973 928 928 c 1,24,25
 950 949 950 949 983 966 c 128,-1,26
 1016 983 1016 983 1054.5 995 c 128,-1,27
 1093 1007 1093 1007 1134 1013.5 c 128,-1,28
 1175 1020 1175 1020 1212 1020 c 1,29,-1
 1204 865 l 1,30,31
 1186 863 1186 863 1162.5 859.5 c 128,-1,32
 1139 856 1139 856 1114 850 c 128,-1,33
 1089 844 1089 844 1064.5 836 c 128,-1,34
 1040 828 1040 828 1021 818 c 1,35,36
 1037 787 1037 787 1046 753.5 c 128,-1,37
 1055 720 1055 720 1055 682 c 0,38,39
 1055 600 1055 600 1019.5 536 c 128,-1,40
 984 472 984 472 925 428 c 128,-1,41
 866 384 866 384 790 361 c 128,-1,42
 714 338 714 338 632 338 c 0,43,44
 561 338 561 338 494 357 c 128,-1,45
 427 376 427 376 371 413 c 1,46,47
 350 388 350 388 336.5 357 c 128,-1,48
 323 326 323 326 323 293 c 0,49,50
 323 257 323 257 357.5 236 c 128,-1,51
 392 215 392 215 448.5 202 c 128,-1,52
 505 189 505 189 577.5 180.5 c 128,-1,53
 650 172 650 172 725 162 c 128,-1,54
 800 152 800 152 872.5 136.5 c 128,-1,55
 945 121 945 121 1001.5 93.5 c 128,-1,56
 1058 66 1058 66 1092.5 23.5 c 128,-1,57
 1127 -19 1127 -19 1127 -84 c 0,58,59
 1127 -176 1127 -176 1083.5 -250.5 c 128,-1,60
 1040 -325 1040 -325 969.5 -377.5 c 128,-1,61
 899 -430 899 -430 809 -458.5 c 128,-1,62
 719 -487 719 -487 627 -487 c 0,63,64
 572 -487 572 -487 516.5 -479.5 c 128,-1,65
 461 -472 461 -472 409.5 -456 c 128,-1,66
 358 -440 358 -440 313 -415 c 128,-1,67
 268 -390 268 -390 234.5 -356 c 128,-1,68
 201 -322 201 -322 181.5 -278 c 128,-1,69
 162 -234 162 -234 162 -179 c 0,0,1
400 682 m 0,70,71
 400 632 400 632 419.5 595.5 c 128,-1,72
 439 559 439 559 473 534.5 c 128,-1,73
 507 510 507 510 551 498 c 128,-1,74
 595 486 595 486 645 486 c 0,75,76
 691 486 691 486 733.5 498 c 128,-1,77
 776 510 776 510 808 533.5 c 128,-1,78
 840 557 840 557 859 592 c 128,-1,79
 878 627 878 627 878 674 c 0,80,81
 878 723 878 723 858.5 760 c 128,-1,82
 839 797 839 797 805 822 c 128,-1,83
 771 847 771 847 726.5 859 c 128,-1,84
 682 871 682 871 633 871 c 0,85,86
 586 871 586 871 544 859 c 128,-1,87
 502 847 502 847 470 823 c 128,-1,88
 438 799 438 799 419 763.5 c 128,-1,89
 400 728 400 728 400 682 c 0,70,71
352 -155 m 0,90,91
 352 -202 352 -202 380 -234.5 c 128,-1,92
 408 -267 408 -267 451 -287.5 c 128,-1,93
 494 -308 494 -308 545 -317.5 c 128,-1,94
 596 -327 596 -327 643 -327 c 0,95,96
 694 -327 694 -327 746 -316.5 c 128,-1,97
 798 -306 798 -306 840.5 -283 c 128,-1,98
 883 -260 883 -260 910 -224 c 128,-1,99
 937 -188 937 -188 937 -137 c 0,100,101
 937 -103 937 -103 914.5 -80 c 128,-1,102
 892 -57 892 -57 854 -42 c 128,-1,103
 816 -27 816 -27 765 -18 c 128,-1,104
 714 -9 714 -9 657 -2.5 c 128,-1,105
 600 4 600 4 539 10 c 128,-1,106
 478 16 478 16 421 26 c 1,107,108
 390 -8 390 -8 371 -55.5 c 128,-1,109
 352 -103 352 -103 352 -155 c 0,90,91
EndSplineSet
EndChar

StartChar: h
Encoding: 104 104 12
Width: 1337
Flags: W
LayerCount: 2
Fore
SplineSet
184 1562 m 1,0,-1
 374 1561 l 1,1,-1
 374 913 l 1,2,3
 403 934 403 934 440 953.5 c 128,-1,4
 477 973 477 973 520.5 987.5 c 128,-1,5
 564 1002 564 1002 613.5 1011 c 128,-1,6
 663 1020 663 1020 718 1020 c 0,7,8
 836 1020 836 1020 922 986 c 128,-1,9
 1008 952 1008 952 1064 887.5 c 128,-1,10
 1120 823 1120 823 1147 730 c 128,-1,11
 1174 637 1174 637 1174 519 c 2,12,-1
 1174 0 l 1,13,-1
 985 0 l 1,14,-1
 984 507 l 2,15,16
 984 587 984 587 970.5 652.5 c 128,-1,17
 957 718 957 718 924.5 764 c 128,-1,18
 892 810 892 810 838.5 835 c 128,-1,19
 785 860 785 860 705 860 c 0,20,21
 655 860 655 860 605 851 c 128,-1,22
 555 842 555 842 511 824 c 128,-1,23
 467 806 467 806 431.5 780.5 c 128,-1,24
 396 755 396 755 374 722 c 1,25,-1
 374 0 l 1,26,-1
 184 0 l 1,27,-1
 184 1562 l 1,0,-1
EndSplineSet
EndChar

StartChar: i
Encoding: 105 105 13
Width: 558
Flags: W
LayerCount: 2
Fore
SplineSet
280 1287 m 0,0,1
 223 1287 223 1287 189 1321 c 128,-1,2
 155 1355 155 1355 155 1410 c 0,3,4
 155 1467 155 1467 189 1500.5 c 128,-1,5
 223 1534 223 1534 280 1534 c 0,6,7
 335 1534 335 1534 369 1500.5 c 128,-1,8
 403 1467 403 1467 403 1410 c 0,9,10
 403 1355 403 1355 369 1321 c 128,-1,11
 335 1287 335 1287 280 1287 c 0,0,1
184 1000 m 1,12,-1
 374 1000 l 1,13,-1
 374 0 l 1,14,-1
 184 0 l 1,15,-1
 184 1000 l 1,12,-1
EndSplineSet
EndChar

StartChar: j
Encoding: 106 106 14
Width: 558
Flags: W
LayerCount: 2
Fore
SplineSet
280 1287 m 0,0,1
 223 1287 223 1287 189 1321 c 128,-1,2
 155 1355 155 1355 155 1410 c 0,3,4
 155 1467 155 1467 189 1500.5 c 128,-1,5
 223 1534 223 1534 280 1534 c 0,6,7
 335 1534 335 1534 369 1500.5 c 128,-1,8
 403 1467 403 1467 403 1410 c 0,9,10
 403 1355 403 1355 369 1321 c 128,-1,11
 335 1287 335 1287 280 1287 c 0,0,1
184 1000 m 1,12,-1
 374 1000 l 1,13,-1
 374 -65 l 2,14,15
 374 -148 374 -148 360.5 -212.5 c 128,-1,16
 347 -277 347 -277 318 -328 c 128,-1,17
 289 -379 289 -379 244 -417 c 128,-1,18
 199 -455 199 -455 135 -485 c 1,19,-1
 55 -356 l 1,20,21
 90 -335 90 -335 114.5 -311.5 c 128,-1,22
 139 -288 139 -288 154.5 -257 c 128,-1,23
 170 -226 170 -226 177 -184.5 c 128,-1,24
 184 -143 184 -143 184 -85 c 2,25,-1
 184 1000 l 1,12,-1
EndSplineSet
EndChar

StartChar: k
Encoding: 107 107 15
Width: 1112
Flags: W
LayerCount: 2
Fore
SplineSet
184 1561 m 1,0,-1
 374 1561 l 1,1,-1
 374 560 l 1,2,-1
 823 1000 l 1,3,-1
 1045 1000 l 1,4,-1
 575 540 l 1,5,-1
 855 238 l 2,6,7
 892 199 892 199 944.5 169.5 c 128,-1,8
 997 140 997 140 1067 135 c 1,9,-1
 1038 0 l 1,10,11
 980 -8 980 -8 936 -3 c 128,-1,12
 892 2 892 2 857 17 c 128,-1,13
 822 32 822 32 792.5 56 c 128,-1,14
 763 80 763 80 735 111 c 2,15,-1
 374 501 l 1,16,-1
 374 0 l 1,17,-1
 184 0 l 1,18,-1
 184 1561 l 1,0,-1
EndSplineSet
EndChar

StartChar: l
Encoding: 108 108 16
Width: 556
Flags: W
LayerCount: 2
Fore
SplineSet
184 1561 m 1,0,-1
 374 1561 l 1,1,-1
 374 342 l 2,2,3
 374 298 374 298 377 262 c 128,-1,4
 380 226 380 226 391.5 198.5 c 128,-1,5
 403 171 403 171 424.5 152 c 128,-1,6
 446 133 446 133 484 123 c 1,7,-1
 456 0 l 1,8,9
 371 -11 371 -11 318 12.5 c 128,-1,10
 265 36 265 36 235 82.5 c 128,-1,11
 205 129 205 129 194.5 193 c 128,-1,12
 184 257 184 257 184 328 c 2,13,-1
 184 1561 l 1,0,-1
EndSplineSet
EndChar

StartChar: m
Encoding: 109 109 17
Width: 1902
Flags: W
LayerCount: 2
Fore
SplineSet
184 1000 m 1,0,-1
 329 1000 l 1,1,-1
 357 905 l 1,2,3
 383 928 383 928 416 949 c 128,-1,4
 449 970 449 970 487 985.5 c 128,-1,5
 525 1001 525 1001 568 1010.5 c 128,-1,6
 611 1020 611 1020 658 1020 c 0,7,8
 785 1020 785 1020 866 980 c 128,-1,9
 947 940 947 940 993 866 c 1,10,11
 1017 894 1017 894 1052 921.5 c 128,-1,12
 1087 949 1087 949 1130.5 971 c 128,-1,13
 1174 993 1174 993 1225 1006.5 c 128,-1,14
 1276 1020 1276 1020 1333 1020 c 0,15,16
 1451 1020 1451 1020 1529 986 c 128,-1,17
 1607 952 1607 952 1653.5 887.5 c 128,-1,18
 1700 823 1700 823 1719.5 730 c 128,-1,19
 1739 637 1739 637 1739 519 c 2,20,-1
 1739 0 l 1,21,-1
 1549 0 l 1,22,-1
 1549 507 l 2,23,24
 1549 583 1549 583 1542 648 c 128,-1,25
 1535 713 1535 713 1511 760 c 128,-1,26
 1487 807 1487 807 1441.5 833.5 c 128,-1,27
 1396 860 1396 860 1320 860 c 0,28,29
 1280 860 1280 860 1240 849.5 c 128,-1,30
 1200 839 1200 839 1164 820.5 c 128,-1,31
 1128 802 1128 802 1098 775.5 c 128,-1,32
 1068 749 1068 749 1047 716 c 1,33,34
 1056 671 1056 671 1060 622 c 128,-1,35
 1064 573 1064 573 1064 519 c 2,36,-1
 1064 0 l 1,37,-1
 874 0 l 1,38,-1
 874 507 l 2,39,40
 874 583 874 583 867 648 c 128,-1,41
 860 713 860 713 836 760 c 128,-1,42
 812 807 812 807 766.5 833.5 c 128,-1,43
 721 860 721 860 645 860 c 0,44,45
 605 860 605 860 565.5 850 c 128,-1,46
 526 840 526 840 490.5 821.5 c 128,-1,47
 455 803 455 803 425 776.5 c 128,-1,48
 395 750 395 750 374 718 c 1,49,-1
 374 0 l 1,50,-1
 184 0 l 1,51,-1
 184 1000 l 1,0,-1
EndSplineSet
EndChar

StartChar: n
Encoding: 110 110 18
Width: 1337
Flags: W
LayerCount: 2
Fore
SplineSet
184 1000 m 1,0,-1
 329 1000 l 1,1,-1
 358 901 l 1,2,3
 387 923 387 923 425 944.5 c 128,-1,4
 463 966 463 966 508.5 983 c 128,-1,5
 554 1000 554 1000 606.5 1010 c 128,-1,6
 659 1020 659 1020 718 1020 c 0,7,8
 836 1020 836 1020 922 986 c 128,-1,9
 1008 952 1008 952 1064 887.5 c 128,-1,10
 1120 823 1120 823 1147 730 c 128,-1,11
 1174 637 1174 637 1174 519 c 2,12,-1
 1174 0 l 1,13,-1
 984 0 l 1,14,-1
 984 507 l 2,15,16
 984 587 984 587 970.5 652.5 c 128,-1,17
 957 718 957 718 924.5 764 c 128,-1,18
 892 810 892 810 838.5 835 c 128,-1,19
 785 860 785 860 705 860 c 0,20,21
 655 860 655 860 605 851 c 128,-1,22
 555 842 555 842 511 824 c 128,-1,23
 467 806 467 806 431.5 780.5 c 128,-1,24
 396 755 396 755 374 722 c 1,25,-1
 374 0 l 1,26,-1
 184 0 l 1,27,-1
 184 1000 l 1,0,-1
EndSplineSet
EndChar

StartChar: o
Encoding: 111 111 19
Width: 1290
Flags: W
LayerCount: 2
Fore
SplineSet
95 492 m 0,0,1
 95 605 95 605 140 702 c 128,-1,2
 185 799 185 799 261.5 869.5 c 128,-1,3
 338 940 338 940 439.5 980 c 128,-1,4
 541 1020 541 1020 654 1020 c 0,5,6
 769 1020 769 1020 867.5 982.5 c 128,-1,7
 966 945 966 945 1039 877 c 128,-1,8
 1112 809 1112 809 1153.5 714 c 128,-1,9
 1195 619 1195 619 1195 504 c 0,10,11
 1195 391 1195 391 1150 295 c 128,-1,12
 1105 199 1105 199 1028.5 129 c 128,-1,13
 952 59 952 59 850.5 19.5 c 128,-1,14
 749 -20 749 -20 636 -20 c 0,15,16
 521 -20 521 -20 422 17 c 128,-1,17
 323 54 323 54 250.5 121.5 c 128,-1,18
 178 189 178 189 136.5 283 c 128,-1,19
 95 377 95 377 95 492 c 0,0,1
285 504 m 0,20,21
 285 424 285 424 313 357.5 c 128,-1,22
 341 291 341 291 390 242.5 c 128,-1,23
 439 194 439 194 506.5 167 c 128,-1,24
 574 140 574 140 654 140 c 0,25,26
 729 140 729 140 793 167 c 128,-1,27
 857 194 857 194 904.5 241.5 c 128,-1,28
 952 289 952 289 978.5 353.5 c 128,-1,29
 1005 418 1005 418 1005 493 c 0,30,31
 1005 572 1005 572 977 639.5 c 128,-1,32
 949 707 949 707 900 756 c 128,-1,33
 851 805 851 805 783 832.5 c 128,-1,34
 715 860 715 860 636 860 c 0,35,36
 561 860 561 860 497 832.5 c 128,-1,37
 433 805 433 805 385.5 757 c 128,-1,38
 338 709 338 709 311.5 644 c 128,-1,39
 285 579 285 579 285 504 c 0,20,21
EndSplineSet
EndChar

StartChar: p
Encoding: 112 112 20
Width: 1269
Flags: W
LayerCount: 2
Fore
SplineSet
374 -467 m 1,0,-1
 184 -467 l 1,1,-1
 184 1000 l 1,2,-1
 329 1000 l 1,3,-1
 357 904 l 1,4,5
 384 926 384 926 419 947 c 128,-1,6
 454 968 454 968 496.5 984 c 128,-1,7
 539 1000 539 1000 589.5 1010 c 128,-1,8
 640 1020 640 1020 698 1020 c 0,9,10
 807 1020 807 1020 895 984 c 128,-1,11
 983 948 983 948 1045 883.5 c 128,-1,12
 1107 819 1107 819 1140.5 729 c 128,-1,13
 1174 639 1174 639 1174 530 c 0,14,15
 1174 406 1174 406 1130.5 304.5 c 128,-1,16
 1087 203 1087 203 1010.5 131 c 128,-1,17
 934 59 934 59 829 19.5 c 128,-1,18
 724 -20 724 -20 600 -20 c 0,19,20
 537 -20 537 -20 479.5 -14 c 128,-1,21
 422 -8 422 -8 374 2 c 1,22,-1
 374 -467 l 1,0,-1
374 173 m 1,23,24
 404 166 404 166 437 160 c 128,-1,25
 470 154 470 154 502 149.5 c 128,-1,26
 534 145 534 145 564 142.5 c 128,-1,27
 594 140 594 140 618 140 c 0,28,29
 705 140 705 140 773 166.5 c 128,-1,30
 841 193 841 193 888 242 c 128,-1,31
 935 291 935 291 959.5 361 c 128,-1,32
 984 431 984 431 984 518 c 0,33,34
 984 589 984 589 964 651.5 c 128,-1,35
 944 714 944 714 905.5 760.5 c 128,-1,36
 867 807 867 807 811.5 833.5 c 128,-1,37
 756 860 756 860 685 860 c 0,38,39
 635 860 635 860 587.5 851 c 128,-1,40
 540 842 540 842 499.5 824.5 c 128,-1,41
 459 807 459 807 426.5 781.5 c 128,-1,42
 394 756 394 756 374 723 c 1,43,-1
 374 173 l 1,23,24
EndSplineSet
EndChar

StartChar: q
Encoding: 113 113 21
Width: 1269
Flags: W
LayerCount: 2
Fore
SplineSet
95 479 m 0,0,1
 95 603 95 603 139 702.5 c 128,-1,2
 183 802 183 802 260.5 872.5 c 128,-1,3
 338 943 338 943 444 981 c 128,-1,4
 550 1019 550 1019 674 1019 c 0,5,6
 805 1019 805 1019 907.5 997.5 c 128,-1,7
 1010 976 1010 976 1085 942 c 1,8,-1
 1085 -468 l 1,9,-1
 895 -468 l 1,10,-1
 895 80 l 1,11,12
 835 35 835 35 752 7 c 128,-1,13
 669 -21 669 -21 571 -21 c 0,14,15
 462 -21 462 -21 374 16.5 c 128,-1,16
 286 54 286 54 224 120.5 c 128,-1,17
 162 187 162 187 128.5 278.5 c 128,-1,18
 95 370 95 370 95 479 c 0,0,1
285 491 m 0,19,20
 285 420 285 420 305 356 c 128,-1,21
 325 292 325 292 363 244 c 128,-1,22
 401 196 401 196 457 167.5 c 128,-1,23
 513 139 513 139 584 139 c 0,24,25
 626 139 626 139 672 148 c 128,-1,26
 718 157 718 157 760 174 c 128,-1,27
 802 191 802 191 837.5 217 c 128,-1,28
 873 243 873 243 895 277 c 1,29,-1
 895 807 l 1,30,31
 853 829 853 829 791 844 c 128,-1,32
 729 859 729 859 656 859 c 0,33,34
 569 859 569 859 500 834 c 128,-1,35
 431 809 431 809 383.5 762 c 128,-1,36
 336 715 336 715 310.5 646.5 c 128,-1,37
 285 578 285 578 285 491 c 0,19,20
EndSplineSet
EndChar

StartChar: r
Encoding: 114 114 22
Width: 850
Flags: W
LayerCount: 2
Fore
SplineSet
184 1000 m 1,0,-1
 341 1000 l 1,1,-1
 373 817 l 1,2,3
 395 857 395 857 424.5 894 c 128,-1,4
 454 931 454 931 490.5 959 c 128,-1,5
 527 987 527 987 570 1003.5 c 128,-1,6
 613 1020 613 1020 663 1020 c 0,7,8
 684 1020 684 1020 701 1018.5 c 128,-1,9
 718 1017 718 1017 734 1013.5 c 128,-1,10
 750 1010 750 1010 766 1004.5 c 128,-1,11
 782 999 782 999 801 990 c 1,12,-1
 758 791 l 1,13,14
 729 808 729 808 691 817.5 c 128,-1,15
 653 827 653 827 621 827 c 0,16,17
 570 827 570 827 528.5 795 c 128,-1,18
 487 763 487 763 455.5 714 c 128,-1,19
 424 665 424 665 403.5 606.5 c 128,-1,20
 383 548 383 548 374 494 c 1,21,-1
 374 0 l 1,22,-1
 184 0 l 1,23,-1
 184 1000 l 1,0,-1
EndSplineSet
EndChar

StartChar: s
Encoding: 115 115 23
Width: 988
Flags: W
LayerCount: 2
Fore
SplineSet
144 245 m 1,0,1
 182 219 182 219 226.5 198 c 128,-1,2
 271 177 271 177 318.5 162 c 128,-1,3
 366 147 366 147 414 139 c 128,-1,4
 462 131 462 131 507 131 c 0,5,6
 546 131 546 131 583 139 c 128,-1,7
 620 147 620 147 649.5 165 c 128,-1,8
 679 183 679 183 696.5 210.5 c 128,-1,9
 714 238 714 238 714 277 c 0,10,11
 714 313 714 313 688.5 338.5 c 128,-1,12
 663 364 663 364 620.5 383.5 c 128,-1,13
 578 403 578 403 524.5 420 c 128,-1,14
 471 437 471 437 414.5 456 c 128,-1,15
 358 475 358 475 304.5 498 c 128,-1,16
 251 521 251 521 208.5 554.5 c 128,-1,17
 166 588 166 588 140.5 633 c 128,-1,18
 115 678 115 678 115 741 c 0,19,20
 115 811 115 811 146.5 863.5 c 128,-1,21
 178 916 178 916 231 951 c 128,-1,22
 284 986 284 986 353 1003 c 128,-1,23
 422 1020 422 1020 497 1020 c 0,24,25
 609 1020 609 1020 705.5 990 c 128,-1,26
 802 960 802 960 868 913 c 1,27,-1
 794 774 l 1,28,29
 768 790 768 790 731.5 807 c 128,-1,30
 695 824 695 824 653.5 838 c 128,-1,31
 612 852 612 852 567 860.5 c 128,-1,32
 522 869 522 869 479 869 c 0,33,34
 448 869 448 869 417 862 c 128,-1,35
 386 855 386 855 361 840.5 c 128,-1,36
 336 826 336 826 320.5 804 c 128,-1,37
 305 782 305 782 305 751 c 0,38,39
 305 716 305 716 330.5 692 c 128,-1,40
 356 668 356 668 398 649.5 c 128,-1,41
 440 631 440 631 494 614.5 c 128,-1,42
 548 598 548 598 604 579.5 c 128,-1,43
 660 561 660 561 714 537.5 c 128,-1,44
 768 514 768 514 810 480.5 c 128,-1,45
 852 447 852 447 877.5 400.5 c 128,-1,46
 903 354 903 354 903 290 c 0,47,48
 903 210 903 210 868.5 151.5 c 128,-1,49
 834 93 834 93 776.5 55 c 128,-1,50
 719 17 719 17 644 -1.5 c 128,-1,51
 569 -20 569 -20 489 -20 c 0,52,53
 433 -20 433 -20 375 -12 c 128,-1,54
 317 -4 317 -4 262.5 12 c 128,-1,55
 208 28 208 28 159.5 51.5 c 128,-1,56
 111 75 111 75 73 107 c 1,57,-1
 144 245 l 1,0,1
EndSplineSet
EndChar

StartChar: t
Encoding: 116 116 24
Width: 694
Flags: W
LayerCount: 2
Fore
SplineSet
165 846 m 1,0,-1
 58 846 l 1,1,-1
 58 970 l 1,2,-1
 304 1155 l 1,3,-1
 355 1155 l 1,4,-1
 355 1000 l 1,5,-1
 641 1000 l 1,6,-1
 641 846 l 1,7,-1
 355 846 l 1,8,-1
 355 442 l 2,9,10
 355 356 355 356 364.5 300.5 c 128,-1,11
 374 245 374 245 398 210.5 c 128,-1,12
 422 176 422 176 462.5 159 c 128,-1,13
 503 142 503 142 566 135 c 1,14,-1
 537 0 l 1,15,16
 426 -14 426 -14 354 13 c 128,-1,17
 282 40 282 40 240 97.5 c 128,-1,18
 198 155 198 155 181.5 237 c 128,-1,19
 165 319 165 319 165 414 c 2,20,-1
 165 846 l 1,0,-1
EndSplineSet
EndChar

StartChar: u
Encoding: 117 117 25
Width: 1295
Flags: W
LayerCount: 2
Fore
SplineSet
163 1000 m 1,0,-1
 353 1000 l 1,1,-1
 353 493 l 2,2,3
 353 413 353 413 364.5 348 c 128,-1,4
 376 283 376 283 405 237 c 128,-1,5
 434 191 434 191 485 165.5 c 128,-1,6
 536 140 536 140 616 140 c 0,7,8
 666 140 666 140 712.5 150.5 c 128,-1,9
 759 161 759 161 798.5 179.5 c 128,-1,10
 838 198 838 198 869 224 c 128,-1,11
 900 250 900 250 921 281 c 1,12,-1
 921 1000 l 1,13,-1
 1111 1000 l 1,14,-1
 1111 0 l 1,15,-1
 966 0 l 1,16,-1
 937 97 l 1,17,18
 911 75 911 75 877 54 c 128,-1,19
 843 33 843 33 801 16.5 c 128,-1,20
 759 0 759 0 709.5 -10 c 128,-1,21
 660 -20 660 -20 603 -20 c 0,22,23
 479 -20 479 -20 395 12 c 128,-1,24
 311 44 311 44 259.5 107 c 128,-1,25
 208 170 208 170 185.5 263.5 c 128,-1,26
 163 357 163 357 163 481 c 2,27,-1
 163 1000 l 1,0,-1
EndSplineSet
EndChar

StartChar: v
Encoding: 118 118 26
Width: 1057
Flags: W
LayerCount: 2
Fore
SplineSet
40 1000 m 1,0,-1
 237 1000 l 1,1,-1
 446 465 l 2,2,3
 462 423 462 423 477.5 380 c 128,-1,4
 493 337 493 337 505 301 c 0,5,6
 519 259 519 259 531 219 c 1,7,-1
 543 219 l 1,8,9
 557 263 557 263 571 307 c 0,10,11
 583 345 583 345 597 386.5 c 128,-1,12
 611 428 611 428 625 462 c 2,13,-1
 835 1000 l 1,14,-1
 1017 1000 l 1,15,-1
 627 0 l 1,16,-1
 430 0 l 1,17,-1
 40 1000 l 1,0,-1
EndSplineSet
EndChar

StartChar: w
Encoding: 119 119 27
Width: 1613
Flags: W
LayerCount: 2
Fore
SplineSet
62 1000 m 1,0,-1
 251 1000 l 1,1,-1
 387 567 l 2,2,3
 401 524 401 524 415.5 468.5 c 128,-1,4
 430 413 430 413 443 362 c 0,5,6
 458 303 458 303 473 243 c 1,7,-1
 484 243 l 1,8,9
 498 300 498 300 513 356 c 0,10,11
 526 404 526 404 541 458.5 c 128,-1,12
 556 513 556 513 570 558 c 2,13,-1
 712 1000 l 1,14,-1
 901 1000 l 1,15,-1
 1039 567 l 2,16,17
 1055 517 1055 517 1071 461 c 128,-1,18
 1087 405 1087 405 1100 356 c 0,19,20
 1115 299 1115 299 1129 243 c 1,21,-1
 1140 243 l 1,22,23
 1154 296 1154 296 1169 351 c 0,24,25
 1182 399 1182 399 1198.5 454.5 c 128,-1,26
 1215 510 1215 510 1233 564 c 2,27,-1
 1377 1000 l 1,28,-1
 1551 1000 l 1,29,-1
 1221 0 l 1,30,-1
 1047 0 l 1,31,-1
 801 734 l 1,32,-1
 566 0 l 1,33,-1
 392 0 l 1,34,-1
 62 1000 l 1,0,-1
EndSplineSet
EndChar

StartChar: x
Encoding: 120 120 28
Width: 1069
Flags: W
LayerCount: 2
Fore
SplineSet
428 509 m 1,0,-1
 56 1000 l 1,1,-1
 269 1000 l 1,2,-1
 541 638 l 1,3,-1
 811 1000 l 1,4,-1
 1013 1000 l 1,5,-1
 641 505 l 1,6,-1
 1023 0 l 1,7,-1
 810 0 l 1,8,-1
 528 376 l 1,9,-1
 248 0 l 1,10,-1
 46 0 l 1,11,-1
 428 509 l 1,0,-1
EndSplineSet
EndChar

StartChar: y
Encoding: 121 121 29
Width: 1057
Flags: W
LayerCount: 2
Fore
SplineSet
79 -299 m 1,0,1
 130 -318 130 -318 197 -318 c 0,2,3
 237 -318 237 -318 270 -296.5 c 128,-1,4
 303 -275 303 -275 330.5 -238.5 c 128,-1,5
 358 -202 358 -202 382 -152.5 c 128,-1,6
 406 -103 406 -103 428 -46 c 2,7,-1
 438 -20 l 1,8,-1
 40 1000 l 1,9,-1
 237 1000 l 1,10,-1
 447 457 l 2,11,12
 464 413 464 413 478 368 c 128,-1,13
 492 323 492 323 503 286 c 0,14,15
 515 243 515 243 525 203 c 1,16,-1
 535 203 l 1,17,18
 545 236 545 236 558 276 c 0,19,20
 569 310 569 310 584.5 353.5 c 128,-1,21
 600 397 600 397 620 448 c 2,22,-1
 835 1000 l 1,23,-1
 1017 1000 l 1,24,-1
 622 0 l 2,25,26
 576 -117 576 -117 527 -207.5 c 128,-1,27
 478 -298 478 -298 423.5 -360.5 c 128,-1,28
 369 -423 369 -423 308 -455 c 128,-1,29
 247 -487 247 -487 177 -487 c 0,30,31
 136 -487 136 -487 107.5 -478 c 128,-1,32
 79 -469 79 -469 47 -444 c 1,33,-1
 79 -299 l 1,34,-1
 79 -299 l 1,0,1
EndSplineSet
EndChar

StartChar: z
Encoding: 122 122 30
Width: 954
Flags: W
LayerCount: 2
Fore
SplineSet
86 148 m 1,0,-1
 646 852 l 1,1,-1
 106 852 l 1,2,-1
 106 1000 l 1,3,-1
 858 1000 l 1,4,-1
 858 852 l 1,5,-1
 298 148 l 1,6,-1
 876 148 l 1,7,-1
 876 0 l 1,8,-1
 86 0 l 1,9,-1
 86 148 l 1,0,-1
EndSplineSet
EndChar

StartChar: A
Encoding: 65 65 31
Width: 1430
Flags: W
LayerCount: 2
Fore
SplineSet
687 1416 m 1,0,-1
 792 1416 l 1,1,-1
 1405 0 l 1,2,-1
 1203 0 l 1,3,-1
 1069 310 l 1,4,-1
 360 310 l 1,5,-1
 215 0 l 1,6,-1
 25 0 l 1,7,-1
 687 1416 l 1,0,-1
997 478 m 1,8,-1
 869 775 l 2,9,10
 845 831 845 831 822.5 891 c 128,-1,11
 800 951 800 951 782 1003.5 c 128,-1,12
 764 1056 764 1056 752 1096.5 c 128,-1,13
 740 1137 740 1137 737 1154 c 1,14,-1
 725 1154 l 1,15,16
 721 1135 721 1135 709 1098.5 c 128,-1,17
 697 1062 697 1062 679 1014 c 128,-1,18
 661 966 661 966 638 910 c 128,-1,19
 615 854 615 854 588 796 c 2,20,-1
 439 478 l 1,21,-1
 997 478 l 1,8,-1
EndSplineSet
Position2: "'cpsp' Capital Spacing in Latin lookup 0 subtable" dx=16 dy=0 dh=32 dv=0
EndChar

StartChar: B
Encoding: 66 66 32
Width: 1520
Flags: W
LayerCount: 2
Fore
SplineSet
184 1416 m 1,0,-1
 705 1416 l 2,1,2
 813 1416 813 1416 913.5 1403 c 128,-1,3
 1014 1390 1014 1390 1092 1353.5 c 128,-1,4
 1170 1317 1170 1317 1216.5 1250 c 128,-1,5
 1263 1183 1263 1183 1263 1075 c 0,6,7
 1263 1029 1263 1029 1246 986 c 128,-1,8
 1229 943 1229 943 1202.5 907.5 c 128,-1,9
 1176 872 1176 872 1142.5 847 c 128,-1,10
 1109 822 1109 822 1076 812 c 1,11,12
 1146 799 1146 799 1204.5 767 c 128,-1,13
 1263 735 1263 735 1305 687 c 128,-1,14
 1347 639 1347 639 1370 576.5 c 128,-1,15
 1393 514 1393 514 1393 441 c 0,16,17
 1393 356 1393 356 1368 290.5 c 128,-1,18
 1343 225 1343 225 1298.5 176 c 128,-1,19
 1254 127 1254 127 1192.5 93 c 128,-1,20
 1131 59 1131 59 1058 38.5 c 128,-1,21
 985 18 985 18 903.5 9 c 128,-1,22
 822 0 822 0 737 0 c 2,23,-1
 184 0 l 1,24,-1
 184 1416 l 1,0,-1
723 866 m 2,25,26
 781 866 781 866 842.5 875 c 128,-1,27
 904 884 904 884 953.5 907 c 128,-1,28
 1003 930 1003 930 1035 968 c 128,-1,29
 1067 1006 1067 1006 1067 1065 c 0,30,31
 1067 1128 1067 1128 1029.5 1164.5 c 128,-1,32
 992 1201 992 1201 934.5 1219.5 c 128,-1,33
 877 1238 877 1238 808 1243 c 128,-1,34
 739 1248 739 1248 676 1248 c 2,35,-1
 369 1248 l 1,36,-1
 369 866 l 1,37,-1
 723 866 l 2,25,26
762 168 m 2,38,39
 843 168 843 168 921 178.5 c 128,-1,40
 999 189 999 189 1060.5 217.5 c 128,-1,41
 1122 246 1122 246 1159.5 297 c 128,-1,42
 1197 348 1197 348 1197 429 c 0,43,44
 1197 511 1197 511 1159 563.5 c 128,-1,45
 1121 616 1121 616 1059 646 c 128,-1,46
 997 676 997 676 917.5 687 c 128,-1,47
 838 698 838 698 756 698 c 2,48,-1
 369 698 l 1,49,-1
 369 168 l 1,50,-1
 762 168 l 2,38,39
EndSplineSet
Position2: "'cpsp' Capital Spacing in Latin lookup 0 subtable" dx=16 dy=0 dh=32 dv=0
EndChar

StartChar: C
Encoding: 67 67 33
Width: 1492
Flags: W
LayerCount: 2
Fore
SplineSet
137 693 m 0,0,1
 137 802 137 802 164.5 899.5 c 128,-1,2
 192 997 192 997 243 1079.5 c 128,-1,3
 294 1162 294 1162 365 1228 c 128,-1,4
 436 1294 436 1294 523 1340 c 128,-1,5
 610 1386 610 1386 710.5 1411 c 128,-1,6
 811 1436 811 1436 920 1436 c 0,7,8
 1067 1436 1067 1436 1195 1392 c 128,-1,9
 1323 1348 1323 1348 1422 1270 c 1,10,-1
 1329 1122 l 1,11,12
 1254 1189 1254 1189 1144.5 1229.5 c 128,-1,13
 1035 1270 1035 1270 902 1270 c 0,14,15
 784 1270 784 1270 680.5 1228.5 c 128,-1,16
 577 1187 577 1187 499.5 1114 c 128,-1,17
 422 1041 422 1041 377.5 941 c 128,-1,18
 333 841 333 841 333 723 c 0,19,20
 333 601 333 601 379 496 c 128,-1,21
 425 391 425 391 505 313 c 128,-1,22
 585 235 585 235 691.5 190.5 c 128,-1,23
 798 146 798 146 920 146 c 0,24,25
 979 146 979 146 1041.5 157.5 c 128,-1,26
 1104 169 1104 169 1162.5 189 c 128,-1,27
 1221 209 1221 209 1273 235.5 c 128,-1,28
 1325 262 1325 262 1363 293 c 1,29,-1
 1435 155 l 1,30,31
 1387 114 1387 114 1327 82 c 128,-1,32
 1267 50 1267 50 1199 27 c 128,-1,33
 1131 4 1131 4 1056 -8 c 128,-1,34
 981 -20 981 -20 902 -20 c 0,35,36
 745 -20 745 -20 606 32.5 c 128,-1,37
 467 85 467 85 362.5 179.5 c 128,-1,38
 258 274 258 274 197.5 405 c 128,-1,39
 137 536 137 536 137 693 c 0,0,1
EndSplineSet
Position2: "'cpsp' Capital Spacing in Latin lookup 0 subtable" dx=16 dy=0 dh=32 dv=0
EndChar

StartChar: D
Encoding: 68 68 34
Width: 1600
Flags: W
LayerCount: 2
Fore
SplineSet
184 1416 m 1,0,-1
 765 1416 l 2,1,2
 925 1416 925 1416 1058.5 1369 c 128,-1,3
 1192 1322 1192 1322 1288.5 1233.5 c 128,-1,4
 1385 1145 1385 1145 1439 1018 c 128,-1,5
 1493 891 1493 891 1493 731 c 0,6,7
 1493 563 1493 563 1438 428 c 128,-1,8
 1383 293 1383 293 1283 197.5 c 128,-1,9
 1183 102 1183 102 1044 51 c 128,-1,10
 905 0 905 0 737 0 c 2,11,-1
 184 0 l 1,12,-1
 184 1416 l 1,0,-1
762 168 m 2,13,14
 887 168 887 168 986.5 207 c 128,-1,15
 1086 246 1086 246 1155 318 c 128,-1,16
 1224 390 1224 390 1260.5 492 c 128,-1,17
 1297 594 1297 594 1297 719 c 0,18,19
 1297 843 1297 843 1255.5 941 c 128,-1,20
 1214 1039 1214 1039 1140 1107 c 128,-1,21
 1066 1175 1066 1175 963 1211.5 c 128,-1,22
 860 1248 860 1248 736 1248 c 2,23,-1
 369 1248 l 1,24,-1
 369 168 l 1,25,-1
 762 168 l 2,13,14
EndSplineSet
Position2: "'cpsp' Capital Spacing in Latin lookup 0 subtable" dx=16 dy=0 dh=32 dv=0
EndChar

StartChar: E
Encoding: 69 69 35
Width: 1370
Flags: W
LayerCount: 2
Fore
SplineSet
184 1416 m 1,0,-1
 1241 1416 l 1,1,-1
 1241 1248 l 1,2,-1
 369 1248 l 1,3,-1
 369 866 l 1,4,-1
 1146 866 l 1,5,-1
 1146 698 l 1,6,-1
 369 698 l 1,7,-1
 369 168 l 1,8,-1
 1261 168 l 1,9,-1
 1261 0 l 1,10,-1
 184 0 l 1,11,-1
 184 1416 l 1,0,-1
EndSplineSet
Position2: "'cpsp' Capital Spacing in Latin lookup 0 subtable" dx=16 dy=0 dh=32 dv=0
EndChar

StartChar: F
Encoding: 70 70 36
Width: 1248
Flags: W
LayerCount: 2
Fore
SplineSet
184 1416 m 1,0,-1
 1141 1416 l 1,1,-1
 1141 1248 l 1,2,-1
 369 1248 l 1,3,-1
 369 646 l 1,4,-1
 1066 646 l 1,5,-1
 1066 478 l 1,6,-1
 369 478 l 1,7,-1
 369 0 l 1,8,-1
 184 0 l 1,9,-1
 184 1416 l 1,0,-1
EndSplineSet
Position2: "'cpsp' Capital Spacing in Latin lookup 0 subtable" dx=16 dy=0 dh=32 dv=0
EndChar

StartChar: G
Encoding: 71 71 37
Width: 1704
Flags: W
LayerCount: 2
Fore
SplineSet
137 693 m 0,0,1
 137 802 137 802 164.5 899.5 c 128,-1,2
 192 997 192 997 243 1079.5 c 128,-1,3
 294 1162 294 1162 365 1228 c 128,-1,4
 436 1294 436 1294 523 1340 c 128,-1,5
 610 1386 610 1386 710.5 1411 c 128,-1,6
 811 1436 811 1436 920 1436 c 0,7,8
 1076 1436 1076 1436 1209.5 1390.5 c 128,-1,9
 1343 1345 1343 1345 1443 1260 c 1,10,-1
 1339 1118 l 1,11,12
 1301 1151 1301 1151 1253 1179 c 128,-1,13
 1205 1207 1205 1207 1149 1227.5 c 128,-1,14
 1093 1248 1093 1248 1030.5 1259 c 128,-1,15
 968 1270 968 1270 902 1270 c 0,16,17
 784 1270 784 1270 680.5 1228.5 c 128,-1,18
 577 1187 577 1187 499.5 1114 c 128,-1,19
 422 1041 422 1041 377.5 941 c 128,-1,20
 333 841 333 841 333 723 c 0,21,22
 333 595 333 595 376.5 489 c 128,-1,23
 420 383 420 383 497.5 307 c 128,-1,24
 575 231 575 231 682 188.5 c 128,-1,25
 789 146 789 146 917 146 c 0,26,27
 987 146 987 146 1050 161 c 128,-1,28
 1113 176 1113 176 1166 201.5 c 128,-1,29
 1219 227 1219 227 1262 259 c 128,-1,30
 1305 291 1305 291 1335 326 c 1,31,-1
 1335 479 l 1,32,-1
 844 479 l 1,33,-1
 844 647 l 1,34,-1
 1520 647 l 1,35,-1
 1520 0 l 1,36,-1
 1335 0 l 1,37,-1
 1335 137 l 1,38,39
 1305 110 1305 110 1260 82 c 128,-1,40
 1215 54 1215 54 1157 31.5 c 128,-1,41
 1099 9 1099 9 1029.5 -5.5 c 128,-1,42
 960 -20 960 -20 879 -20 c 0,43,44
 774 -20 774 -20 678 3.5 c 128,-1,45
 582 27 582 27 500 71.5 c 128,-1,46
 418 116 418 116 350.5 179 c 128,-1,47
 283 242 283 242 236 321.5 c 128,-1,48
 189 401 189 401 163 494.5 c 128,-1,49
 137 588 137 588 137 693 c 0,0,1
EndSplineSet
Position2: "'cpsp' Capital Spacing in Latin lookup 0 subtable" dx=16 dy=0 dh=32 dv=0
EndChar

StartChar: H
Encoding: 72 72 38
Width: 1607
Flags: W
LayerCount: 2
Fore
SplineSet
184 1416 m 1,0,-1
 369 1416 l 1,1,-1
 369 647 l 1,2,-1
 1238 647 l 1,3,-1
 1238 1416 l 1,4,-1
 1423 1416 l 1,5,-1
 1423 0 l 1,6,-1
 1238 0 l 1,7,-1
 1238 479 l 1,8,-1
 369 479 l 1,9,-1
 369 0 l 1,10,-1
 184 0 l 1,11,-1
 184 1416 l 1,0,-1
EndSplineSet
Position2: "'cpsp' Capital Spacing in Latin lookup 0 subtable" dx=16 dy=0 dh=32 dv=0
EndChar

StartChar: I
Encoding: 73 73 39
Width: 553
Flags: W
LayerCount: 2
Fore
SplineSet
184 1416 m 1,0,-1
 369 1416 l 1,1,-1
 369 0 l 1,2,-1
 184 0 l 1,3,-1
 184 1416 l 1,0,-1
EndSplineSet
Position2: "'cpsp' Capital Spacing in Latin lookup 0 subtable" dx=16 dy=0 dh=32 dv=0
EndChar

StartChar: J
Encoding: 74 74 40
Width: 1190
Flags: W
LayerCount: 2
Fore
SplineSet
270 498 m 1,0,1
 270 431 270 431 287 368 c 128,-1,2
 304 305 304 305 338 255.5 c 128,-1,3
 372 206 372 206 422.5 176 c 128,-1,4
 473 146 473 146 540 146 c 0,5,6
 618 146 618 146 671.5 172.5 c 128,-1,7
 725 199 725 199 758.5 246 c 128,-1,8
 792 293 792 293 806.5 358.5 c 128,-1,9
 821 424 821 424 821 502 c 2,10,-1
 821 1416 l 1,11,-1
 1006 1416 l 1,12,-1
 1006 522 l 2,13,14
 1006 397 1006 397 976.5 297 c 128,-1,15
 947 197 947 197 887 126.5 c 128,-1,16
 827 56 827 56 735 18 c 128,-1,17
 643 -20 643 -20 519 -20 c 0,18,19
 420 -20 420 -20 340.5 20 c 128,-1,20
 261 60 261 60 205.5 127.5 c 128,-1,21
 150 195 150 195 120 284.5 c 128,-1,22
 90 374 90 374 90 473 c 1,23,-1
 270 498 l 1,0,1
EndSplineSet
Position2: "'cpsp' Capital Spacing in Latin lookup 0 subtable" dx=16 dy=0 dh=32 dv=0
EndChar

StartChar: K
Encoding: 75 75 41
Width: 1404
Flags: W
LayerCount: 2
Fore
SplineSet
184 1416 m 1,0,-1
 374 1416 l 1,1,-1
 374 711 l 1,2,-1
 1109 1416 l 1,3,-1
 1348 1416 l 1,4,-1
 578 682 l 1,5,-1
 1381 0 l 1,6,-1
 1089 0 l 1,7,-1
 374 625 l 1,8,-1
 374 0 l 1,9,-1
 184 0 l 1,10,-1
 184 1416 l 1,0,-1
EndSplineSet
Position2: "'cpsp' Capital Spacing in Latin lookup 0 subtable" dx=16 dy=0 dh=32 dv=0
EndChar

StartChar: L
Encoding: 76 76 42
Width: 1208
Flags: W
LayerCount: 2
Fore
SplineSet
184 1416 m 1,0,-1
 369 1416 l 1,1,-1
 369 168 l 1,2,-1
 1141 168 l 1,3,-1
 1141 0 l 1,4,-1
 184 0 l 1,5,-1
 184 1416 l 1,0,-1
EndSplineSet
Position2: "'cpsp' Capital Spacing in Latin lookup 0 subtable" dx=16 dy=0 dh=32 dv=0
EndChar

StartChar: M
Encoding: 77 77 43
Width: 1947
Flags: W
LayerCount: 2
Fore
SplineSet
287 1415 m 1,0,-1
 342 1415 l 1,1,-1
 967 730 l 1,2,-1
 1591 1415 l 1,3,-1
 1650 1415 l 1,4,-1
 1770 0 l 1,5,-1
 1589 0 l 1,6,-1
 1498 1065 l 1,7,-1
 969 479 l 1,8,-1
 949 479 l 1,9,-1
 436 1056 l 1,10,-1
 356 0 l 1,11,-1
 177 0 l 1,12,-1
 287 1415 l 1,0,-1
EndSplineSet
Position2: "'cpsp' Capital Spacing in Latin lookup 0 subtable" dx=16 dy=0 dh=32 dv=0
EndChar

StartChar: N
Encoding: 78 78 44
Width: 1607
Flags: W
LayerCount: 2
Fore
SplineSet
184 1416 m 1,0,-1
 346 1416 l 1,1,-1
 1258 298 l 1,2,-1
 1258 1416 l 1,3,-1
 1423 1416 l 1,4,-1
 1423 0 l 1,5,-1
 1268 0 l 1,6,-1
 349 1126 l 1,7,-1
 349 0 l 1,8,-1
 184 0 l 1,9,-1
 184 1416 l 1,0,-1
EndSplineSet
Position2: "'cpsp' Capital Spacing in Latin lookup 0 subtable" dx=16 dy=0 dh=32 dv=0
EndChar

StartChar: O
Encoding: 79 79 45
Width: 1822
Flags: W
LayerCount: 2
Fore
SplineSet
137 693 m 0,0,1
 137 802 137 802 164.5 899.5 c 128,-1,2
 192 997 192 997 243 1079.5 c 128,-1,3
 294 1162 294 1162 365 1228 c 128,-1,4
 436 1294 436 1294 523 1340 c 128,-1,5
 610 1386 610 1386 710.5 1411 c 128,-1,6
 811 1436 811 1436 920 1436 c 0,7,8
 1025 1436 1025 1436 1122 1412 c 128,-1,9
 1219 1388 1219 1388 1304 1344 c 128,-1,10
 1389 1300 1389 1300 1459 1236.5 c 128,-1,11
 1529 1173 1529 1173 1579.5 1093.5 c 128,-1,12
 1630 1014 1630 1014 1657.5 920.5 c 128,-1,13
 1685 827 1685 827 1685 723 c 0,14,15
 1685 614 1685 614 1657.5 516.5 c 128,-1,16
 1630 419 1630 419 1579 336.5 c 128,-1,17
 1528 254 1528 254 1457 188 c 128,-1,18
 1386 122 1386 122 1299 76 c 128,-1,19
 1212 30 1212 30 1111.5 5 c 128,-1,20
 1011 -20 1011 -20 902 -20 c 0,21,22
 745 -20 745 -20 606 32.5 c 128,-1,23
 467 85 467 85 362.5 179.5 c 128,-1,24
 258 274 258 274 197.5 405 c 128,-1,25
 137 536 137 536 137 693 c 0,0,1
333 723 m 0,26,27
 333 601 333 601 379 496 c 128,-1,28
 425 391 425 391 505 313 c 128,-1,29
 585 235 585 235 691.5 190.5 c 128,-1,30
 798 146 798 146 920 146 c 0,31,32
 1038 146 1038 146 1141.5 187.5 c 128,-1,33
 1245 229 1245 229 1322 302 c 128,-1,34
 1399 375 1399 375 1444 475 c 128,-1,35
 1489 575 1489 575 1489 693 c 0,36,37
 1489 774 1489 774 1468 848 c 128,-1,38
 1447 922 1447 922 1409 986.5 c 128,-1,39
 1371 1051 1371 1051 1317 1103 c 128,-1,40
 1263 1155 1263 1155 1198 1192.5 c 128,-1,41
 1133 1230 1133 1230 1058 1250 c 128,-1,42
 983 1270 983 1270 902 1270 c 0,43,44
 784 1270 784 1270 680.5 1228.5 c 128,-1,45
 577 1187 577 1187 499.5 1114 c 128,-1,46
 422 1041 422 1041 377.5 941 c 128,-1,47
 333 841 333 841 333 723 c 0,26,27
EndSplineSet
Position2: "'cpsp' Capital Spacing in Latin lookup 0 subtable" dx=16 dy=0 dh=32 dv=0
EndChar

StartChar: P
Encoding: 80 80 46
Width: 1470
Flags: W
LayerCount: 2
Fore
SplineSet
184 1416 m 1,0,-1
 745 1416 l 2,1,2
 880 1416 880 1416 996.5 1384.5 c 128,-1,3
 1113 1353 1113 1353 1199 1288.5 c 128,-1,4
 1285 1224 1285 1224 1334 1125 c 128,-1,5
 1383 1026 1383 1026 1383 891 c 0,6,7
 1383 751 1383 751 1331 643 c 128,-1,8
 1279 535 1279 535 1189 461 c 128,-1,9
 1099 387 1099 387 977.5 348.5 c 128,-1,10
 856 310 856 310 717 310 c 2,11,-1
 369 310 l 1,12,-1
 369 0 l 1,13,-1
 184 0 l 1,14,-1
 184 1416 l 1,0,-1
742 478 m 2,15,16
 841 478 841 478 923 503.5 c 128,-1,17
 1005 529 1005 529 1063.5 579.5 c 128,-1,18
 1122 630 1122 630 1154.5 705 c 128,-1,19
 1187 780 1187 780 1187 879 c 0,20,21
 1187 976 1187 976 1150 1046 c 128,-1,22
 1113 1116 1113 1116 1049 1161 c 128,-1,23
 985 1206 985 1206 899 1227 c 128,-1,24
 813 1248 813 1248 716 1248 c 2,25,-1
 369 1248 l 1,26,-1
 369 478 l 1,27,-1
 742 478 l 2,15,16
EndSplineSet
Position2: "'cpsp' Capital Spacing in Latin lookup 0 subtable" dx=16 dy=0 dh=32 dv=0
EndChar

StartChar: Q
Encoding: 81 81 47
Width: 1823
Flags: W
LayerCount: 2
Fore
SplineSet
137 693 m 0,0,1
 137 802 137 802 164.5 899.5 c 128,-1,2
 192 997 192 997 243 1079.5 c 128,-1,3
 294 1162 294 1162 365 1228 c 128,-1,4
 436 1294 436 1294 523 1340 c 128,-1,5
 610 1386 610 1386 710.5 1411 c 128,-1,6
 811 1436 811 1436 920 1436 c 0,7,8
 1025 1436 1025 1436 1122 1412 c 128,-1,9
 1219 1388 1219 1388 1304 1344 c 128,-1,10
 1389 1300 1389 1300 1459 1236.5 c 128,-1,11
 1529 1173 1529 1173 1579.5 1093.5 c 128,-1,12
 1630 1014 1630 1014 1657.5 920.5 c 128,-1,13
 1685 827 1685 827 1685 723 c 0,14,15
 1685 581 1685 581 1638.5 459 c 128,-1,16
 1592 337 1592 337 1509.5 242.5 c 128,-1,17
 1427 148 1427 148 1314 84.5 c 128,-1,18
 1201 21 1201 21 1068 -4 c 1,19,-1
 1419 -246 l 1,20,-1
 1219 -329 l 1,21,-1
 798 -13 l 1,22,23
 659 3 659 3 538.5 62 c 128,-1,24
 418 121 418 121 328.5 213 c 128,-1,25
 239 305 239 305 188 427 c 128,-1,26
 137 549 137 549 137 693 c 0,0,1
333 723 m 0,27,28
 333 601 333 601 379 496 c 128,-1,29
 425 391 425 391 505 313 c 128,-1,30
 585 235 585 235 691.5 190.5 c 128,-1,31
 798 146 798 146 920 146 c 0,32,33
 1038 146 1038 146 1141.5 187.5 c 128,-1,34
 1245 229 1245 229 1322 302 c 128,-1,35
 1399 375 1399 375 1444 475 c 128,-1,36
 1489 575 1489 575 1489 693 c 0,37,38
 1489 774 1489 774 1468 848 c 128,-1,39
 1447 922 1447 922 1409 986.5 c 128,-1,40
 1371 1051 1371 1051 1317 1103 c 128,-1,41
 1263 1155 1263 1155 1198 1192.5 c 128,-1,42
 1133 1230 1133 1230 1058 1250 c 128,-1,43
 983 1270 983 1270 902 1270 c 0,44,45
 784 1270 784 1270 680.5 1228.5 c 128,-1,46
 577 1187 577 1187 499.5 1114 c 128,-1,47
 422 1041 422 1041 377.5 941 c 128,-1,48
 333 841 333 841 333 723 c 0,27,28
EndSplineSet
Position2: "'cpsp' Capital Spacing in Latin lookup 0 subtable" dx=16 dy=0 dh=32 dv=0
EndChar

StartChar: R
Encoding: 82 82 48
Width: 1550
Flags: W
LayerCount: 2
Fore
SplineSet
184 1416 m 1,0,-1
 765 1416 l 2,1,2
 906 1416 906 1416 1026 1397.5 c 128,-1,3
 1146 1379 1146 1379 1234.5 1330 c 128,-1,4
 1323 1281 1323 1281 1373 1196.5 c 128,-1,5
 1423 1112 1423 1112 1423 980 c 0,6,7
 1423 895 1423 895 1402 826.5 c 128,-1,8
 1381 758 1381 758 1343 704.5 c 128,-1,9
 1305 651 1305 651 1251.5 611.5 c 128,-1,10
 1198 572 1198 572 1133 545 c 1,11,-1
 1402 0 l 1,12,-1
 1187 0 l 1,13,-1
 944 493 l 1,14,15
 845 478 845 478 737 478 c 2,16,-1
 369 478 l 1,17,-1
 369 0 l 1,18,-1
 184 0 l 1,19,-1
 184 1416 l 1,0,-1
762 646 m 2,20,21
 861 646 861 646 946 659 c 128,-1,22
 1031 672 1031 672 1093.5 708 c 128,-1,23
 1156 744 1156 744 1191.5 806.5 c 128,-1,24
 1227 869 1227 869 1227 968 c 0,25,26
 1227 1059 1227 1059 1185.5 1114.5 c 128,-1,27
 1144 1170 1144 1170 1076 1199.5 c 128,-1,28
 1008 1229 1008 1229 919 1238.5 c 128,-1,29
 830 1248 830 1248 736 1248 c 2,30,-1
 369 1248 l 1,31,-1
 369 646 l 1,32,-1
 762 646 l 2,20,21
EndSplineSet
Position2: "'cpsp' Capital Spacing in Latin lookup 0 subtable" dx=16 dy=0 dh=32 dv=0
EndChar

StartChar: S
Encoding: 83 83 49
Width: 1459
Flags: W
LayerCount: 2
Fore
SplineSet
223 319 m 1,0,1
 279 283 279 283 342 252 c 128,-1,2
 405 221 405 221 470.5 197.5 c 128,-1,3
 536 174 536 174 601 161 c 128,-1,4
 666 148 666 148 726 148 c 0,5,6
 800 148 800 148 871.5 160.5 c 128,-1,7
 943 173 943 173 998.5 202.5 c 128,-1,8
 1054 232 1054 232 1088 281.5 c 128,-1,9
 1122 331 1122 331 1122 405 c 0,10,11
 1122 459 1122 459 1095 496.5 c 128,-1,12
 1068 534 1068 534 1022 559.5 c 128,-1,13
 976 585 976 585 914.5 601.5 c 128,-1,14
 853 618 853 618 783.5 631 c 128,-1,15
 714 644 714 644 641 656.5 c 128,-1,16
 568 669 568 669 498.5 686.5 c 128,-1,17
 429 704 429 704 367.5 729.5 c 128,-1,18
 306 755 306 755 260 793.5 c 128,-1,19
 214 832 214 832 187 886.5 c 128,-1,20
 160 941 160 941 160 1018 c 0,21,22
 160 1120 160 1120 211 1198 c 128,-1,23
 262 1276 262 1276 343.5 1329 c 128,-1,24
 425 1382 425 1382 527 1409 c 128,-1,25
 629 1436 629 1436 731 1436 c 0,26,27
 804 1436 804 1436 868.5 1429 c 128,-1,28
 933 1422 933 1422 994.5 1406.5 c 128,-1,29
 1056 1391 1056 1391 1116.5 1366.5 c 128,-1,30
 1177 1342 1177 1342 1243 1306 c 1,31,-1
 1175 1143 l 1,32,33
 1128 1171 1128 1171 1072 1194 c 128,-1,34
 1016 1217 1016 1217 955.5 1232.5 c 128,-1,35
 895 1248 895 1248 833 1256.5 c 128,-1,36
 771 1265 771 1265 713 1265 c 256,37,38
 655 1265 655 1265 592.5 1252.5 c 128,-1,39
 530 1240 530 1240 478 1214 c 128,-1,40
 426 1188 426 1188 392.5 1147 c 128,-1,41
 359 1106 359 1106 359 1048 c 0,42,43
 359 984 359 984 400.5 945.5 c 128,-1,44
 442 907 442 907 510 883.5 c 128,-1,45
 578 860 578 860 664.5 845 c 128,-1,46
 751 830 751 830 841.5 813.5 c 128,-1,47
 932 797 932 797 1018.5 773 c 128,-1,48
 1105 749 1105 749 1173 707.5 c 128,-1,49
 1241 666 1241 666 1282.5 600.5 c 128,-1,50
 1324 535 1324 535 1324 436 c 0,51,52
 1324 318 1324 318 1273 232 c 128,-1,53
 1222 146 1222 146 1137 89.5 c 128,-1,54
 1052 33 1052 33 942 6 c 128,-1,55
 832 -21 832 -21 714 -21 c 0,56,57
 637 -21 637 -21 559 -9 c 128,-1,58
 481 3 481 3 406.5 26 c 128,-1,59
 332 49 332 49 263 83 c 128,-1,60
 194 117 194 117 135 161 c 1,61,-1
 223 319 l 1,0,1
EndSplineSet
Position2: "'cpsp' Capital Spacing in Latin lookup 0 subtable" dx=16 dy=0 dh=32 dv=0
EndChar

StartChar: T
Encoding: 84 84 50
Width: 1383
Flags: W
LayerCount: 2
Fore
SplineSet
599 1248 m 1,0,-1
 67 1248 l 1,1,-1
 67 1416 l 1,2,-1
 1316 1416 l 1,3,-1
 1316 1248 l 1,4,-1
 784 1248 l 1,5,-1
 784 0 l 1,6,-1
 599 0 l 1,7,-1
 599 1248 l 1,0,-1
EndSplineSet
Position2: "'cpsp' Capital Spacing in Latin lookup 0 subtable" dx=16 dy=0 dh=32 dv=0
EndChar

StartChar: U
Encoding: 85 85 51
Width: 1592
Flags: W
LayerCount: 2
Fore
SplineSet
153 1416 m 1,0,-1
 338 1416 l 1,1,-1
 338 683 l 2,2,3
 338 561 338 561 365.5 462 c 128,-1,4
 393 363 393 363 450 293 c 128,-1,5
 507 223 507 223 595 184.5 c 128,-1,6
 683 146 683 146 805 146 c 0,7,8
 923 146 923 146 1007.5 181 c 128,-1,9
 1092 216 1092 216 1147 281.5 c 128,-1,10
 1202 347 1202 347 1228 441 c 128,-1,11
 1254 535 1254 535 1254 653 c 2,12,-1
 1254 1416 l 1,13,-1
 1439 1416 l 1,14,-1
 1439 683 l 2,15,16
 1439 519 1439 519 1398.5 389 c 128,-1,17
 1358 259 1358 259 1276.5 168 c 128,-1,18
 1195 77 1195 77 1072.5 28.5 c 128,-1,19
 950 -20 950 -20 787 -20 c 0,20,21
 630 -20 630 -20 511.5 26.5 c 128,-1,22
 393 73 393 73 313.5 160 c 128,-1,23
 234 247 234 247 193.5 371.5 c 128,-1,24
 153 496 153 496 153 653 c 2,25,-1
 153 1416 l 1,0,-1
EndSplineSet
Position2: "'cpsp' Capital Spacing in Latin lookup 0 subtable" dx=16 dy=0 dh=32 dv=0
EndChar

StartChar: V
Encoding: 86 86 52
Width: 1463
Flags: W
LayerCount: 2
Fore
SplineSet
25 1416 m 1,0,-1
 232 1416 l 1,1,-1
 600 603 l 2,2,3
 625 547 625 547 646.5 491.5 c 128,-1,4
 668 436 668 436 685 391 c 0,5,6
 704 338 704 338 720 291 c 1,7,-1
 729 291 l 1,8,9
 743 336 743 336 761 385 c 0,10,11
 776 427 776 427 796.5 480.5 c 128,-1,12
 817 534 817 534 843 590 c 2,13,-1
 1217 1416 l 1,14,-1
 1413 1416 l 1,15,-1
 763 -20 l 1,16,-1
 675 -20 l 1,17,-1
 25 1416 l 1,0,-1
EndSplineSet
Position2: "'cpsp' Capital Spacing in Latin lookup 0 subtable" dx=16 dy=0 dh=32 dv=0
EndChar

StartChar: W
Encoding: 87 87 53
Width: 2118
Flags: W
LayerCount: 2
Fore
SplineSet
47 1416 m 1,0,-1
 262 1416 l 1,1,-1
 551 699 l 2,2,3
 574 642 574 642 591.5 595.5 c 128,-1,4
 609 549 609 549 623 510 c 128,-1,5
 637 471 637 471 648.5 437 c 128,-1,6
 660 403 660 403 671 372 c 1,7,-1
 680 372 l 1,8,9
 693 419 693 419 710 472 c 0,10,11
 724 517 724 517 742.5 574.5 c 128,-1,12
 761 632 761 632 784 695 c 2,13,-1
 1043 1416 l 1,14,-1
 1100 1416 l 1,15,-1
 1367 710 l 2,16,17
 1388 653 1388 653 1408 594 c 128,-1,18
 1428 535 1428 535 1445 485 c 0,19,20
 1464 427 1464 427 1482 372 c 1,21,-1
 1491 372 l 1,22,23
 1509 430 1509 430 1527 490 c 0,24,25
 1543 541 1543 541 1562 600.5 c 128,-1,26
 1581 660 1581 660 1601 713 c 2,27,-1
 1856 1416 l 1,28,-1
 2071 1416 l 1,29,-1
 1513 -20 l 1,30,-1
 1456 -20 l 1,31,-1
 1152 782 l 2,32,33
 1139 814 1139 814 1125.5 855 c 128,-1,34
 1112 896 1112 896 1100 933 c 0,35,36
 1086 976 1086 976 1072 1020 c 1,37,-1
 1066 1020 l 1,38,39
 1053 976 1053 976 1040 933 c 0,40,41
 1029 896 1029 896 1015.5 855.5 c 128,-1,42
 1002 815 1002 815 991 783 c 2,43,-1
 702 -20 l 1,44,-1
 645 -20 l 1,45,-1
 47 1416 l 1,0,-1
EndSplineSet
Position2: "'cpsp' Capital Spacing in Latin lookup 0 subtable" dx=16 dy=0 dh=32 dv=0
EndChar

StartChar: X
Encoding: 88 88 54
Width: 1443
Flags: W
LayerCount: 2
Fore
SplineSet
597 714 m 1,0,-1
 47 1416 l 1,1,-1
 290 1416 l 1,2,-1
 718 869 l 1,3,-1
 1143 1416 l 1,4,-1
 1364 1416 l 1,5,-1
 829 728 l 1,6,-1
 1400 0 l 1,7,-1
 1157 0 l 1,8,-1
 708 572 l 1,9,-1
 264 0 l 1,10,-1
 43 0 l 1,11,-1
 597 714 l 1,0,-1
EndSplineSet
Position2: "'cpsp' Capital Spacing in Latin lookup 0 subtable" dx=16 dy=0 dh=32 dv=0
EndChar

StartChar: Y
Encoding: 89 89 55
Width: 1291
Flags: W
LayerCount: 2
Fore
SplineSet
559 604 m 1,0,-1
 37 1416 l 1,1,-1
 240 1416 l 1,2,-1
 653 769 l 1,3,-1
 1063 1416 l 1,4,-1
 1254 1416 l 1,5,-1
 744 607 l 1,6,-1
 744 0 l 1,7,-1
 559 0 l 1,8,-1
 559 604 l 1,0,-1
EndSplineSet
Position2: "'cpsp' Capital Spacing in Latin lookup 0 subtable" dx=16 dy=0 dh=32 dv=0
EndChar

StartChar: Z
Encoding: 90 90 56
Width: 1318
Flags: W
LayerCount: 2
Fore
SplineSet
107 168 m 1,0,-1
 980 1249 l 1,1,-1
 107 1249 l 1,2,-1
 107 1417 l 1,3,-1
 1211 1417 l 1,4,-1
 1211 1249 l 1,5,-1
 338 168 l 1,6,-1
 1211 168 l 1,7,-1
 1211 0 l 1,8,-1
 107 0 l 1,9,-1
 107 168 l 1,0,-1
EndSplineSet
Position2: "'cpsp' Capital Spacing in Latin lookup 0 subtable" dx=16 dy=0 dh=32 dv=0
EndChar

StartChar: ampersand
Encoding: 38 38 57
Width: 1535
Flags: W
LayerCount: 2
Fore
SplineSet
137 387 m 0,0,1
 137 524 137 524 208 626.5 c 128,-1,2
 279 729 279 729 409 808 c 1,3,4
 367 870 367 870 344 927 c 128,-1,5
 321 984 321 984 321 1037 c 0,6,7
 321 1131 321 1131 352 1205 c 128,-1,8
 383 1279 383 1279 438.5 1330.5 c 128,-1,9
 494 1382 494 1382 571.5 1409 c 128,-1,10
 649 1436 649 1436 743 1436 c 0,11,12
 842 1436 842 1436 939.5 1403.5 c 128,-1,13
 1037 1371 1037 1371 1125 1300 c 1,14,-1
 1032 1152 l 1,15,16
 1000 1180 1000 1180 962.5 1202 c 128,-1,17
 925 1224 925 1224 885 1239 c 128,-1,18
 845 1254 845 1254 804.5 1262 c 128,-1,19
 764 1270 764 1270 725 1270 c 0,20,21
 627 1270 627 1270 572 1217.5 c 128,-1,22
 517 1165 517 1165 517 1067 c 0,23,24
 517 1030 517 1030 539 984.5 c 128,-1,25
 561 939 561 939 600 887.5 c 128,-1,26
 639 836 639 836 692 780 c 128,-1,27
 745 724 745 724 807 666 c 128,-1,28
 869 608 869 608 938 549.5 c 128,-1,29
 1007 491 1007 491 1077 434 c 1,30,31
 1117 519 1117 519 1136.5 615.5 c 128,-1,32
 1156 712 1156 712 1156 812 c 1,33,-1
 1343 814 l 1,34,35
 1343 680 1343 680 1311 554.5 c 128,-1,36
 1279 429 1279 429 1217 323 c 1,37,38
 1295 263 1295 263 1366.5 209.5 c 128,-1,39
 1438 156 1438 156 1496 112 c 1,40,-1
 1373 -29 l 1,41,42
 1311 15 1311 15 1241.5 64 c 128,-1,43
 1172 113 1172 113 1099 168 c 1,44,45
 1012 80 1012 80 898.5 30.5 c 128,-1,46
 785 -19 785 -19 645 -19 c 0,47,48
 543 -19 543 -19 451 6 c 128,-1,49
 359 31 359 31 289 82 c 128,-1,50
 219 133 219 133 178 209 c 128,-1,51
 137 285 137 285 137 387 c 0,0,1
333 417 m 0,52,53
 333 354 333 354 361 304 c 128,-1,54
 389 254 389 254 435 219 c 128,-1,55
 481 184 481 184 540.5 165.5 c 128,-1,56
 600 147 600 147 663 147 c 0,57,58
 757 147 757 147 832 180 c 128,-1,59
 907 213 907 213 965 270 c 1,60,61
 840 368 840 368 722.5 470.5 c 128,-1,62
 605 573 605 573 514 676 c 1,63,64
 467 650 467 650 432.5 623 c 128,-1,65
 398 596 398 596 376 565 c 128,-1,66
 354 534 354 534 343.5 498 c 128,-1,67
 333 462 333 462 333 417 c 0,52,53
EndSplineSet
Position2: "'cpsp' Capital Spacing in Latin lookup 0 subtable" dx=16 dy=0 dh=32 dv=0
EndChar

StartChar: zero
Encoding: 48 48 58
Width: 1662
Flags: W
LayerCount: 2
Fore
SplineSet
137 693 m 0,0,1
 137 856 137 856 185.5 993 c 128,-1,2
 234 1130 234 1130 325 1228 c 128,-1,3
 416 1326 416 1326 546 1381 c 128,-1,4
 676 1436 676 1436 840 1436 c 0,5,6
 997 1436 997 1436 1123.5 1383.5 c 128,-1,7
 1250 1331 1250 1331 1339 1236.5 c 128,-1,8
 1428 1142 1428 1142 1476.5 1011 c 128,-1,9
 1525 880 1525 880 1525 723 c 0,10,11
 1525 559 1525 559 1476.5 422.5 c 128,-1,12
 1428 286 1428 286 1337 188 c 128,-1,13
 1246 90 1246 90 1115.5 35 c 128,-1,14
 985 -20 985 -20 822 -20 c 0,15,16
 665 -20 665 -20 538.5 32.5 c 128,-1,17
 412 85 412 85 322.5 179.5 c 128,-1,18
 233 274 233 274 185 405 c 128,-1,19
 137 536 137 536 137 693 c 0,0,1
333 723 m 0,20,21
 333 601 333 601 366.5 496 c 128,-1,22
 400 391 400 391 465 313 c 128,-1,23
 530 235 530 235 624 190.5 c 128,-1,24
 718 146 718 146 840 146 c 0,25,26
 958 146 958 146 1049 187.5 c 128,-1,27
 1140 229 1140 229 1202 302 c 128,-1,28
 1264 375 1264 375 1296.5 475 c 128,-1,29
 1329 575 1329 575 1329 693 c 0,30,31
 1329 814 1329 814 1295.5 919.5 c 128,-1,32
 1262 1025 1262 1025 1197 1103 c 128,-1,33
 1132 1181 1132 1181 1037.5 1225.5 c 128,-1,34
 943 1270 943 1270 822 1270 c 0,35,36
 704 1270 704 1270 613 1228.5 c 128,-1,37
 522 1187 522 1187 459.5 1114 c 128,-1,38
 397 1041 397 1041 365 941 c 128,-1,39
 333 841 333 841 333 723 c 0,20,21
EndSplineSet
EndChar

StartChar: one
Encoding: 49 49 59
Width: 853
Flags: W
LayerCount: 2
Fore
SplineSet
484 1237 m 1,0,-1
 109 1025 l 1,1,-1
 55 1186 l 1,2,-1
 484 1416 l 1,3,-1
 669 1416 l 1,4,-1
 669 0 l 1,5,-1
 484 0 l 1,6,-1
 484 1237 l 1,0,-1
EndSplineSet
EndChar

StartChar: two
Encoding: 50 50 60
Width: 1249
Flags: W
LayerCount: 2
Fore
SplineSet
148 168 m 1,0,-1
 523 492 l 2,1,2
 601 560 601 560 668 627 c 128,-1,3
 735 694 735 694 784 758.5 c 128,-1,4
 833 823 833 823 861 884.5 c 128,-1,5
 889 946 889 946 889 1002 c 0,6,7
 889 1141 889 1141 814.5 1204.5 c 128,-1,8
 740 1268 740 1268 585 1268 c 0,9,10
 540 1268 540 1268 485.5 1257.5 c 128,-1,11
 431 1247 431 1247 379 1231.5 c 128,-1,12
 327 1216 327 1216 282.5 1198.5 c 128,-1,13
 238 1181 238 1181 213 1168 c 1,14,-1
 162 1327 l 1,15,16
 199 1346 199 1346 254.5 1365.5 c 128,-1,17
 310 1385 310 1385 372.5 1401 c 128,-1,18
 435 1417 435 1417 498.5 1426.5 c 128,-1,19
 562 1436 562 1436 614 1436 c 0,20,21
 720 1436 720 1436 806.5 1407 c 128,-1,22
 893 1378 893 1378 955 1324 c 128,-1,23
 1017 1270 1017 1270 1051 1191.5 c 128,-1,24
 1085 1113 1085 1113 1085 1014 c 0,25,26
 1085 940 1085 940 1054.5 863 c 128,-1,27
 1024 786 1024 786 972 710 c 128,-1,28
 920 634 920 634 851 562 c 128,-1,29
 782 490 782 490 706 426 c 2,30,-1
 408 175 l 1,31,-1
 1122 176 l 1,32,-1
 1122 0 l 1,33,-1
 148 0 l 1,34,-1
 148 168 l 1,0,-1
EndSplineSet
EndChar

StartChar: three
Encoding: 51 51 61
Width: 1270
Flags: W
LayerCount: 2
Fore
SplineSet
165 255 m 1,0,1
 205 232 205 232 257 212.5 c 128,-1,2
 309 193 309 193 366.5 178.5 c 128,-1,3
 424 164 424 164 484.5 156 c 128,-1,4
 545 148 545 148 604 148 c 0,5,6
 665 148 665 148 724.5 164 c 128,-1,7
 784 180 784 180 830 211 c 128,-1,8
 876 242 876 242 904.5 288.5 c 128,-1,9
 933 335 933 335 933 397 c 0,10,11
 933 474 933 474 885 525.5 c 128,-1,12
 837 577 837 577 755.5 605.5 c 128,-1,13
 674 634 674 634 565 640.5 c 128,-1,14
 456 647 456 647 335 633 c 1,15,-1
 335 814 l 1,16,17
 376 812 376 812 414 811 c 1,18,19
 446 809 446 809 479 808.5 c 128,-1,20
 512 808 512 808 531 808 c 0,21,22
 600 808 600 808 665 821 c 128,-1,23
 730 834 730 834 780 863 c 128,-1,24
 830 892 830 892 860.5 939.5 c 128,-1,25
 891 987 891 987 891 1056 c 0,26,27
 891 1112 891 1112 866 1152.5 c 128,-1,28
 841 1193 841 1193 799.5 1218.5 c 128,-1,29
 758 1244 758 1244 704.5 1256 c 128,-1,30
 651 1268 651 1268 595 1268 c 0,31,32
 550 1268 550 1268 498 1260.5 c 128,-1,33
 446 1253 446 1253 396 1240.5 c 128,-1,34
 346 1228 346 1228 301 1211.5 c 128,-1,35
 256 1195 256 1195 223 1178 c 1,36,-1
 172 1337 l 1,37,38
 216 1359 216 1359 272.5 1377 c 128,-1,39
 329 1395 329 1395 389.5 1408 c 128,-1,40
 450 1421 450 1421 511 1428.5 c 128,-1,41
 572 1436 572 1436 624 1436 c 0,42,43
 715 1436 715 1436 798.5 1412.5 c 128,-1,44
 882 1389 882 1389 946 1342.5 c 128,-1,45
 1010 1296 1010 1296 1048.5 1227.5 c 128,-1,46
 1087 1159 1087 1159 1087 1068 c 0,47,48
 1087 1018 1087 1018 1072 970 c 128,-1,49
 1057 922 1057 922 1028 879.5 c 128,-1,50
 999 837 999 837 955.5 803 c 128,-1,51
 912 769 912 769 854 749 c 1,52,-1
 853 740 l 1,53,54
 926 721 926 721 979 688.5 c 128,-1,55
 1032 656 1032 656 1066.5 612.5 c 128,-1,56
 1101 569 1101 569 1117 516.5 c 128,-1,57
 1133 464 1133 464 1133 406 c 0,58,59
 1133 304 1133 304 1084 224.5 c 128,-1,60
 1035 145 1035 145 956 91 c 128,-1,61
 877 37 877 37 777 8.5 c 128,-1,62
 677 -20 677 -20 575 -20 c 0,63,64
 508 -20 508 -20 443.5 -13 c 128,-1,65
 379 -6 379 -6 319.5 8 c 128,-1,66
 260 22 260 22 207 42.5 c 128,-1,67
 154 63 154 63 112 89 c 1,68,-1
 165 255 l 1,0,1
EndSplineSet
EndChar

StartChar: four
Encoding: 52 52 62
Width: 1398
Flags: W
LayerCount: 2
Fore
SplineSet
77 506 m 1,0,-1
 844 1416 l 1,1,-1
 1029 1416 l 1,2,-1
 1029 508 l 1,3,-1
 1309 508 l 1,4,-1
 1309 340 l 1,5,-1
 1029 340 l 1,6,-1
 1029 0 l 1,7,-1
 844 0 l 1,8,-1
 844 340 l 1,9,-1
 131 340 l 1,10,-1
 77 506 l 1,0,-1
844 508 m 1,11,-1
 844 1191 l 1,12,-1
 282 508 l 1,13,-1
 844 508 l 1,11,-1
EndSplineSet
EndChar

StartChar: five
Encoding: 53 53 63
Width: 1271
Flags: W
LayerCount: 2
Fore
SplineSet
166 255 m 1,0,1
 247 209 247 209 349 178.5 c 128,-1,2
 451 148 451 148 569 148 c 0,3,4
 643 148 643 148 709.5 165.5 c 128,-1,5
 776 183 776 183 826 217.5 c 128,-1,6
 876 252 876 252 905 304.5 c 128,-1,7
 934 357 934 357 934 427 c 0,8,9
 934 509 934 509 882 565 c 128,-1,10
 830 621 830 621 733.5 649.5 c 128,-1,11
 637 678 637 678 499.5 678.5 c 128,-1,12
 362 679 362 679 191 651 c 1,13,-1
 191 1416 l 1,14,-1
 1046 1416 l 1,15,-1
 1046 1248 l 1,16,-1
 376 1248 l 1,17,-1
 376 835 l 1,18,19
 472 848 472 848 565.5 847.5 c 128,-1,20
 659 847 659 847 743 832 c 128,-1,21
 827 817 827 817 898.5 786 c 128,-1,22
 970 755 970 755 1022.5 706.5 c 128,-1,23
 1075 658 1075 658 1104.5 591 c 128,-1,24
 1134 524 1134 524 1134 436 c 0,25,26
 1134 359 1134 359 1110 295 c 128,-1,27
 1086 231 1086 231 1044.5 180.5 c 128,-1,28
 1003 130 1003 130 946 92 c 128,-1,29
 889 54 889 54 823 29.5 c 128,-1,30
 757 5 757 5 685 -7.5 c 128,-1,31
 613 -20 613 -20 540 -20 c 0,32,33
 406 -20 406 -20 302 8 c 128,-1,34
 198 36 198 36 113 89 c 1,35,-1
 166 255 l 1,0,1
EndSplineSet
EndChar

StartChar: six
Encoding: 54 54 64
Width: 1418
Flags: W
LayerCount: 2
Fore
SplineSet
138 601 m 0,0,1
 138 764 138 764 168 890 c 128,-1,2
 198 1016 198 1016 250 1110 c 128,-1,3
 302 1204 302 1204 373.5 1268 c 128,-1,4
 445 1332 445 1332 527 1370.5 c 128,-1,5
 609 1409 609 1409 699 1424 c 128,-1,6
 789 1439 789 1439 879 1435.5 c 128,-1,7
 969 1432 969 1432 1055.5 1411.5 c 128,-1,8
 1142 1391 1142 1391 1218 1358 c 1,9,-1
 1170 1199 l 1,10,11
 1075 1237 1075 1237 982.5 1256 c 128,-1,12
 890 1275 890 1275 804.5 1271 c 128,-1,13
 719 1267 719 1267 644 1237.5 c 128,-1,14
 569 1208 569 1208 509 1148.5 c 128,-1,15
 449 1089 449 1089 407.5 998 c 128,-1,16
 366 907 366 907 347 779 c 1,17,18
 389 803 389 803 439.5 824 c 128,-1,19
 490 845 490 845 547 860 c 128,-1,20
 604 875 604 875 665 883.5 c 128,-1,21
 726 892 726 892 789 892 c 0,22,23
 893 892 893 892 984.5 866 c 128,-1,24
 1076 840 1076 840 1144.5 788.5 c 128,-1,25
 1213 737 1213 737 1252.5 659 c 128,-1,26
 1292 581 1292 581 1292 477 c 0,27,28
 1292 364 1292 364 1247 272.5 c 128,-1,29
 1202 181 1202 181 1125.5 116 c 128,-1,30
 1049 51 1049 51 947.5 15.5 c 128,-1,31
 846 -20 846 -20 733 -20 c 0,32,33
 593 -20 593 -20 482.5 24.5 c 128,-1,34
 372 69 372 69 295.5 150.5 c 128,-1,35
 219 232 219 232 178.5 346.5 c 128,-1,36
 138 461 138 461 138 601 c 0,0,1
334 576 m 2,37,38
 334 480 334 480 363 401 c 128,-1,39
 392 322 392 322 446.5 265 c 128,-1,40
 501 208 501 208 578 177 c 128,-1,41
 655 146 655 146 751 146 c 0,42,43
 821 146 821 146 884 166.5 c 128,-1,44
 947 187 947 187 994 226 c 128,-1,45
 1041 265 1041 265 1068.5 320.5 c 128,-1,46
 1096 376 1096 376 1096 447 c 0,47,48
 1096 514 1096 514 1070 565.5 c 128,-1,49
 1044 617 1044 617 1000 652 c 128,-1,50
 956 687 956 687 897 705.5 c 128,-1,51
 838 724 838 724 771 724 c 0,52,53
 706 724 706 724 643 713 c 128,-1,54
 580 702 580 702 523 684 c 128,-1,55
 466 666 466 666 417.5 642 c 128,-1,56
 369 618 369 618 334 593 c 1,57,-1
 334 576 l 2,37,38
EndSplineSet
EndChar

StartChar: seven
Encoding: 55 55 65
Width: 1105
Flags: W
LayerCount: 2
Fore
SplineSet
247 0 m 1,0,1
 270 108 270 108 310 228 c 128,-1,2
 350 348 350 348 401 469.5 c 128,-1,3
 452 591 452 591 510.5 708.5 c 128,-1,4
 569 826 569 826 629 929.5 c 128,-1,5
 689 1033 689 1033 747.5 1117.5 c 128,-1,6
 806 1202 806 1202 856 1258 c 1,7,8
 809 1255 809 1255 761 1253 c 0,9,10
 719 1251 719 1251 668.5 1249.5 c 128,-1,11
 618 1248 618 1248 570 1248 c 2,12,-1
 61 1248 l 1,13,-1
 61 1416 l 1,14,-1
 1058 1416 l 1,15,-1
 1058 1248 l 1,16,17
 1002 1189 1002 1189 939 1098 c 128,-1,18
 876 1007 876 1007 813.5 898 c 128,-1,19
 751 789 751 789 692.5 668 c 128,-1,20
 634 547 634 547 585.5 428 c 128,-1,21
 537 309 537 309 502 198.5 c 128,-1,22
 467 88 467 88 452 0 c 1,23,-1
 247 0 l 1,24,-1
 247 0 l 1,0,1
EndSplineSet
EndChar

StartChar: eight
Encoding: 56 56 66
Width: 1332
Flags: W
LayerCount: 2
Fore
SplineSet
127 397 m 0,0,1
 127 456 127 456 147.5 509.5 c 128,-1,2
 168 563 168 563 202.5 608 c 128,-1,3
 237 653 237 653 283 686.5 c 128,-1,4
 329 720 329 720 381 738 c 1,5,-1
 381 744 l 1,6,7
 338 756 338 756 299.5 784 c 128,-1,8
 261 812 261 812 231.5 852 c 128,-1,9
 202 892 202 892 185 941.5 c 128,-1,10
 168 991 168 991 168 1046 c 0,11,12
 168 1137 168 1137 211 1209.5 c 128,-1,13
 254 1282 254 1282 324.5 1332.5 c 128,-1,14
 395 1383 395 1383 485.5 1409.5 c 128,-1,15
 576 1436 576 1436 672 1436 c 0,16,17
 770 1436 770 1436 858.5 1411.5 c 128,-1,18
 947 1387 947 1387 1013.5 1339.5 c 128,-1,19
 1080 1292 1080 1292 1119.5 1222.5 c 128,-1,20
 1159 1153 1159 1153 1159 1062 c 0,21,22
 1159 1012 1159 1012 1144 964.5 c 128,-1,23
 1129 917 1129 917 1100 876 c 128,-1,24
 1071 835 1071 835 1027.5 802 c 128,-1,25
 984 769 984 769 926 749 c 1,26,-1
 926 744 l 1,27,28
 990 726 990 726 1041.5 694.5 c 128,-1,29
 1093 663 1093 663 1129.5 620 c 128,-1,30
 1166 577 1166 577 1185.5 523 c 128,-1,31
 1205 469 1205 469 1205 406 c 0,32,33
 1205 338 1205 338 1183 280 c 128,-1,34
 1161 222 1161 222 1122.5 174.5 c 128,-1,35
 1084 127 1084 127 1031.5 91 c 128,-1,36
 979 55 979 55 918 30 c 128,-1,37
 857 5 857 5 789.5 -7.5 c 128,-1,38
 722 -20 722 -20 654 -20 c 0,39,40
 548 -20 548 -20 452.5 5.5 c 128,-1,41
 357 31 357 31 284.5 82.5 c 128,-1,42
 212 134 212 134 169.5 212.5 c 128,-1,43
 127 291 127 291 127 397 c 0,0,1
672 808 m 0,44,45
 723 808 723 808 775 825.5 c 128,-1,46
 827 843 827 843 869 875 c 128,-1,47
 911 907 911 907 937 951.5 c 128,-1,48
 963 996 963 996 963 1050 c 0,49,50
 963 1106 963 1106 938.5 1147 c 128,-1,51
 914 1188 914 1188 872 1215 c 128,-1,52
 830 1242 830 1242 774 1255 c 128,-1,53
 718 1268 718 1268 654 1268 c 0,54,55
 601 1268 601 1268 549 1255.5 c 128,-1,56
 497 1243 497 1243 456 1217.5 c 128,-1,57
 415 1192 415 1192 389 1153 c 128,-1,58
 363 1114 363 1114 363 1062 c 0,59,60
 363 994 363 994 385.5 945.5 c 128,-1,61
 408 897 408 897 449 866.5 c 128,-1,62
 490 836 490 836 547 822 c 128,-1,63
 604 808 604 808 672 808 c 0,44,45
320 406 m 0,64,65
 320 341 320 341 349 293 c 128,-1,66
 378 245 378 245 426.5 212.5 c 128,-1,67
 475 180 475 180 539 164 c 128,-1,68
 603 148 603 148 672 148 c 0,69,70
 737 148 737 148 797.5 162.5 c 128,-1,71
 858 177 858 177 904 207.5 c 128,-1,72
 950 238 950 238 977.5 285 c 128,-1,73
 1005 332 1005 332 1005 397 c 0,74,75
 1005 461 1005 461 974 507.5 c 128,-1,76
 943 554 943 554 893 584 c 128,-1,77
 843 614 843 614 780.5 628.5 c 128,-1,78
 718 643 718 643 654 643 c 0,79,80
 597 643 597 643 537.5 630 c 128,-1,81
 478 617 478 617 430 588.5 c 128,-1,82
 382 560 382 560 351 515 c 128,-1,83
 320 470 320 470 320 406 c 0,64,65
EndSplineSet
EndChar

StartChar: nine
Encoding: 57 57 67
Width: 1418
Flags: W
LayerCount: 2
Fore
SplineSet
268 217 m 1,0,1
 363 179 363 179 455.5 160 c 128,-1,2
 548 141 548 141 633.5 145 c 128,-1,3
 719 149 719 149 794 178.5 c 128,-1,4
 869 208 869 208 929 267.5 c 128,-1,5
 989 327 989 327 1030.5 418 c 128,-1,6
 1072 509 1072 509 1091 637 c 1,7,8
 1049 613 1049 613 998.5 592 c 128,-1,9
 948 571 948 571 891 556 c 128,-1,10
 834 541 834 541 773 532.5 c 128,-1,11
 712 524 712 524 649 524 c 0,12,13
 545 524 545 524 453 549.5 c 128,-1,14
 361 575 361 575 293 627 c 128,-1,15
 225 679 225 679 185.5 757 c 128,-1,16
 146 835 146 835 146 939 c 0,17,18
 146 1052 146 1052 191 1143.5 c 128,-1,19
 236 1235 236 1235 312.5 1300 c 128,-1,20
 389 1365 389 1365 490.5 1400.5 c 128,-1,21
 592 1436 592 1436 705 1436 c 0,22,23
 845 1436 845 1436 955.5 1391.5 c 128,-1,24
 1066 1347 1066 1347 1142.5 1265.5 c 128,-1,25
 1219 1184 1219 1184 1259.5 1069.5 c 128,-1,26
 1300 955 1300 955 1300 815 c 0,27,28
 1300 652 1300 652 1270 526 c 128,-1,29
 1240 400 1240 400 1188 306 c 128,-1,30
 1136 212 1136 212 1064.5 148 c 128,-1,31
 993 84 993 84 911 45.5 c 128,-1,32
 829 7 829 7 739 -8 c 128,-1,33
 649 -23 649 -23 559 -19.5 c 128,-1,34
 469 -16 469 -16 382.5 4.5 c 128,-1,35
 296 25 296 25 220 58 c 1,36,-1
 268 217 l 1,0,1
667 692 m 0,37,38
 732 692 732 692 795 703 c 128,-1,39
 858 714 858 714 915 732 c 128,-1,40
 972 750 972 750 1020.5 773.5 c 128,-1,41
 1069 797 1069 797 1104 823 c 1,42,-1
 1104 840 l 2,43,44
 1104 936 1104 936 1075 1015 c 128,-1,45
 1046 1094 1046 1094 991.5 1151 c 128,-1,46
 937 1208 937 1208 860 1239 c 128,-1,47
 783 1270 783 1270 687 1270 c 0,48,49
 616 1270 616 1270 553.5 1249.5 c 128,-1,50
 491 1229 491 1229 444 1190 c 128,-1,51
 397 1151 397 1151 369.5 1095 c 128,-1,52
 342 1039 342 1039 342 969 c 0,53,54
 342 902 342 902 367.5 850.5 c 128,-1,55
 393 799 393 799 437.5 763.5 c 128,-1,56
 482 728 482 728 541 710 c 128,-1,57
 600 692 600 692 667 692 c 0,37,38
EndSplineSet
EndChar

StartChar: period
Encoding: 46 46 68
Width: 527
Flags: W
LayerCount: 2
Fore
SplineSet
158 110 m 0,0,1
 158 167 158 167 192 200.5 c 128,-1,2
 226 234 226 234 283 234 c 0,3,4
 338 234 338 234 372 200.5 c 128,-1,5
 406 167 406 167 406 110 c 0,6,7
 406 55 406 55 372 21 c 128,-1,8
 338 -13 338 -13 283 -13 c 0,9,10
 226 -13 226 -13 192 21 c 128,-1,11
 158 55 158 55 158 110 c 0,0,1
EndSplineSet
EndChar

StartChar: periodcentered
Encoding: 183 183 69
Width: 562
Flags: W
LayerCount: 2
Fore
SplineSet
282 396 m 0,0,1
 211 396 211 396 168.5 438.5 c 128,-1,2
 126 481 126 481 126 550 c 0,3,4
 126 621 126 621 168.5 663 c 128,-1,5
 211 705 211 705 282 705 c 0,6,7
 351 705 351 705 393.5 663 c 128,-1,8
 436 621 436 621 436 550 c 0,9,10
 436 481 436 481 393.5 438.5 c 128,-1,11
 351 396 351 396 282 396 c 0,0,1
EndSplineSet
EndChar

StartChar: bullet
Encoding: 8226 8226 70
Width: 622
Flags: W
LayerCount: 2
Fore
SplineSet
312 367 m 0,0,1
 266 367 266 367 228 382 c 128,-1,2
 190 397 190 397 163 423.5 c 128,-1,3
 136 450 136 450 121.5 487.5 c 128,-1,4
 107 525 107 525 107 570 c 0,5,6
 107 616 107 616 121.5 653.5 c 128,-1,7
 136 691 136 691 163 718 c 128,-1,8
 190 745 190 745 228 759.5 c 128,-1,9
 266 774 266 774 312 774 c 0,10,11
 357 774 357 774 394.5 759.5 c 128,-1,12
 432 745 432 745 458.5 718 c 128,-1,13
 485 691 485 691 500 653.5 c 128,-1,14
 515 616 515 616 515 570 c 0,15,16
 515 525 515 525 500 487.5 c 128,-1,17
 485 450 485 450 458.5 423.5 c 128,-1,18
 432 397 432 397 394.5 382 c 128,-1,19
 357 367 357 367 312 367 c 0,0,1
EndSplineSet
EndChar

StartChar: comma
Encoding: 44 44 71
Width: 527
Flags: W
LayerCount: 2
Fore
SplineSet
159 122 m 0,0,1
 159 148 159 148 169 168.5 c 128,-1,2
 179 189 179 189 196 203.5 c 128,-1,3
 213 218 213 218 235.5 226 c 128,-1,4
 258 234 258 234 283 234 c 0,5,6
 310 234 310 234 333 224 c 128,-1,7
 356 214 356 214 372.5 197 c 128,-1,8
 389 180 389 180 398 157 c 128,-1,9
 407 134 407 134 407 108 c 0,10,11
 407 75 407 75 396.5 37.5 c 128,-1,12
 386 0 386 0 369 -38 c 128,-1,13
 352 -76 352 -76 330.5 -113 c 128,-1,14
 309 -150 309 -150 286 -181.5 c 128,-1,15
 263 -213 263 -213 241.5 -238.5 c 128,-1,16
 220 -264 220 -264 203 -279 c 1,17,-1
 112 -228 l 1,18,19
 125 -210 125 -210 141.5 -178 c 128,-1,20
 158 -146 158 -146 173 -109 c 128,-1,21
 188 -72 188 -72 198.5 -34.5 c 128,-1,22
 209 3 209 3 211 32 c 1,23,24
 194 43 194 43 176.5 66.5 c 128,-1,25
 159 90 159 90 159 122 c 0,0,1
EndSplineSet
EndChar

StartChar: colon
Encoding: 58 58 72
Width: 527
Flags: W
LayerCount: 2
Fore
SplineSet
283 567 m 0,0,1
 226 567 226 567 192 601 c 128,-1,2
 158 635 158 635 158 690 c 0,3,4
 158 747 158 747 192 780.5 c 128,-1,5
 226 814 226 814 283 814 c 0,6,7
 338 814 338 814 372 780.5 c 128,-1,8
 406 747 406 747 406 690 c 0,9,10
 406 635 406 635 372 601 c 128,-1,11
 338 567 338 567 283 567 c 0,0,1
158 110 m 0,12,13
 158 167 158 167 192 200.5 c 128,-1,14
 226 234 226 234 283 234 c 0,15,16
 338 234 338 234 372 200.5 c 128,-1,17
 406 167 406 167 406 110 c 0,18,19
 406 55 406 55 372 21 c 128,-1,20
 338 -13 338 -13 283 -13 c 0,21,22
 226 -13 226 -13 192 21 c 128,-1,23
 158 55 158 55 158 110 c 0,12,13
EndSplineSet
EndChar

StartChar: semicolon
Encoding: 59 59 73
Width: 527
Flags: W
LayerCount: 2
Fore
SplineSet
283 567 m 0,0,1
 226 567 226 567 192 601 c 128,-1,2
 158 635 158 635 158 690 c 0,3,4
 158 747 158 747 192 780.5 c 128,-1,5
 226 814 226 814 283 814 c 0,6,7
 338 814 338 814 372 780.5 c 128,-1,8
 406 747 406 747 406 690 c 0,9,10
 406 635 406 635 372 601 c 128,-1,11
 338 567 338 567 283 567 c 0,0,1
159 122 m 0,12,13
 159 148 159 148 169 168.5 c 128,-1,14
 179 189 179 189 196 203.5 c 128,-1,15
 213 218 213 218 235.5 226 c 128,-1,16
 258 234 258 234 283 234 c 0,17,18
 310 234 310 234 333 224 c 128,-1,19
 356 214 356 214 372.5 197 c 128,-1,20
 389 180 389 180 398 157 c 128,-1,21
 407 134 407 134 407 108 c 0,22,23
 407 75 407 75 396.5 37.5 c 128,-1,24
 386 0 386 0 369 -38 c 128,-1,25
 352 -76 352 -76 330.5 -113 c 128,-1,26
 309 -150 309 -150 286 -181.5 c 128,-1,27
 263 -213 263 -213 241.5 -238.5 c 128,-1,28
 220 -264 220 -264 203 -279 c 1,29,-1
 112 -228 l 1,30,31
 125 -210 125 -210 141.5 -178 c 128,-1,32
 158 -146 158 -146 173 -109 c 128,-1,33
 188 -72 188 -72 198.5 -34.5 c 128,-1,34
 209 3 209 3 211 32 c 1,35,36
 194 43 194 43 176.5 66.5 c 128,-1,37
 159 90 159 90 159 122 c 0,12,13
EndSplineSet
EndChar

StartChar: exclam
Encoding: 33 33 74
Width: 602
Flags: W
LayerCount: 2
Fore
SplineSet
199 1415 m 1,0,-1
 404 1415 l 1,1,-1
 374 410 l 1,2,-1
 229 410 l 1,3,-1
 199 1415 l 1,0,-1
177 110 m 0,4,5
 177 167 177 167 211 200.5 c 128,-1,6
 245 234 245 234 302 234 c 0,7,8
 357 234 357 234 391 200.5 c 128,-1,9
 425 167 425 167 425 110 c 0,10,11
 425 55 425 55 391 21 c 128,-1,12
 357 -13 357 -13 302 -13 c 0,13,14
 245 -13 245 -13 211 21 c 128,-1,15
 177 55 177 55 177 110 c 0,4,5
EndSplineSet
EndChar

StartChar: exclamdown
Encoding: 161 161 75
Width: 602
Flags: W
LayerCount: 2
Fore
SplineSet
286 772 m 0,0,1
 231 772 231 772 197 805.5 c 128,-1,2
 163 839 163 839 163 896 c 0,3,4
 163 951 163 951 197 985 c 128,-1,5
 231 1019 231 1019 286 1019 c 0,6,7
 343 1019 343 1019 377 985 c 128,-1,8
 411 951 411 951 411 896 c 0,9,10
 411 839 411 839 377 805.5 c 128,-1,11
 343 772 343 772 286 772 c 0,0,1
214 596 m 1,12,-1
 359 596 l 1,13,-1
 389 -409 l 1,14,-1
 184 -409 l 1,15,-1
 214 596 l 1,12,-1
EndSplineSet
EndChar

StartChar: question
Encoding: 63 63 76
Width: 1035
Flags: W
LayerCount: 2
Fore
SplineSet
326 378 m 1,0,1
 311 462 311 462 322 530 c 128,-1,2
 333 598 333 598 360.5 654 c 128,-1,3
 388 710 388 710 429 756 c 128,-1,4
 470 802 470 802 514.5 841.5 c 128,-1,5
 559 881 559 881 603.5 916 c 128,-1,6
 648 951 648 951 683.5 985.5 c 128,-1,7
 719 1020 719 1020 741 1055 c 128,-1,8
 763 1090 763 1090 763 1131 c 0,9,10
 763 1175 763 1175 739.5 1202.5 c 128,-1,11
 716 1230 716 1230 679 1245 c 128,-1,12
 642 1260 642 1260 596.5 1265 c 128,-1,13
 551 1270 551 1270 507 1270 c 0,14,15
 466 1270 466 1270 414 1262.5 c 128,-1,16
 362 1255 362 1255 309 1243.5 c 128,-1,17
 256 1232 256 1232 207.5 1218 c 128,-1,18
 159 1204 159 1204 126 1190 c 1,19,-1
 82 1342 l 1,20,21
 129 1363 129 1363 183.5 1380.5 c 128,-1,22
 238 1398 238 1398 295.5 1410.5 c 128,-1,23
 353 1423 353 1423 411.5 1429.5 c 128,-1,24
 470 1436 470 1436 525 1436 c 0,25,26
 602 1436 602 1436 679.5 1422 c 128,-1,27
 757 1408 757 1408 819 1376 c 128,-1,28
 881 1344 881 1344 920 1291.5 c 128,-1,29
 959 1239 959 1239 959 1162 c 0,30,31
 959 1097 959 1097 935.5 1045.5 c 128,-1,32
 912 994 912 994 874 951 c 128,-1,33
 836 908 836 908 788.5 870.5 c 128,-1,34
 741 833 741 833 693.5 796 c 128,-1,35
 646 759 646 759 602 720 c 128,-1,36
 558 681 558 681 528 635.5 c 128,-1,37
 498 590 498 590 485.5 535 c 128,-1,38
 473 480 473 480 488 410 c 1,39,-1
 326 378 l 1,0,1
317 110 m 0,40,41
 317 167 317 167 351 200.5 c 128,-1,42
 385 234 385 234 442 234 c 0,43,44
 497 234 497 234 531 200.5 c 128,-1,45
 565 167 565 167 565 110 c 0,46,47
 565 55 565 55 531 21 c 128,-1,48
 497 -13 497 -13 442 -13 c 0,49,50
 385 -13 385 -13 351 21 c 128,-1,51
 317 55 317 55 317 110 c 0,40,41
EndSplineSet
EndChar

StartChar: questiondown
Encoding: 191 191 77
Width: 1035
Flags: W
LayerCount: 2
Fore
SplineSet
585 773 m 0,0,1
 530 773 530 773 496 806.5 c 128,-1,2
 462 840 462 840 462 897 c 0,3,4
 462 952 462 952 496 986 c 128,-1,5
 530 1020 530 1020 585 1020 c 0,6,7
 642 1020 642 1020 676 986 c 128,-1,8
 710 952 710 952 710 897 c 0,9,10
 710 840 710 840 676 806.5 c 128,-1,11
 642 773 642 773 585 773 c 0,0,1
68 -155 m 0,12,13
 68 -90 68 -90 91.5 -38.5 c 128,-1,14
 115 13 115 13 153 56 c 128,-1,15
 191 99 191 99 238.5 136.5 c 128,-1,16
 286 174 286 174 333.5 211 c 128,-1,17
 381 248 381 248 425 287 c 128,-1,18
 469 326 469 326 499 371.5 c 128,-1,19
 529 417 529 417 541.5 472 c 128,-1,20
 554 527 554 527 539 597 c 1,21,-1
 701 629 l 1,22,23
 716 545 716 545 705 477 c 128,-1,24
 694 409 694 409 666.5 353 c 128,-1,25
 639 297 639 297 598 251 c 128,-1,26
 557 205 557 205 512.5 165.5 c 128,-1,27
 468 126 468 126 423.5 91 c 128,-1,28
 379 56 379 56 343.5 21.5 c 128,-1,29
 308 -13 308 -13 286 -48.5 c 128,-1,30
 264 -84 264 -84 264 -124 c 0,31,32
 264 -168 264 -168 287.5 -195.5 c 128,-1,33
 311 -223 311 -223 348 -238 c 128,-1,34
 385 -253 385 -253 430.5 -258 c 128,-1,35
 476 -263 476 -263 520 -263 c 0,36,37
 560 -263 560 -263 612.5 -255.5 c 128,-1,38
 665 -248 665 -248 718 -236.5 c 128,-1,39
 771 -225 771 -225 819.5 -211 c 128,-1,40
 868 -197 868 -197 901 -183 c 1,41,-1
 945 -335 l 1,42,43
 898 -356 898 -356 843.5 -373.5 c 128,-1,44
 789 -391 789 -391 731.5 -403.5 c 128,-1,45
 674 -416 674 -416 615.5 -422.5 c 128,-1,46
 557 -429 557 -429 502 -429 c 0,47,48
 425 -429 425 -429 347.5 -415 c 128,-1,49
 270 -401 270 -401 208 -369 c 128,-1,50
 146 -337 146 -337 107 -284.5 c 128,-1,51
 68 -232 68 -232 68 -155 c 0,12,13
EndSplineSet
EndChar

StartChar: quoteleft
Encoding: 8216 8216 78
Width: 527
Flags: W
LayerCount: 2
Fore
SplineSet
244 1048 m 0,0,1
 217 1048 217 1048 194 1058 c 128,-1,2
 171 1068 171 1068 154.5 1085 c 128,-1,3
 138 1102 138 1102 129 1125 c 128,-1,4
 120 1148 120 1148 120 1174 c 0,5,6
 120 1207 120 1207 130.5 1244.5 c 128,-1,7
 141 1282 141 1282 158 1320 c 128,-1,8
 175 1358 175 1358 196.5 1395 c 128,-1,9
 218 1432 218 1432 241 1463.5 c 128,-1,10
 264 1495 264 1495 285.5 1520.5 c 128,-1,11
 307 1546 307 1546 324 1561 c 1,12,-1
 415 1510 l 1,13,14
 401 1492 401 1492 385 1460 c 128,-1,15
 369 1428 369 1428 354 1391 c 128,-1,16
 339 1354 339 1354 328.5 1316.5 c 128,-1,17
 318 1279 318 1279 316 1250 c 1,18,19
 333 1239 333 1239 350.5 1215.5 c 128,-1,20
 368 1192 368 1192 368 1160 c 0,21,22
 368 1134 368 1134 358 1113.5 c 128,-1,23
 348 1093 348 1093 331 1078.5 c 128,-1,24
 314 1064 314 1064 291.5 1056 c 128,-1,25
 269 1048 269 1048 244 1048 c 0,0,1
EndSplineSet
EndChar

StartChar: quoteright
Encoding: 8217 8217 79
Width: 527
Flags: W
LayerCount: 2
Fore
SplineSet
112 1099 m 1,0,1
 125 1117 125 1117 141.5 1149 c 128,-1,2
 158 1181 158 1181 173 1218 c 128,-1,3
 188 1255 188 1255 198.5 1292.5 c 128,-1,4
 209 1330 209 1330 211 1359 c 1,5,6
 194 1370 194 1370 176.5 1393.5 c 128,-1,7
 159 1417 159 1417 159 1449 c 0,8,9
 159 1475 159 1475 169 1495.5 c 128,-1,10
 179 1516 179 1516 196 1530.5 c 128,-1,11
 213 1545 213 1545 235.5 1553 c 128,-1,12
 258 1561 258 1561 283 1561 c 0,13,14
 310 1561 310 1561 333 1551 c 128,-1,15
 356 1541 356 1541 372.5 1524 c 128,-1,16
 389 1507 389 1507 398 1484 c 128,-1,17
 407 1461 407 1461 407 1435 c 0,18,19
 407 1401 407 1401 396.5 1364 c 128,-1,20
 386 1327 386 1327 369 1289 c 128,-1,21
 352 1251 352 1251 330.5 1214 c 128,-1,22
 309 1177 309 1177 286 1145.5 c 128,-1,23
 263 1114 263 1114 241.5 1088.5 c 128,-1,24
 220 1063 220 1063 203 1048 c 1,25,-1
 112 1099 l 1,0,1
EndSplineSet
EndChar

StartChar: quotedblleft
Encoding: 8220 8220 80
Width: 881
Flags: W
LayerCount: 2
Fore
SplineSet
598 923 m 0,0,1
 571 923 571 923 548 933 c 128,-1,2
 525 943 525 943 508.5 960 c 128,-1,3
 492 977 492 977 483 1000 c 128,-1,4
 474 1023 474 1023 474 1049 c 0,5,6
 474 1083 474 1083 484.5 1120 c 128,-1,7
 495 1157 495 1157 512 1195 c 128,-1,8
 529 1233 529 1233 550.5 1269.5 c 128,-1,9
 572 1306 572 1306 595 1338 c 128,-1,10
 618 1370 618 1370 639.5 1395.5 c 128,-1,11
 661 1421 661 1421 678 1436 c 1,12,-1
 769 1385 l 1,13,14
 755 1367 755 1367 739 1335 c 128,-1,15
 723 1303 723 1303 708 1266 c 128,-1,16
 693 1229 693 1229 682.5 1191.5 c 128,-1,17
 672 1154 672 1154 670 1125 c 1,18,19
 687 1114 687 1114 704.5 1090.5 c 128,-1,20
 722 1067 722 1067 722 1035 c 0,21,22
 722 1009 722 1009 712 988.5 c 128,-1,23
 702 968 702 968 685 953.5 c 128,-1,24
 668 939 668 939 645.5 931 c 128,-1,25
 623 923 623 923 598 923 c 0,0,1
244 923 m 0,26,27
 217 923 217 923 194 933 c 128,-1,28
 171 943 171 943 154.5 960 c 128,-1,29
 138 977 138 977 129 1000 c 128,-1,30
 120 1023 120 1023 120 1049 c 0,31,32
 120 1083 120 1083 130.5 1120 c 128,-1,33
 141 1157 141 1157 158 1195 c 128,-1,34
 175 1233 175 1233 196.5 1269.5 c 128,-1,35
 218 1306 218 1306 241 1338 c 128,-1,36
 264 1370 264 1370 285.5 1395.5 c 128,-1,37
 307 1421 307 1421 324 1436 c 1,38,-1
 415 1385 l 1,39,40
 401 1367 401 1367 385 1335 c 128,-1,41
 369 1303 369 1303 354 1266 c 128,-1,42
 339 1229 339 1229 328.5 1191.5 c 128,-1,43
 318 1154 318 1154 316 1125 c 1,44,45
 333 1114 333 1114 350.5 1090.5 c 128,-1,46
 368 1067 368 1067 368 1035 c 0,47,48
 368 1009 368 1009 358 988.5 c 128,-1,49
 348 968 348 968 331 953.5 c 128,-1,50
 314 939 314 939 291.5 931 c 128,-1,51
 269 923 269 923 244 923 c 0,26,27
EndSplineSet
EndChar

StartChar: quotedblright
Encoding: 8221 8221 81
Width: 881
Flags: W
LayerCount: 2
Fore
SplineSet
466 974 m 1,0,1
 479 992 479 992 495.5 1024 c 128,-1,2
 512 1056 512 1056 527 1093 c 128,-1,3
 542 1130 542 1130 552.5 1167.5 c 128,-1,4
 563 1205 563 1205 565 1234 c 1,5,6
 548 1245 548 1245 530.5 1268.5 c 128,-1,7
 513 1292 513 1292 513 1324 c 0,8,9
 513 1350 513 1350 523 1370.5 c 128,-1,10
 533 1391 533 1391 550 1405.5 c 128,-1,11
 567 1420 567 1420 589.5 1428 c 128,-1,12
 612 1436 612 1436 637 1436 c 0,13,14
 664 1436 664 1436 687 1426 c 128,-1,15
 710 1416 710 1416 726.5 1399 c 128,-1,16
 743 1382 743 1382 752 1359 c 128,-1,17
 761 1336 761 1336 761 1310 c 0,18,19
 761 1276 761 1276 750.5 1239 c 128,-1,20
 740 1202 740 1202 723 1164 c 128,-1,21
 706 1126 706 1126 684.5 1089.5 c 128,-1,22
 663 1053 663 1053 640 1021 c 128,-1,23
 617 989 617 989 595.5 963.5 c 128,-1,24
 574 938 574 938 557 923 c 1,25,-1
 466 974 l 1,0,1
112 974 m 1,26,27
 125 992 125 992 141.5 1024 c 128,-1,28
 158 1056 158 1056 173 1093 c 128,-1,29
 188 1130 188 1130 198.5 1167.5 c 128,-1,30
 209 1205 209 1205 211 1234 c 1,31,32
 194 1245 194 1245 176.5 1268.5 c 128,-1,33
 159 1292 159 1292 159 1324 c 0,34,35
 159 1350 159 1350 169 1370.5 c 128,-1,36
 179 1391 179 1391 196 1405.5 c 128,-1,37
 213 1420 213 1420 235.5 1428 c 128,-1,38
 258 1436 258 1436 283 1436 c 0,39,40
 310 1436 310 1436 333 1426 c 128,-1,41
 356 1416 356 1416 372.5 1399 c 128,-1,42
 389 1382 389 1382 398 1359 c 128,-1,43
 407 1336 407 1336 407 1310 c 0,44,45
 407 1276 407 1276 396.5 1239 c 128,-1,46
 386 1202 386 1202 369 1164 c 128,-1,47
 352 1126 352 1126 330.5 1089.5 c 128,-1,48
 309 1053 309 1053 286 1021 c 128,-1,49
 263 989 263 989 241.5 963.5 c 128,-1,50
 220 938 220 938 203 923 c 1,51,-1
 112 974 l 1,26,27
EndSplineSet
EndChar

StartChar: quotesingle
Encoding: 39 39 82
Width: 524
Flags: W
LayerCount: 2
Fore
SplineSet
165 1416 m 1,0,-1
 359 1416 l 1,1,-1
 329 939 l 1,2,-1
 195 939 l 1,3,-1
 165 1416 l 1,0,-1
EndSplineSet
EndChar

StartChar: quotesinglbase
Encoding: 8218 8218 83
Width: 527
Flags: W
LayerCount: 2
Fore
SplineSet
159 122 m 0,0,1
 159 148 159 148 169 168.5 c 128,-1,2
 179 189 179 189 196 203.5 c 128,-1,3
 213 218 213 218 235.5 226 c 128,-1,4
 258 234 258 234 283 234 c 0,5,6
 310 234 310 234 333 224 c 128,-1,7
 356 214 356 214 372.5 197 c 128,-1,8
 389 180 389 180 398 157 c 128,-1,9
 407 134 407 134 407 108 c 0,10,11
 407 75 407 75 396.5 37.5 c 128,-1,12
 386 0 386 0 369 -38 c 128,-1,13
 352 -76 352 -76 330.5 -113 c 128,-1,14
 309 -150 309 -150 286 -181.5 c 128,-1,15
 263 -213 263 -213 241.5 -238.5 c 128,-1,16
 220 -264 220 -264 203 -279 c 1,17,-1
 112 -228 l 1,18,19
 125 -210 125 -210 141.5 -178 c 128,-1,20
 158 -146 158 -146 173 -109 c 128,-1,21
 188 -72 188 -72 198.5 -34.5 c 128,-1,22
 209 3 209 3 211 32 c 1,23,24
 194 43 194 43 176.5 66.5 c 128,-1,25
 159 90 159 90 159 122 c 0,0,1
EndSplineSet
EndChar

StartChar: quotedbl
Encoding: 34 34 84
Width: 881
Flags: W
LayerCount: 2
Fore
SplineSet
522 1417 m 1,0,-1
 716 1417 l 1,1,-1
 686 940 l 1,2,-1
 552 940 l 1,3,-1
 522 1417 l 1,0,-1
165 1417 m 1,4,-1
 359 1417 l 1,5,-1
 329 940 l 1,6,-1
 195 940 l 1,7,-1
 165 1417 l 1,4,-1
EndSplineSet
EndChar

StartChar: quotedblbase
Encoding: 8222 8222 85
Width: 881
Flags: W
LayerCount: 2
Fore
SplineSet
466 -228 m 1,0,1
 479 -210 479 -210 495.5 -178 c 128,-1,2
 512 -146 512 -146 527 -109 c 128,-1,3
 542 -72 542 -72 552.5 -34.5 c 128,-1,4
 563 3 563 3 565 32 c 1,5,6
 548 43 548 43 530.5 66.5 c 128,-1,7
 513 90 513 90 513 122 c 0,8,9
 513 148 513 148 523 168.5 c 128,-1,10
 533 189 533 189 550 203.5 c 128,-1,11
 567 218 567 218 589.5 226 c 128,-1,12
 612 234 612 234 637 234 c 0,13,14
 664 234 664 234 687 224 c 128,-1,15
 710 214 710 214 726.5 197 c 128,-1,16
 743 180 743 180 752 157 c 128,-1,17
 761 134 761 134 761 108 c 0,18,19
 761 75 761 75 750.5 37.5 c 128,-1,20
 740 0 740 0 723 -38 c 128,-1,21
 706 -76 706 -76 684.5 -113 c 128,-1,22
 663 -150 663 -150 640 -181.5 c 128,-1,23
 617 -213 617 -213 595.5 -238.5 c 128,-1,24
 574 -264 574 -264 557 -279 c 1,25,-1
 466 -228 l 1,0,1
159 122 m 0,26,27
 159 148 159 148 169 168.5 c 128,-1,28
 179 189 179 189 196 203.5 c 128,-1,29
 213 218 213 218 235.5 226 c 128,-1,30
 258 234 258 234 283 234 c 0,31,32
 310 234 310 234 333 224 c 128,-1,33
 356 214 356 214 372.5 197 c 128,-1,34
 389 180 389 180 398 157 c 128,-1,35
 407 134 407 134 407 108 c 0,36,37
 407 75 407 75 396.5 37.5 c 128,-1,38
 386 0 386 0 369 -38 c 128,-1,39
 352 -76 352 -76 330.5 -113 c 128,-1,40
 309 -150 309 -150 286 -181.5 c 128,-1,41
 263 -213 263 -213 241.5 -238.5 c 128,-1,42
 220 -264 220 -264 203 -279 c 1,43,-1
 112 -228 l 1,44,45
 125 -210 125 -210 141.5 -178 c 128,-1,46
 158 -146 158 -146 173 -109 c 128,-1,47
 188 -72 188 -72 198.5 -34.5 c 128,-1,48
 209 3 209 3 211 32 c 1,49,50
 194 43 194 43 176.5 66.5 c 128,-1,51
 159 90 159 90 159 122 c 0,26,27
EndSplineSet
EndChar

StartChar: guilsinglleft
Encoding: 8249 8249 86
Width: 702
Flags: W
LayerCount: 2
Fore
SplineSet
107 531 m 1,0,-1
 532 944 l 1,1,-1
 635 846 l 1,2,-1
 337 518 l 1,3,-1
 629 204 l 1,4,-1
 530 98 l 1,5,-1
 107 471 l 1,6,-1
 107 531 l 1,0,-1
EndSplineSet
EndChar

StartChar: guilsinglright
Encoding: 8250 8250 87
Width: 702
Flags: W
LayerCount: 2
Fore
SplineSet
387 524 m 1,0,-1
 95 838 l 1,1,-1
 194 944 l 1,2,-1
 617 571 l 1,3,-1
 617 511 l 1,4,-1
 192 98 l 1,5,-1
 89 196 l 1,6,-1
 387 524 l 1,0,-1
EndSplineSet
EndChar

StartChar: guillemotleft
Encoding: 171 171 88
Width: 1204
Flags: W
LayerCount: 2
Fore
SplineSet
609 531 m 1,0,-1
 1034 944 l 1,1,-1
 1130 853 l 1,2,-1
 829 516 l 1,3,-1
 1125 198 l 1,4,-1
 1032 98 l 1,5,-1
 609 471 l 1,6,-1
 609 531 l 1,0,-1
113 531 m 1,7,-1
 538 944 l 1,8,-1
 634 853 l 1,9,-1
 333 516 l 1,10,-1
 629 198 l 1,11,-1
 536 98 l 1,12,-1
 113 471 l 1,13,-1
 113 531 l 1,7,-1
EndSplineSet
EndChar

StartChar: guillemotright
Encoding: 187 187 89
Width: 1204
Flags: W
LayerCount: 2
Fore
SplineSet
893 526 m 1,0,-1
 597 844 l 1,1,-1
 690 944 l 1,2,-1
 1113 571 l 1,3,-1
 1113 511 l 1,4,-1
 688 98 l 1,5,-1
 592 189 l 1,6,-1
 893 526 l 1,0,-1
397 526 m 1,7,-1
 101 844 l 1,8,-1
 194 944 l 1,9,-1
 617 571 l 1,10,-1
 617 511 l 1,11,-1
 192 98 l 1,12,-1
 96 189 l 1,13,-1
 397 526 l 1,7,-1
EndSplineSet
EndChar

StartChar: onesuperior
Encoding: 185 185 90
Width: 710
Flags: W
LayerCount: 2
Fore
SplineSet
326 1593 m 1,0,-1
 113 1472 l 1,1,-1
 61 1613 l 1,2,-1
 338 1762 l 1,3,-1
 503 1762 l 1,4,-1
 503 866 l 1,5,-1
 326 866 l 1,6,-1
 326 1593 l 1,0,-1
EndSplineSet
EndChar

StartChar: twosuperior
Encoding: 178 178 91
Width: 962
Flags: W
LayerCount: 2
Fore
SplineSet
190 1013 m 1,0,-1
 406 1196 l 2,1,2
 456 1239 456 1239 497.5 1279 c 128,-1,3
 539 1319 539 1319 568.5 1357 c 128,-1,4
 598 1395 598 1395 614.5 1431.5 c 128,-1,5
 631 1468 631 1468 631 1504 c 0,6,7
 631 1538 631 1538 615.5 1563 c 128,-1,8
 600 1588 600 1588 574 1604 c 128,-1,9
 548 1620 548 1620 515 1627.5 c 128,-1,10
 482 1635 482 1635 448 1635 c 0,11,12
 419 1635 419 1635 387.5 1630 c 128,-1,13
 356 1625 356 1625 325 1617 c 128,-1,14
 294 1609 294 1609 264.5 1598 c 128,-1,15
 235 1587 235 1587 210 1574 c 1,16,-1
 167 1706 l 1,17,18
 198 1721 198 1721 235 1734.5 c 128,-1,19
 272 1748 272 1748 311 1758 c 128,-1,20
 350 1768 350 1768 390 1773.5 c 128,-1,21
 430 1779 430 1779 466 1779 c 0,22,23
 536 1779 536 1779 597.5 1763.5 c 128,-1,24
 659 1748 659 1748 705.5 1715 c 128,-1,25
 752 1682 752 1682 779 1631.5 c 128,-1,26
 806 1581 806 1581 806 1511 c 0,27,28
 806 1460 806 1460 790 1414.5 c 128,-1,29
 774 1369 774 1369 745.5 1326.5 c 128,-1,30
 717 1284 717 1284 676.5 1243.5 c 128,-1,31
 636 1203 636 1203 588 1163 c 2,32,-1
 415 1018 l 1,33,-1
 819 1018 l 1,34,-1
 819 866 l 1,35,-1
 190 866 l 1,36,-1
 190 1013 l 1,0,-1
EndSplineSet
EndChar

StartChar: threesuperior
Encoding: 179 179 92
Width: 939
Flags: W
LayerCount: 2
Fore
SplineSet
169 1062 m 1,0,1
 221 1033 221 1033 292 1014.5 c 128,-1,2
 363 996 363 996 438 996 c 0,3,4
 473 996 473 996 504 1003 c 128,-1,5
 535 1010 535 1010 558.5 1024 c 128,-1,6
 582 1038 582 1038 595.5 1060.5 c 128,-1,7
 609 1083 609 1083 609 1115 c 0,8,9
 609 1164 609 1164 584.5 1193 c 128,-1,10
 560 1222 560 1222 515.5 1236 c 128,-1,11
 471 1250 471 1250 408 1250.5 c 128,-1,12
 345 1251 345 1251 268 1242 c 1,13,-1
 268 1398 l 1,14,15
 294 1397 294 1397 318 1396 c 0,16,17
 338 1395 338 1395 359 1395 c 128,-1,18
 380 1395 380 1395 392 1395 c 0,19,20
 429 1395 429 1395 463 1403.5 c 128,-1,21
 497 1412 497 1412 523 1429.5 c 128,-1,22
 549 1447 549 1447 565 1473.5 c 128,-1,23
 581 1500 581 1500 581 1537 c 0,24,25
 581 1565 581 1565 568.5 1584 c 128,-1,26
 556 1603 556 1603 535.5 1613.5 c 128,-1,27
 515 1624 515 1624 488 1628.5 c 128,-1,28
 461 1633 461 1633 433 1633 c 0,29,30
 404 1633 404 1633 373 1630 c 128,-1,31
 342 1627 342 1627 312.5 1621 c 128,-1,32
 283 1615 283 1615 256 1606.5 c 128,-1,33
 229 1598 229 1598 208 1587 c 1,34,-1
 164 1716 l 1,35,36
 192 1730 192 1730 228 1741.5 c 128,-1,37
 264 1753 264 1753 302.5 1761.5 c 128,-1,38
 341 1770 341 1770 379.5 1774.5 c 128,-1,39
 418 1779 418 1779 451 1779 c 0,40,41
 509 1779 509 1779 564 1764.5 c 128,-1,42
 619 1750 619 1750 662 1720.5 c 128,-1,43
 705 1691 705 1691 730.5 1647 c 128,-1,44
 756 1603 756 1603 756 1545 c 0,45,46
 756 1481 756 1481 718.5 1427 c 128,-1,47
 681 1373 681 1373 607 1347 c 1,48,-1
 607 1341 l 1,49,50
 694 1319 694 1319 740 1261 c 128,-1,51
 786 1203 786 1203 786 1120 c 0,52,53
 786 1051 786 1051 754.5 1000 c 128,-1,54
 723 949 723 949 672 915 c 128,-1,55
 621 881 621 881 555 864.5 c 128,-1,56
 489 848 489 848 420 848 c 0,57,58
 334 848 334 848 256.5 866 c 128,-1,59
 179 884 179 884 125 917 c 1,60,-1
 169 1062 l 1,0,1
EndSplineSet
EndChar

StartChar: onequarter
Encoding: 188 188 93
Width: 1871
Flags: W
LayerCount: 2
Fore
SplineSet
326 1593 m 1,0,-1
 113 1472 l 1,1,-1
 61 1613 l 1,2,-1
 338 1762 l 1,3,-1
 503 1762 l 1,4,-1
 503 866 l 1,5,-1
 326 866 l 1,6,-1
 326 1593 l 1,0,-1
1645 1761 m 1,7,-1
 1766 1661 l 1,8,-1
 149 -267 l 1,9,-1
 28 -167 l 1,10,-1
 1645 1761 l 1,7,-1
1418 629 m 1,11,-1
 1595 629 l 1,12,-1
 1595 88 l 1,13,-1
 1772 88 l 1,14,-1
 1772 -63 l 1,15,-1
 1595 -63 l 1,16,-1
 1595 -266 l 1,17,-1
 1418 -266 l 1,18,-1
 1418 -63 l 1,19,-1
 979 -63 l 1,20,-1
 946 41 l 1,21,-1
 1418 629 l 1,11,-1
1418 88 m 1,22,-1
 1418 424 l 1,23,-1
 1156 88 l 1,24,-1
 1418 88 l 1,22,-1
EndSplineSet
EndChar

StartChar: onehalf
Encoding: 189 189 94
Width: 1931
Flags: W
LayerCount: 2
Fore
SplineSet
326 1593 m 1,0,-1
 113 1472 l 1,1,-1
 61 1613 l 1,2,-1
 338 1762 l 1,3,-1
 503 1762 l 1,4,-1
 503 866 l 1,5,-1
 326 866 l 1,6,-1
 326 1593 l 1,0,-1
1645 1761 m 1,7,-1
 1766 1661 l 1,8,-1
 149 -267 l 1,9,-1
 28 -167 l 1,10,-1
 1645 1761 l 1,7,-1
1375 64 m 2,11,12
 1425 107 1425 107 1466.5 147 c 128,-1,13
 1508 187 1508 187 1537.5 225 c 128,-1,14
 1567 263 1567 263 1583.5 299.5 c 128,-1,15
 1600 336 1600 336 1600 372 c 0,16,17
 1600 406 1600 406 1584.5 431 c 128,-1,18
 1569 456 1569 456 1543 472 c 128,-1,19
 1517 488 1517 488 1484 495.5 c 128,-1,20
 1451 503 1451 503 1417 503 c 0,21,22
 1388 503 1388 503 1356.5 498 c 128,-1,23
 1325 493 1325 493 1294 485 c 128,-1,24
 1263 477 1263 477 1233.5 466 c 128,-1,25
 1204 455 1204 455 1179 442 c 1,26,-1
 1136 574 l 1,27,28
 1167 589 1167 589 1204 602.5 c 128,-1,29
 1241 616 1241 616 1280 626 c 128,-1,30
 1319 636 1319 636 1359 641.5 c 128,-1,31
 1399 647 1399 647 1435 647 c 0,32,33
 1505 647 1505 647 1566.5 631.5 c 128,-1,34
 1628 616 1628 616 1674.5 583 c 128,-1,35
 1721 550 1721 550 1748 499.5 c 128,-1,36
 1775 449 1775 449 1775 379 c 0,37,38
 1775 328 1775 328 1759 282.5 c 128,-1,39
 1743 237 1743 237 1714.5 194.5 c 128,-1,40
 1686 152 1686 152 1645.5 111.5 c 128,-1,41
 1605 71 1605 71 1557 31 c 2,42,-1
 1384 -114 l 1,43,-1
 1788 -114 l 1,44,-1
 1788 -266 l 1,45,-1
 1159 -266 l 1,46,-1
 1159 -119 l 1,47,-1
 1375 64 l 2,11,12
EndSplineSet
EndChar

StartChar: threequarters
Encoding: 190 190 95
Width: 1981
Flags: W
LayerCount: 2
Fore
SplineSet
169 1062 m 1,0,1
 221 1033 221 1033 292 1014.5 c 128,-1,2
 363 996 363 996 438 996 c 0,3,4
 473 996 473 996 504 1003 c 128,-1,5
 535 1010 535 1010 558.5 1024 c 128,-1,6
 582 1038 582 1038 595.5 1060.5 c 128,-1,7
 609 1083 609 1083 609 1115 c 0,8,9
 609 1164 609 1164 584.5 1193 c 128,-1,10
 560 1222 560 1222 515.5 1236 c 128,-1,11
 471 1250 471 1250 408 1250.5 c 128,-1,12
 345 1251 345 1251 268 1242 c 1,13,-1
 268 1398 l 1,14,15
 294 1397 294 1397 318 1396 c 0,16,17
 338 1395 338 1395 359 1395 c 128,-1,18
 380 1395 380 1395 392 1395 c 0,19,20
 429 1395 429 1395 463 1403.5 c 128,-1,21
 497 1412 497 1412 523 1429.5 c 128,-1,22
 549 1447 549 1447 565 1473.5 c 128,-1,23
 581 1500 581 1500 581 1537 c 0,24,25
 581 1565 581 1565 568.5 1584 c 128,-1,26
 556 1603 556 1603 535.5 1613.5 c 128,-1,27
 515 1624 515 1624 488 1628.5 c 128,-1,28
 461 1633 461 1633 433 1633 c 0,29,30
 404 1633 404 1633 373 1630 c 128,-1,31
 342 1627 342 1627 312.5 1621 c 128,-1,32
 283 1615 283 1615 256 1606.5 c 128,-1,33
 229 1598 229 1598 208 1587 c 1,34,-1
 164 1716 l 1,35,36
 192 1730 192 1730 228 1741.5 c 128,-1,37
 264 1753 264 1753 302.5 1761.5 c 128,-1,38
 341 1770 341 1770 379.5 1774.5 c 128,-1,39
 418 1779 418 1779 451 1779 c 0,40,41
 509 1779 509 1779 564 1764.5 c 128,-1,42
 619 1750 619 1750 662 1720.5 c 128,-1,43
 705 1691 705 1691 730.5 1647 c 128,-1,44
 756 1603 756 1603 756 1545 c 0,45,46
 756 1481 756 1481 718.5 1427 c 128,-1,47
 681 1373 681 1373 607 1347 c 1,48,-1
 607 1341 l 1,49,50
 694 1319 694 1319 740 1261 c 128,-1,51
 786 1203 786 1203 786 1120 c 0,52,53
 786 1051 786 1051 754.5 1000 c 128,-1,54
 723 949 723 949 672 915 c 128,-1,55
 621 881 621 881 555 864.5 c 128,-1,56
 489 848 489 848 420 848 c 0,57,58
 334 848 334 848 256.5 866 c 128,-1,59
 179 884 179 884 125 917 c 1,60,-1
 169 1062 l 1,0,1
1755 1761 m 1,61,-1
 1876 1661 l 1,62,-1
 259 -267 l 1,63,-1
 138 -167 l 1,64,-1
 1755 1761 l 1,61,-1
1528 629 m 1,65,-1
 1705 629 l 1,66,-1
 1705 88 l 1,67,-1
 1882 88 l 1,68,-1
 1882 -63 l 1,69,-1
 1705 -63 l 1,70,-1
 1705 -266 l 1,71,-1
 1528 -266 l 1,72,-1
 1528 -63 l 1,73,-1
 1089 -63 l 1,74,-1
 1056 41 l 1,75,-1
 1528 629 l 1,65,-1
1528 88 m 1,76,-1
 1528 424 l 1,77,-1
 1266 88 l 1,78,-1
 1528 88 l 1,76,-1
EndSplineSet
EndChar

StartChar: ordfeminine
Encoding: 170 170 96
Width: 933
Flags: W
LayerCount: 2
Fore
SplineSet
344 796 m 0,0,1
 291 796 291 796 242.5 811 c 128,-1,2
 194 826 194 826 157 854.5 c 128,-1,3
 120 883 120 883 97.5 924.5 c 128,-1,4
 75 966 75 966 75 1019 c 0,5,6
 75 1098 75 1098 118 1153 c 128,-1,7
 161 1208 161 1208 232.5 1242.5 c 128,-1,8
 304 1277 304 1277 397 1293.5 c 128,-1,9
 490 1310 490 1310 591 1312 c 1,10,11
 588 1351 588 1351 575.5 1375.5 c 128,-1,12
 563 1400 563 1400 540 1413.5 c 128,-1,13
 517 1427 517 1427 484 1432 c 128,-1,14
 451 1437 451 1437 408 1437 c 0,15,16
 388 1437 388 1437 362.5 1434 c 128,-1,17
 337 1431 337 1431 310.5 1425.5 c 128,-1,18
 284 1420 284 1420 258.5 1413 c 128,-1,19
 233 1406 233 1406 213 1398 c 1,20,-1
 173 1514 l 1,21,22
 201 1527 201 1527 233 1537 c 128,-1,23
 265 1547 265 1547 298 1553.5 c 128,-1,24
 331 1560 331 1560 363.5 1563 c 128,-1,25
 396 1566 396 1566 423 1566 c 0,26,27
 492 1566 492 1566 553 1551 c 128,-1,28
 614 1536 614 1536 659.5 1503.5 c 128,-1,29
 705 1471 705 1471 731 1421 c 128,-1,30
 757 1371 757 1371 757 1302 c 2,31,-1
 757 1067 l 2,32,33
 757 1034 757 1034 760 1009 c 128,-1,34
 763 984 763 984 772 965 c 128,-1,35
 781 946 781 946 797.5 933.5 c 128,-1,36
 814 921 814 921 841 913 c 1,37,-1
 817 810 l 1,38,39
 740 800 740 800 692 829 c 128,-1,40
 644 858 644 858 620 909 c 1,41,42
 601 893 601 893 575 873.5 c 128,-1,43
 549 854 549 854 514.5 836.5 c 128,-1,44
 480 819 480 819 437.5 807.5 c 128,-1,45
 395 796 395 796 344 796 c 0,0,1
356 926 m 0,46,47
 396 926 396 926 431 935.5 c 128,-1,48
 466 945 466 945 496 960 c 128,-1,49
 526 975 526 975 550 994 c 128,-1,50
 574 1013 574 1013 592 1033 c 1,51,-1
 592 1193 l 1,52,53
 518 1189 518 1189 454 1181 c 128,-1,54
 390 1173 390 1173 342 1155 c 128,-1,55
 294 1137 294 1137 266.5 1106.5 c 128,-1,56
 239 1076 239 1076 239 1028 c 0,57,58
 239 976 239 976 271.5 951 c 128,-1,59
 304 926 304 926 356 926 c 0,46,47
EndSplineSet
EndChar

StartChar: ordmasculine
Encoding: 186 186 97
Width: 938
Flags: W
LayerCount: 2
Fore
SplineSet
462 794 m 256,0,1
 378 794 378 794 306 821.5 c 128,-1,2
 234 849 234 849 181.5 899.5 c 128,-1,3
 129 950 129 950 99 1020 c 128,-1,4
 69 1090 69 1090 69 1174 c 256,5,6
 69 1258 69 1258 101 1329.5 c 128,-1,7
 133 1401 133 1401 188.5 1453.5 c 128,-1,8
 244 1506 244 1506 318 1536 c 128,-1,9
 392 1566 392 1566 476 1566 c 256,10,11
 560 1566 560 1566 632 1538 c 128,-1,12
 704 1510 704 1510 756.5 1459.5 c 128,-1,13
 809 1409 809 1409 839 1338.5 c 128,-1,14
 869 1268 869 1268 869 1183 c 0,15,16
 869 1099 869 1099 837 1028 c 128,-1,17
 805 957 805 957 749.5 905 c 128,-1,18
 694 853 694 853 620 823.5 c 128,-1,19
 546 794 546 794 462 794 c 256,0,1
476 930 m 0,20,21
 527 930 527 930 568.5 949 c 128,-1,22
 610 968 610 968 640 1001 c 128,-1,23
 670 1034 670 1034 686.5 1078.5 c 128,-1,24
 703 1123 703 1123 703 1174 c 0,25,26
 703 1228 703 1228 685.5 1275 c 128,-1,27
 668 1322 668 1322 636.5 1356.5 c 128,-1,28
 605 1391 605 1391 560.5 1410.5 c 128,-1,29
 516 1430 516 1430 462 1430 c 0,30,31
 411 1430 411 1430 369.5 1410.5 c 128,-1,32
 328 1391 328 1391 298 1357 c 128,-1,33
 268 1323 268 1323 251.5 1278.5 c 128,-1,34
 235 1234 235 1234 235 1183 c 0,35,36
 235 1129 235 1129 252.5 1082.5 c 128,-1,37
 270 1036 270 1036 301.5 1002 c 128,-1,38
 333 968 333 968 377.5 949 c 128,-1,39
 422 930 422 930 476 930 c 0,20,21
EndSplineSet
EndChar

StartChar: degree
Encoding: 176 176 98
Width: 738
Flags: W
LayerCount: 2
Fore
SplineSet
368 856 m 256,0,1
 305 856 305 856 250.5 877 c 128,-1,2
 196 898 196 898 155.5 936.5 c 128,-1,3
 115 975 115 975 92 1027.5 c 128,-1,4
 69 1080 69 1080 69 1143 c 256,5,6
 69 1206 69 1206 92.5 1259.5 c 128,-1,7
 116 1313 116 1313 156.5 1352.5 c 128,-1,8
 197 1392 197 1392 252 1414 c 128,-1,9
 307 1436 307 1436 370 1436 c 256,10,11
 433 1436 433 1436 487.5 1414.5 c 128,-1,12
 542 1393 542 1393 582.5 1354.5 c 128,-1,13
 623 1316 623 1316 646 1263 c 128,-1,14
 669 1210 669 1210 669 1147 c 256,15,16
 669 1084 669 1084 645.5 1030.5 c 128,-1,17
 622 977 622 977 581.5 938.5 c 128,-1,18
 541 900 541 900 486 878 c 128,-1,19
 431 856 431 856 368 856 c 256,0,1
370 977 m 0,20,21
 445 977 445 977 488.5 1022.5 c 128,-1,22
 532 1068 532 1068 532 1143 c 0,23,24
 532 1180 532 1180 520.5 1212 c 128,-1,25
 509 1244 509 1244 487.5 1266.5 c 128,-1,26
 466 1289 466 1289 435.5 1302 c 128,-1,27
 405 1315 405 1315 368 1315 c 0,28,29
 293 1315 293 1315 249.5 1268.5 c 128,-1,30
 206 1222 206 1222 206 1147 c 0,31,32
 206 1109 206 1109 217.5 1078 c 128,-1,33
 229 1047 229 1047 250.5 1024.5 c 128,-1,34
 272 1002 272 1002 302 989.5 c 128,-1,35
 332 977 332 977 370 977 c 0,20,21
EndSplineSet
EndChar

StartChar: less
Encoding: 60 60 99
Width: 1318
Flags: W
LayerCount: 2
Fore
SplineSet
107 743 m 1,0,-1
 921 1369 l 1,1,-1
 1034 1221 l 1,2,-1
 313 668 l 1,3,-1
 1033 192 l 1,4,-1
 927 35 l 1,5,-1
 107 571 l 1,6,-1
 107 743 l 1,0,-1
EndSplineSet
EndChar

StartChar: greater
Encoding: 62 62 100
Width: 1318
Flags: W
LayerCount: 2
Fore
SplineSet
991 747 m 1,0,-1
 271 1223 l 1,1,-1
 377 1380 l 1,2,-1
 1197 844 l 1,3,-1
 1197 672 l 1,4,-1
 383 46 l 1,5,-1
 270 194 l 1,6,-1
 991 747 l 1,0,-1
EndSplineSet
EndChar

StartChar: plus
Encoding: 43 43 101
Width: 1336
Flags: W
LayerCount: 2
Fore
SplineSet
207 614 m 1,0,-1
 575 614 l 1,1,-1
 575 1000 l 1,2,-1
 760 1000 l 1,3,-1
 760 614 l 1,4,-1
 1129 614 l 1,5,-1
 1129 446 l 1,6,-1
 760 446 l 1,7,-1
 760 60 l 1,8,-1
 575 60 l 1,9,-1
 575 446 l 1,10,-1
 207 446 l 1,11,-1
 207 614 l 1,0,-1
EndSplineSet
EndChar

StartChar: plusminus
Encoding: 177 177 102
Width: 1336
Flags: W
LayerCount: 2
Fore
SplineSet
575 796 m 1,0,-1
 207 796 l 1,1,-1
 207 964 l 1,2,-1
 575 964 l 1,3,-1
 575 1350 l 1,4,-1
 760 1350 l 1,5,-1
 760 964 l 1,6,-1
 1129 964 l 1,7,-1
 1129 796 l 1,8,-1
 760 796 l 1,9,-1
 760 410 l 1,10,-1
 575 410 l 1,11,-1
 575 796 l 1,0,-1
207 228 m 1,12,-1
 1129 228 l 1,13,-1
 1129 60 l 1,14,-1
 207 60 l 1,15,-1
 207 228 l 1,12,-1
EndSplineSet
EndChar

StartChar: hyphen
Encoding: 45 45 103
Width: 1136
Flags: W
LayerCount: 2
Fore
SplineSet
207 669 m 1,0,-1
 929 669 l 1,1,-1
 929 515 l 1,2,-1
 207 515 l 1,3,-1
 207 669 l 1,0,-1
EndSplineSet
EndChar

StartChar: equal
Encoding: 61 61 104
Width: 1336
Flags: W
LayerCount: 2
Fore
SplineSet
207 829 m 1,0,-1
 1129 829 l 1,1,-1
 1129 675 l 1,2,-1
 207 675 l 1,3,-1
 207 829 l 1,0,-1
207 429 m 1,4,-1
 1129 429 l 1,5,-1
 1129 275 l 1,6,-1
 207 275 l 1,7,-1
 207 429 l 1,4,-1
EndSplineSet
EndChar

StartChar: multiply
Encoding: 215 215 105
Width: 1336
Flags: W
LayerCount: 2
Fore
SplineSet
543 523 m 1,0,-1
 236 831 l 1,1,-1
 367 961 l 1,2,-1
 674 654 l 1,3,-1
 981 961 l 1,4,-1
 1099 843 l 1,5,-1
 792 536 l 1,6,-1
 1099 229 l 1,7,-1
 969 98 l 1,8,-1
 661 405 l 1,9,-1
 354 98 l 1,10,-1
 236 216 l 1,11,-1
 543 523 l 1,0,-1
EndSplineSet
EndChar

StartChar: divide
Encoding: 247 247 106
Width: 1336
Flags: W
LayerCount: 2
Fore
SplineSet
669 765 m 0,0,1
 612 765 612 765 578 799 c 128,-1,2
 544 833 544 833 544 888 c 0,3,4
 544 945 544 945 578 978.5 c 128,-1,5
 612 1012 612 1012 669 1012 c 0,6,7
 724 1012 724 1012 758 978.5 c 128,-1,8
 792 945 792 945 792 888 c 0,9,10
 792 833 792 833 758 799 c 128,-1,11
 724 765 724 765 669 765 c 0,0,1
207 613 m 1,12,-1
 1129 613 l 1,13,-1
 1129 445 l 1,14,-1
 207 445 l 1,15,-1
 207 613 l 1,12,-1
544 170 m 0,16,17
 544 227 544 227 578 260.5 c 128,-1,18
 612 294 612 294 669 294 c 0,19,20
 724 294 724 294 758 260.5 c 128,-1,21
 792 227 792 227 792 170 c 0,22,23
 792 115 792 115 758 81 c 128,-1,24
 724 47 724 47 669 47 c 0,25,26
 612 47 612 47 578 81 c 128,-1,27
 544 115 544 115 544 170 c 0,16,17
EndSplineSet
EndChar

StartChar: logicalnot
Encoding: 172 172 107
Width: 1335
Flags: W
LayerCount: 2
Fore
SplineSet
207 723 m 1,0,-1
 1128 723 l 1,1,-1
 1127 151 l 1,2,-1
 942 151 l 1,3,-1
 942 555 l 1,4,-1
 207 555 l 1,5,-1
 207 723 l 1,0,-1
EndSplineSet
EndChar

StartChar: mu
Encoding: 181 181 108
AltUni2: 0003bc.ffffffff.0
Width: 1317
Flags: W
LayerCount: 2
Fore
SplineSet
326 50 m 1,0,1
 343 -19 343 -19 348.5 -82 c 128,-1,2
 354 -145 354 -145 354 -199 c 2,3,-1
 354 -335 l 1,4,-1
 163 -335 l 1,5,-1
 163 1000 l 1,6,-1
 353 1000 l 1,7,-1
 353 493 l 2,8,9
 353 411 353 411 366 345.5 c 128,-1,10
 379 280 379 280 411 234.5 c 128,-1,11
 443 189 443 189 496.5 164.5 c 128,-1,12
 550 140 550 140 632 140 c 0,13,14
 682 140 682 140 729 150.5 c 128,-1,15
 776 161 776 161 816.5 180 c 128,-1,16
 857 199 857 199 889.5 225 c 128,-1,17
 922 251 922 251 943 282 c 1,18,-1
 943 1000 l 1,19,-1
 1133 1000 l 1,20,-1
 1133 0 l 1,21,-1
 988 0 l 1,22,-1
 958 98 l 1,23,24
 931 76 931 76 896.5 54.5 c 128,-1,25
 862 33 862 33 819 16.5 c 128,-1,26
 776 0 776 0 726 -10 c 128,-1,27
 676 -20 676 -20 619 -20 c 0,28,29
 523 -20 523 -20 451.5 -2.5 c 128,-1,30
 380 15 380 15 326 50 c 1,0,1
EndSplineSet
EndChar

StartChar: percent
Encoding: 37 37 109
Width: 1468
Flags: W
LayerCount: 2
Fore
SplineSet
1246 1439 m 1,0,-1
 1367 1339 l 1,1,-1
 232 -17 l 1,2,-1
 111 83 l 1,3,-1
 1246 1439 l 1,0,-1
368 856 m 256,4,5
 305 856 305 856 250.5 877 c 128,-1,6
 196 898 196 898 155.5 936.5 c 128,-1,7
 115 975 115 975 92 1027.5 c 128,-1,8
 69 1080 69 1080 69 1143 c 256,9,10
 69 1206 69 1206 92.5 1259.5 c 128,-1,11
 116 1313 116 1313 156.5 1352.5 c 128,-1,12
 197 1392 197 1392 252 1414 c 128,-1,13
 307 1436 307 1436 370 1436 c 256,14,15
 433 1436 433 1436 487.5 1414.5 c 128,-1,16
 542 1393 542 1393 582.5 1354.5 c 128,-1,17
 623 1316 623 1316 646 1263 c 128,-1,18
 669 1210 669 1210 669 1147 c 256,19,20
 669 1084 669 1084 645.5 1030.5 c 128,-1,21
 622 977 622 977 581.5 938.5 c 128,-1,22
 541 900 541 900 486 878 c 128,-1,23
 431 856 431 856 368 856 c 256,4,5
370 977 m 0,24,25
 445 977 445 977 488.5 1022.5 c 128,-1,26
 532 1068 532 1068 532 1143 c 0,27,28
 532 1180 532 1180 520.5 1212 c 128,-1,29
 509 1244 509 1244 487.5 1266.5 c 128,-1,30
 466 1289 466 1289 435.5 1302 c 128,-1,31
 405 1315 405 1315 368 1315 c 0,32,33
 293 1315 293 1315 249.5 1268.5 c 128,-1,34
 206 1222 206 1222 206 1147 c 0,35,36
 206 1109 206 1109 217.5 1078 c 128,-1,37
 229 1047 229 1047 250.5 1024.5 c 128,-1,38
 272 1002 272 1002 302 989.5 c 128,-1,39
 332 977 332 977 370 977 c 0,24,25
799 267 m 256,40,41
 799 330 799 330 822.5 383.5 c 128,-1,42
 846 437 846 437 886.5 476.5 c 128,-1,43
 927 516 927 516 982 538 c 128,-1,44
 1037 560 1037 560 1100 560 c 256,45,46
 1163 560 1163 560 1217.5 538.5 c 128,-1,47
 1272 517 1272 517 1312.5 478.5 c 128,-1,48
 1353 440 1353 440 1376 387 c 128,-1,49
 1399 334 1399 334 1399 271 c 256,50,51
 1399 208 1399 208 1375.5 154.5 c 128,-1,52
 1352 101 1352 101 1311.5 62.5 c 128,-1,53
 1271 24 1271 24 1216 2 c 128,-1,54
 1161 -20 1161 -20 1098 -20 c 256,55,56
 1035 -20 1035 -20 980.5 1 c 128,-1,57
 926 22 926 22 885.5 60.5 c 128,-1,58
 845 99 845 99 822 151.5 c 128,-1,59
 799 204 799 204 799 267 c 256,40,41
936 271 m 0,60,61
 936 233 936 233 947.5 202 c 128,-1,62
 959 171 959 171 980.5 148.5 c 128,-1,63
 1002 126 1002 126 1032 113.5 c 128,-1,64
 1062 101 1062 101 1100 101 c 0,65,66
 1175 101 1175 101 1218.5 146.5 c 128,-1,67
 1262 192 1262 192 1262 267 c 0,68,69
 1262 304 1262 304 1250.5 336 c 128,-1,70
 1239 368 1239 368 1217.5 390.5 c 128,-1,71
 1196 413 1196 413 1165.5 426 c 128,-1,72
 1135 439 1135 439 1098 439 c 0,73,74
 1023 439 1023 439 979.5 392.5 c 128,-1,75
 936 346 936 346 936 271 c 0,60,61
EndSplineSet
EndChar

StartChar: numbersign
Encoding: 35 35 110
Width: 1589
Flags: W
LayerCount: 2
Fore
SplineSet
389 406 m 1,0,-1
 171 406 l 1,1,-1
 171 560 l 1,2,-1
 417 560 l 1,3,-1
 482 906 l 1,4,-1
 171 906 l 1,5,-1
 171 1060 l 1,6,-1
 510 1060 l 1,7,-1
 580 1435 l 1,8,-1
 733 1396 l 1,9,-1
 670 1060 l 1,10,-1
 1038 1060 l 1,11,-1
 1107 1435 l 1,12,-1
 1260 1397 l 1,13,-1
 1198 1060 l 1,14,-1
 1418 1060 l 1,15,-1
 1418 906 l 1,16,-1
 1170 906 l 1,17,-1
 1106 560 l 1,18,-1
 1418 560 l 1,19,-1
 1418 406 l 1,20,-1
 1078 406 l 1,21,-1
 1000 -19 l 1,22,-1
 847 20 l 1,23,-1
 918 406 l 1,24,-1
 549 406 l 1,25,-1
 470 -19 l 1,26,-1
 317 19 l 1,27,-1
 389 406 l 1,0,-1
946 560 m 1,28,-1
 1010 906 l 1,29,-1
 642 906 l 1,30,-1
 577 560 l 1,31,-1
 946 560 l 1,28,-1
EndSplineSet
EndChar

StartChar: asterisk
Encoding: 42 42 111
Width: 1107
Flags: W
LayerCount: 2
Fore
SplineSet
480 1218 m 1,0,-1
 244 1101 l 1,1,-1
 187 1199 l 1,2,-1
 406 1345 l 1,3,-1
 187 1491 l 1,4,-1
 244 1589 l 1,5,-1
 480 1471 l 1,6,-1
 496 1735 l 1,7,-1
 610 1735 l 1,8,-1
 626 1472 l 1,9,-1
 863 1590 l 1,10,-1
 920 1491 l 1,11,-1
 699 1345 l 1,12,-1
 920 1199 l 1,13,-1
 863 1100 l 1,14,-1
 626 1218 l 1,15,-1
 610 954 l 1,16,-1
 496 954 l 1,17,-1
 480 1218 l 1,0,-1
EndSplineSet
EndChar

StartChar: endash
Encoding: 8211 8211 112
Width: 1556
Flags: W
LayerCount: 2
Fore
SplineSet
267 669 m 1,0,-1
 1289 669 l 1,1,-1
 1289 515 l 1,2,-1
 267 515 l 1,3,-1
 267 669 l 1,0,-1
EndSplineSet
EndChar

StartChar: emdash
Encoding: 8212 8212 113
Width: 1636
Flags: W
LayerCount: 2
Fore
SplineSet
107 669 m 1,0,-1
 1529 669 l 1,1,-1
 1529 515 l 1,2,-1
 107 515 l 1,3,-1
 107 669 l 1,0,-1
EndSplineSet
EndChar

StartChar: slash
Encoding: 47 47 114
Width: 997
Flags: W
LayerCount: 2
Fore
SplineSet
749 1561 m 1,0,-1
 924 1561 l 1,1,-1
 248 -467 l 1,2,-1
 73 -467 l 1,3,-1
 749 1561 l 1,0,-1
EndSplineSet
EndChar

StartChar: backslash
Encoding: 92 92 115
Width: 997
Flags: W
LayerCount: 2
Fore
SplineSet
73 1561 m 1,0,-1
 256 1561 l 1,1,-1
 924 -467 l 1,2,-1
 741 -467 l 1,3,-1
 73 1561 l 1,0,-1
EndSplineSet
EndChar

StartChar: bar
Encoding: 124 124 116
Width: 553
Flags: W
LayerCount: 2
Fore
SplineSet
193 1561 m 1,0,-1
 360 1561 l 1,1,-1
 360 -467 l 1,2,-1
 193 -467 l 1,3,-1
 193 1561 l 1,0,-1
EndSplineSet
EndChar

StartChar: brokenbar
Encoding: 166 166 117
Width: 553
Flags: W
LayerCount: 2
Fore
SplineSet
193 1561 m 1,0,-1
 360 1561 l 1,1,-1
 360 741 l 1,2,-1
 193 741 l 1,3,-1
 193 1561 l 1,0,-1
360 353 m 1,4,-1
 360 -467 l 1,5,-1
 193 -467 l 1,6,-1
 193 353 l 1,7,-1
 360 353 l 1,4,-1
EndSplineSet
EndChar

StartChar: paragraph
Encoding: 182 182 118
Width: 1226
Flags: W
LayerCount: 2
Fore
SplineSet
567 704 m 1,0,1
 477 704 477 704 397 726 c 128,-1,2
 317 748 317 748 257 792 c 128,-1,3
 197 836 197 836 162 903 c 128,-1,4
 127 970 127 970 127 1060 c 256,5,6
 127 1150 127 1150 165.5 1216.5 c 128,-1,7
 204 1283 204 1283 267.5 1327.5 c 128,-1,8
 331 1372 331 1372 414.5 1393.5 c 128,-1,9
 498 1415 498 1415 588 1415 c 2,10,-1
 1062 1415 l 1,11,-1
 1062 -104 l 1,12,-1
 915 -104 l 1,13,-1
 915 1285 l 1,14,-1
 718 1285 l 1,15,-1
 718 -104 l 1,16,-1
 567 -104 l 1,17,-1
 567 704 l 1,0,1
EndSplineSet
EndChar

StartChar: braceleft
Encoding: 123 123 119
Width: 733
Flags: W
LayerCount: 2
Fore
SplineSet
193 1616 m 1,0,-1
 610 1616 l 1,1,-1
 610 1448 l 1,2,-1
 360 1448 l 1,3,-1
 360 -162 l 1,4,-1
 610 -162 l 1,5,-1
 610 -331 l 1,6,-1
 193 -331 l 1,7,-1
 193 1616 l 1,0,-1
EndSplineSet
EndChar

StartChar: braceright
Encoding: 125 125 120
Width: 733
Flags: W
LayerCount: 2
Fore
SplineSet
429 -162 m 1,0,-1
 429 1448 l 1,1,-1
 179 1448 l 1,2,-1
 179 1617 l 1,3,-1
 596 1617 l 1,4,-1
 596 -330 l 1,5,-1
 179 -330 l 1,6,-1
 179 -162 l 1,7,-1
 429 -162 l 1,0,-1
EndSplineSet
EndChar

StartChar: parenleft
Encoding: 40 40 121
Width: 800
Flags: W
LayerCount: 2
Fore
SplineSet
556 -307 m 1,0,1
 458 -221 458 -221 380.5 -121 c 128,-1,2
 303 -21 303 -21 249 95.5 c 128,-1,3
 195 212 195 212 166 346 c 128,-1,4
 137 480 137 480 137 633 c 0,5,6
 137 773 137 773 163 904.5 c 128,-1,7
 189 1036 189 1036 242 1157 c 128,-1,8
 295 1278 295 1278 376.5 1386.5 c 128,-1,9
 458 1495 458 1495 569 1590 c 1,10,-1
 668 1485 l 1,11,12
 579 1392 579 1392 513.5 1297.5 c 128,-1,13
 448 1203 448 1203 405.5 1102.5 c 128,-1,14
 363 1002 363 1002 342 893 c 128,-1,15
 321 784 321 784 321 663 c 0,16,17
 321 518 321 518 348 394 c 128,-1,18
 375 270 375 270 423 163.5 c 128,-1,19
 471 57 471 57 536.5 -34.5 c 128,-1,20
 602 -126 602 -126 679 -207 c 1,21,-1
 556 -307 l 1,22,-1
 556 -307 l 1,0,1
EndSplineSet
EndChar

StartChar: parenright
Encoding: 41 41 122
Width: 800
Flags: W
LayerCount: 2
Fore
SplineSet
134 -202 m 1,0,1
 223 -109 223 -109 288.5 -14.5 c 128,-1,2
 354 80 354 80 396.5 180.5 c 128,-1,3
 439 281 439 281 460 390 c 128,-1,4
 481 499 481 499 481 620 c 0,5,6
 481 765 481 765 454 889 c 128,-1,7
 427 1013 427 1013 379 1119.5 c 128,-1,8
 331 1226 331 1226 265.5 1317.5 c 128,-1,9
 200 1409 200 1409 123 1490 c 1,10,-1
 246 1590 l 1,11,12
 344 1504 344 1504 421.5 1404 c 128,-1,13
 499 1304 499 1304 553 1187.5 c 128,-1,14
 607 1071 607 1071 636 937 c 128,-1,15
 665 803 665 803 665 650 c 0,16,17
 665 510 665 510 639 378 c 128,-1,18
 613 246 613 246 560 125.5 c 128,-1,19
 507 5 507 5 425.5 -104 c 128,-1,20
 344 -213 344 -213 233 -307 c 1,21,-1
 134 -202 l 1,22,-1
 134 -202 l 1,0,1
EndSplineSet
EndChar

StartChar: bracketleft
Encoding: 91 91 123
Width: 733
Flags: W
LayerCount: 2
Fore
SplineSet
234 332 m 2,0,1
 234 381 234 381 222.5 424 c 128,-1,2
 211 467 211 467 191 499 c 128,-1,3
 171 531 171 531 144.5 550 c 128,-1,4
 118 569 118 569 87 569 c 1,5,-1
 87 698 l 1,6,7
 117 698 117 698 144 712 c 128,-1,8
 171 726 171 726 191 751.5 c 128,-1,9
 211 777 211 777 222.5 813.5 c 128,-1,10
 234 850 234 850 234 895 c 2,11,-1
 234 1225 l 2,12,13
 234 1377 234 1377 297 1477.5 c 128,-1,14
 360 1578 360 1578 471 1616 c 1,15,-1
 539 1509 l 1,16,17
 468 1470 468 1470 434.5 1411 c 128,-1,18
 401 1352 401 1352 401 1255 c 2,19,-1
 401 925 l 2,20,21
 401 819 401 819 365.5 747.5 c 128,-1,22
 330 676 330 676 256 642 c 1,23,24
 330 609 330 609 365.5 538.5 c 128,-1,25
 401 468 401 468 401 362 c 2,26,-1
 401 36 l 2,27,28
 401 -13 401 -13 412.5 -51 c 128,-1,29
 424 -89 424 -89 444.5 -119.5 c 128,-1,30
 465 -150 465 -150 493.5 -174 c 128,-1,31
 522 -198 522 -198 556 -218 c 1,32,-1
 481 -330 l 1,33,34
 431 -311 431 -311 386.5 -281 c 128,-1,35
 342 -251 342 -251 308 -209 c 128,-1,36
 274 -167 274 -167 254 -113.5 c 128,-1,37
 234 -60 234 -60 234 6 c 2,38,-1
 234 332 l 2,0,1
EndSplineSet
EndChar

StartChar: bracketright
Encoding: 93 93 124
Width: 733
Flags: W
LayerCount: 2
Fore
SplineSet
180 -223 m 1,0,1
 251 -184 251 -184 284.5 -125 c 128,-1,2
 318 -66 318 -66 318 31 c 2,3,-1
 318 361 l 2,4,5
 318 467 318 467 353.5 538.5 c 128,-1,6
 389 610 389 610 463 644 c 1,7,8
 389 677 389 677 353.5 747.5 c 128,-1,9
 318 818 318 818 318 924 c 2,10,-1
 318 1250 l 2,11,12
 318 1299 318 1299 306.5 1337 c 128,-1,13
 295 1375 295 1375 274.5 1405.5 c 128,-1,14
 254 1436 254 1436 225.5 1460 c 128,-1,15
 197 1484 197 1484 163 1504 c 1,16,-1
 238 1616 l 1,17,18
 287 1597 287 1597 332 1567 c 128,-1,19
 377 1537 377 1537 411 1495 c 128,-1,20
 445 1453 445 1453 465 1399.5 c 128,-1,21
 485 1346 485 1346 485 1280 c 2,22,-1
 485 954 l 2,23,24
 485 905 485 905 496.5 862 c 128,-1,25
 508 819 508 819 528 786.5 c 128,-1,26
 548 754 548 754 574.5 735.5 c 128,-1,27
 601 717 601 717 632 717 c 1,28,-1
 632 588 l 1,29,30
 602 588 602 588 575 574 c 128,-1,31
 548 560 548 560 528 534.5 c 128,-1,32
 508 509 508 509 496.5 472.5 c 128,-1,33
 485 436 485 436 485 391 c 2,34,-1
 485 61 l 2,35,36
 485 -91 485 -91 422 -191.5 c 128,-1,37
 359 -292 359 -292 248 -330 c 1,38,-1
 180 -223 l 1,39,-1
 180 -223 l 1,0,1
EndSplineSet
EndChar

StartChar: currency
Encoding: 164 164 125
Width: 1199
Flags: W
LayerCount: 2
Fore
SplineSet
59 203 m 1,0,-1
 274 394 l 1,1,2
 238 442 238 442 218.5 500.5 c 128,-1,3
 199 559 199 559 199 628 c 256,4,5
 199 697 199 697 220.5 757 c 128,-1,6
 242 817 242 817 281 866 c 1,7,-1
 59 1064 l 1,8,-1
 169 1174 l 1,9,-1
 370 948 l 1,10,11
 421 983 421 983 480.5 1001.5 c 128,-1,12
 540 1020 540 1020 606 1020 c 256,13,14
 672 1020 672 1020 729 1003 c 128,-1,15
 786 986 786 986 834 955 c 1,16,-1
 1030 1174 l 1,17,-1
 1140 1064 l 1,18,-1
 923 872 l 1,19,20
 959 824 959 824 979 765 c 128,-1,21
 999 706 999 706 999 637 c 256,22,23
 999 568 999 568 977.5 508.5 c 128,-1,24
 956 449 956 449 918 401 c 1,25,-1
 1140 203 l 1,26,-1
 1030 93 l 1,27,-1
 829 319 l 1,28,29
 778 285 778 285 718 266.5 c 128,-1,30
 658 248 658 248 592 248 c 256,31,32
 526 248 526 248 469 264.5 c 128,-1,33
 412 281 412 281 364 312 c 1,34,-1
 169 93 l 1,35,-1
 59 203 l 1,0,-1
606 389 m 0,36,37
 655 389 655 389 696 408 c 128,-1,38
 737 427 737 427 766.5 459 c 128,-1,39
 796 491 796 491 812 534.5 c 128,-1,40
 828 578 828 578 828 628 c 0,41,42
 828 681 828 681 811 727 c 128,-1,43
 794 773 794 773 763 806.5 c 128,-1,44
 732 840 732 840 688.5 859.5 c 128,-1,45
 645 879 645 879 592 879 c 0,46,47
 542 879 542 879 501.5 859.5 c 128,-1,48
 461 840 461 840 431.5 807 c 128,-1,49
 402 774 402 774 386 730 c 128,-1,50
 370 686 370 686 370 637 c 0,51,52
 370 584 370 584 387 538.5 c 128,-1,53
 404 493 404 493 435 460 c 128,-1,54
 466 427 466 427 509.5 408 c 128,-1,55
 553 389 553 389 606 389 c 0,36,37
EndSplineSet
EndChar

StartChar: dollar
Encoding: 36 36 126
Width: 1288
Flags: W
LayerCount: 2
Fore
SplineSet
211 406 m 1,0,1
 292 345 292 345 386 306 c 128,-1,2
 480 267 480 267 565 254 c 1,3,-1
 565 659 l 1,4,5
 487 674 487 674 412 695 c 128,-1,6
 337 716 337 716 277.5 751 c 128,-1,7
 218 786 218 786 182 840.5 c 128,-1,8
 146 895 146 895 146 977 c 0,9,10
 146 1056 146 1056 181.5 1118.5 c 128,-1,11
 217 1181 217 1181 275.5 1225.5 c 128,-1,12
 334 1270 334 1270 409.5 1297 c 128,-1,13
 485 1324 485 1324 565 1332 c 1,14,-1
 565 1471 l 1,15,-1
 718 1471 l 1,16,-1
 718 1332 l 1,17,18
 818 1322 818 1322 913 1290 c 128,-1,19
 1008 1258 1008 1258 1089 1206 c 1,20,-1
 1020 1044 l 1,21,22
 950 1086 950 1086 870.5 1115.5 c 128,-1,23
 791 1145 791 1145 718 1159 c 1,24,-1
 718 802 l 1,25,26
 799 786 799 786 878 765 c 128,-1,27
 957 744 957 744 1020 708 c 128,-1,28
 1083 672 1083 672 1122 615.5 c 128,-1,29
 1161 559 1161 559 1161 472 c 256,30,31
 1161 385 1161 385 1124 318 c 128,-1,32
 1087 251 1087 251 1025.5 203.5 c 128,-1,33
 964 156 964 156 884 127 c 128,-1,34
 804 98 804 98 718 87 c 1,35,-1
 718 -96 l 1,36,-1
 565 -96 l 1,37,-1
 565 82 l 1,38,39
 505 86 505 86 443 99.5 c 128,-1,40
 381 113 381 113 322.5 134.5 c 128,-1,41
 264 156 264 156 211.5 184 c 128,-1,42
 159 212 159 212 116 246 c 1,43,-1
 211 406 l 1,0,1
565 1165 m 1,44,45
 522 1160 522 1160 482 1148.5 c 128,-1,46
 442 1137 442 1137 411.5 1116 c 128,-1,47
 381 1095 381 1095 362.5 1064.5 c 128,-1,48
 344 1034 344 1034 344 991 c 0,49,50
 344 956 344 956 361 931 c 128,-1,51
 378 906 378 906 407.5 887.5 c 128,-1,52
 437 869 437 869 477.5 855.5 c 128,-1,53
 518 842 518 842 565 832 c 1,54,-1
 565 1165 l 1,44,45
718 254 m 1,55,56
 766 260 766 260 810.5 275 c 128,-1,57
 855 290 855 290 888.5 314.5 c 128,-1,58
 922 339 922 339 942.5 374.5 c 128,-1,59
 963 410 963 410 963 458 c 0,60,61
 963 496 963 496 944 523 c 128,-1,62
 925 550 925 550 892 569.5 c 128,-1,63
 859 589 859 589 814 603 c 128,-1,64
 769 617 769 617 718 628 c 1,65,-1
 718 254 l 1,55,56
EndSplineSet
EndChar

StartChar: cent
Encoding: 162 162 127
Width: 1065
Flags: W
LayerCount: 2
Fore
SplineSet
565 182 m 1,0,1
 457 191 457 191 370 230 c 128,-1,2
 283 269 283 269 222 335 c 128,-1,3
 161 401 161 401 128 492.5 c 128,-1,4
 95 584 95 584 95 698 c 0,5,6
 95 805 95 805 130 894.5 c 128,-1,7
 165 984 165 984 227.5 1051 c 128,-1,8
 290 1118 290 1118 376.5 1160.5 c 128,-1,9
 463 1203 463 1203 565 1215 c 1,10,-1
 565 1471 l 1,11,-1
 718 1471 l 1,12,-1
 718 1217 l 1,13,14
 804 1211 804 1211 877.5 1191 c 128,-1,15
 951 1171 951 1171 999 1145 c 1,16,-1
 953 992 l 1,17,18
 915 1012 915 1012 852.5 1031 c 128,-1,19
 790 1050 790 1050 718 1058 c 1,20,-1
 718 343 l 1,21,22
 787 350 787 350 859 368 c 128,-1,23
 931 386 931 386 992 416 c 1,24,-1
 1028 273 l 1,25,26
 962 236 962 236 879.5 214 c 128,-1,27
 797 192 797 192 718 184 c 1,28,-1
 718 -96 l 1,29,-1
 565 -96 l 1,30,-1
 565 182 l 1,0,1
565 1059 m 1,31,32
 500 1049 500 1049 448 1019.5 c 128,-1,33
 396 990 396 990 360 944.5 c 128,-1,34
 324 899 324 899 304.5 839.5 c 128,-1,35
 285 780 285 780 285 710 c 0,36,37
 285 639 285 639 304.5 578 c 128,-1,38
 324 517 324 517 360.5 470 c 128,-1,39
 397 423 397 423 448.5 391.5 c 128,-1,40
 500 360 500 360 565 348 c 1,41,-1
 565 1059 l 1,31,32
EndSplineSet
EndChar

StartChar: sterling
Encoding: 163 163 128
Width: 1208
Flags: W
LayerCount: 2
Fore
SplineSet
128 166 m 1,0,1
 192 201 192 201 234.5 240 c 128,-1,2
 277 279 277 279 303 321.5 c 128,-1,3
 329 364 329 364 340 410 c 128,-1,4
 351 456 351 456 351 504 c 0,5,6
 351 525 351 525 349 546 c 128,-1,7
 347 567 347 567 343 590 c 1,8,-1
 142 590 l 1,9,-1
 142 744 l 1,10,-1
 313 744 l 1,11,12
 303 795 303 795 295.5 850 c 128,-1,13
 288 905 288 905 288 968 c 0,14,15
 288 1072 288 1072 315.5 1158.5 c 128,-1,16
 343 1245 343 1245 396.5 1307 c 128,-1,17
 450 1369 450 1369 529.5 1403 c 128,-1,18
 609 1437 609 1437 713 1437 c 0,19,20
 755 1437 755 1437 799 1429.5 c 128,-1,21
 843 1422 843 1422 883 1409.5 c 128,-1,22
 923 1397 923 1397 956.5 1380 c 128,-1,23
 990 1363 990 1363 1011 1345 c 1,24,-1
 946 1209 l 1,25,26
 890 1246 890 1246 827 1264.5 c 128,-1,27
 764 1283 764 1283 703 1283 c 0,28,29
 641 1283 641 1283 598 1261.5 c 128,-1,30
 555 1240 555 1240 527.5 1202 c 128,-1,31
 500 1164 500 1164 487.5 1111.5 c 128,-1,32
 475 1059 475 1059 475 998 c 0,33,34
 475 926 475 926 485 863.5 c 128,-1,35
 495 801 495 801 506 744 c 1,36,-1
 864 744 l 1,37,-1
 864 590 l 1,38,-1
 534 590 l 1,39,40
 537 561 537 561 537 534 c 0,41,42
 537 482 537 482 526 431 c 128,-1,43
 515 380 515 380 489.5 330.5 c 128,-1,44
 464 281 464 281 421 234 c 128,-1,45
 378 187 378 187 314 144 c 1,46,47
 374 154 374 154 441.5 161 c 128,-1,48
 509 168 509 168 575 168 c 2,49,-1
 1091 168 l 1,50,-1
 1091 0 l 1,51,-1
 145 0 l 1,52,-1
 128 166 l 1,0,1
EndSplineSet
EndChar

StartChar: Euro
Encoding: 8364 8364 129
Width: 1697
Flags: W
LayerCount: 2
Fore
SplineSet
85 598 m 1,0,-1
 287 598 l 1,1,2
 285 621 285 621 283.5 644.5 c 128,-1,3
 282 668 282 668 282 693 c 0,4,5
 282 745 282 745 288 795 c 1,6,-1
 105 795 l 1,7,-1
 125 949 l 1,8,-1
 320 949 l 1,9,10
 355 1060 355 1060 419.5 1149.5 c 128,-1,11
 484 1239 484 1239 573 1303 c 128,-1,12
 662 1367 662 1367 774 1401.5 c 128,-1,13
 886 1436 886 1436 1015 1436 c 0,14,15
 1162 1436 1162 1436 1290 1392 c 128,-1,16
 1418 1348 1418 1348 1517 1270 c 1,17,-1
 1424 1122 l 1,18,19
 1349 1189 1349 1189 1239.5 1229.5 c 128,-1,20
 1130 1270 1130 1270 997 1270 c 0,21,22
 910 1270 910 1270 834.5 1247 c 128,-1,23
 759 1224 759 1224 698 1182 c 128,-1,24
 637 1140 637 1140 591.5 1080.5 c 128,-1,25
 546 1021 546 1021 518 949 c 1,26,-1
 1307 949 l 1,27,-1
 1287 795 l 1,28,-1
 482 795 l 1,29,30
 480 777 480 777 479 759 c 128,-1,31
 478 741 478 741 478 723 c 0,32,33
 478 691 478 691 480.5 659.5 c 128,-1,34
 483 628 483 628 489 598 c 1,35,-1
 1267 598 l 1,36,-1
 1247 444 l 1,37,-1
 538 444 l 1,38,39
 570 377 570 377 617 322 c 128,-1,40
 664 267 664 267 725 228 c 128,-1,41
 786 189 786 189 859 167.5 c 128,-1,42
 932 146 932 146 1015 146 c 0,43,44
 1074 146 1074 146 1136.5 157.5 c 128,-1,45
 1199 169 1199 169 1257.5 189 c 128,-1,46
 1316 209 1316 209 1368 235.5 c 128,-1,47
 1420 262 1420 262 1458 293 c 1,48,-1
 1530 155 l 1,49,50
 1482 114 1482 114 1422 82 c 128,-1,51
 1362 50 1362 50 1294 27 c 128,-1,52
 1226 4 1226 4 1151 -8 c 128,-1,53
 1076 -20 1076 -20 997 -20 c 0,54,55
 874 -20 874 -20 766 13 c 128,-1,56
 658 46 658 46 570.5 106.5 c 128,-1,57
 483 167 483 167 419.5 252.5 c 128,-1,58
 356 338 356 338 321 444 c 1,59,-1
 65 444 l 1,60,-1
 85 598 l 1,0,-1
EndSplineSet
EndChar

StartChar: yen
Encoding: 165 165 130
Width: 1291
Flags: W
LayerCount: 2
Fore
SplineSet
185 429 m 1,0,-1
 559 429 l 1,1,-1
 559 575 l 1,2,-1
 185 575 l 1,3,-1
 185 729 l 1,4,-1
 478 729 l 1,5,-1
 37 1416 l 1,6,-1
 240 1416 l 1,7,-1
 653 769 l 1,8,-1
 1063 1416 l 1,9,-1
 1254 1416 l 1,10,-1
 820 729 l 1,11,-1
 1107 729 l 1,12,-1
 1107 575 l 1,13,-1
 744 575 l 1,14,-1
 744 429 l 1,15,-1
 1107 429 l 1,16,-1
 1107 275 l 1,17,-1
 744 275 l 1,18,-1
 744 0 l 1,19,-1
 559 0 l 1,20,-1
 559 275 l 1,21,-1
 185 275 l 1,22,-1
 185 429 l 1,0,-1
EndSplineSet
EndChar

StartChar: at
Encoding: 64 64 131
Width: 1932
Flags: W
LayerCount: 2
Fore
SplineSet
147 393 m 0,0,1
 147 527 147 527 186.5 646 c 128,-1,2
 226 765 226 765 294.5 865 c 128,-1,3
 363 965 363 965 456 1045 c 128,-1,4
 549 1125 549 1125 656 1181 c 128,-1,5
 763 1237 763 1237 879 1266.5 c 128,-1,6
 995 1296 995 1296 1110 1296 c 0,7,8
 1249 1296 1249 1296 1372 1254.5 c 128,-1,9
 1495 1213 1495 1213 1587 1136 c 128,-1,10
 1679 1059 1679 1059 1732 947.5 c 128,-1,11
 1785 836 1785 836 1785 697 c 0,12,13
 1785 630 1785 630 1770.5 561 c 128,-1,14
 1756 492 1756 492 1728.5 427.5 c 128,-1,15
 1701 363 1701 363 1661.5 306.5 c 128,-1,16
 1622 250 1622 250 1572 208 c 128,-1,17
 1522 166 1522 166 1463 141.5 c 128,-1,18
 1404 117 1404 117 1337 117 c 0,19,20
 1260 117 1260 117 1208 151.5 c 128,-1,21
 1156 186 1156 186 1138 255 c 1,22,23
 1114 232 1114 232 1082.5 207.5 c 128,-1,24
 1051 183 1051 183 1013.5 163 c 128,-1,25
 976 143 976 143 932.5 130 c 128,-1,26
 889 117 889 117 841 117 c 0,27,28
 774 117 774 117 721 140.5 c 128,-1,29
 668 164 668 164 631 206 c 128,-1,30
 594 248 594 248 574 305 c 128,-1,31
 554 362 554 362 554 429 c 0,32,33
 554 489 554 489 570.5 548.5 c 128,-1,34
 587 608 587 608 616 662.5 c 128,-1,35
 645 717 645 717 686.5 764 c 128,-1,36
 728 811 728 811 777 845.5 c 128,-1,37
 826 880 826 880 882.5 899.5 c 128,-1,38
 939 919 939 919 999 919 c 0,39,40
 1042 919 1042 919 1077 910 c 128,-1,41
 1112 901 1112 901 1139 886.5 c 128,-1,42
 1166 872 1166 872 1185.5 854 c 128,-1,43
 1205 836 1205 836 1219 818 c 1,44,-1
 1232 883 l 1,45,-1
 1384 883 l 1,46,-1
 1295 448 l 2,47,48
 1278 364 1278 364 1297.5 311 c 128,-1,49
 1317 258 1317 258 1373 258 c 0,50,51
 1434 258 1434 258 1481.5 299 c 128,-1,52
 1529 340 1529 340 1562 401.5 c 128,-1,53
 1595 463 1595 463 1612 534 c 128,-1,54
 1629 605 1629 605 1629 666 c 0,55,56
 1629 780 1629 780 1588 872 c 128,-1,57
 1547 964 1547 964 1474.5 1029.5 c 128,-1,58
 1402 1095 1402 1095 1304 1130 c 128,-1,59
 1206 1165 1206 1165 1092 1165 c 0,60,61
 991 1165 991 1165 893 1136 c 128,-1,62
 795 1107 795 1107 707 1056 c 128,-1,63
 619 1005 619 1005 545 935 c 128,-1,64
 471 865 471 865 417.5 782.5 c 128,-1,65
 364 700 364 700 333.5 608.5 c 128,-1,66
 303 517 303 517 303 423 c 0,67,68
 303 279 303 279 354.5 175.5 c 128,-1,69
 406 72 406 72 497 6 c 128,-1,70
 588 -60 588 -60 711.5 -91.5 c 128,-1,71
 835 -123 835 -123 979 -123 c 1,72,-1
 940 -243 l 1,73,74
 773 -243 773 -243 628.5 -206 c 128,-1,75
 484 -169 484 -169 377 -91.5 c 128,-1,76
 270 -14 270 -14 208.5 106 c 128,-1,77
 147 226 147 226 147 393 c 0,0,1
728 456 m 0,78,79
 728 420 728 420 736 385.5 c 128,-1,80
 744 351 744 351 760.5 323.5 c 128,-1,81
 777 296 777 296 803 279.5 c 128,-1,82
 829 263 829 263 865 263 c 0,83,84
 911 263 911 263 952.5 278 c 128,-1,85
 994 293 994 293 1029 315.5 c 128,-1,86
 1064 338 1064 338 1091.5 363 c 128,-1,87
 1119 388 1119 388 1138 409 c 1,88,89
 1140 418 1140 418 1141.5 427.5 c 128,-1,90
 1143 437 1143 437 1146 448 c 2,91,-1
 1190 670 l 1,92,93
 1175 684 1175 684 1152 701.5 c 128,-1,94
 1129 719 1129 719 1099.5 735 c 128,-1,95
 1070 751 1070 751 1035 761.5 c 128,-1,96
 1000 772 1000 772 961 772 c 0,97,98
 909 772 909 772 866 742 c 128,-1,99
 823 712 823 712 792.5 665.5 c 128,-1,100
 762 619 762 619 745 563.5 c 128,-1,101
 728 508 728 508 728 456 c 0,78,79
EndSplineSet
EndChar

StartChar: copyright
Encoding: 169 169 132
Width: 1584
Flags: W
LayerCount: 2
Fore
SplineSet
137 583 m 0,0,1
 137 721 137 721 188.5 837 c 128,-1,2
 240 953 240 953 330 1036 c 128,-1,3
 420 1119 420 1119 541 1165.5 c 128,-1,4
 662 1212 662 1212 800 1212 c 0,5,6
 932 1212 932 1212 1050 1167.5 c 128,-1,7
 1168 1123 1168 1123 1256 1043 c 128,-1,8
 1344 963 1344 963 1395.5 852 c 128,-1,9
 1447 741 1447 741 1447 609 c 0,10,11
 1447 471 1447 471 1395.5 355 c 128,-1,12
 1344 239 1344 239 1254 156 c 128,-1,13
 1164 73 1164 73 1043 26.5 c 128,-1,14
 922 -20 922 -20 784 -20 c 0,15,16
 652 -20 652 -20 534 24.5 c 128,-1,17
 416 69 416 69 328 149 c 128,-1,18
 240 229 240 229 188.5 340 c 128,-1,19
 137 451 137 451 137 583 c 0,0,1
283 609 m 0,20,21
 283 502 283 502 323.5 409.5 c 128,-1,22
 364 317 364 317 434.5 248.5 c 128,-1,23
 505 180 505 180 599 140.5 c 128,-1,24
 693 101 693 101 800 101 c 0,25,26
 903 101 903 101 994.5 137.5 c 128,-1,27
 1086 174 1086 174 1154 238.5 c 128,-1,28
 1222 303 1222 303 1261.5 391 c 128,-1,29
 1301 479 1301 479 1301 583 c 0,30,31
 1301 690 1301 690 1260.5 783 c 128,-1,32
 1220 876 1220 876 1149.5 944.5 c 128,-1,33
 1079 1013 1079 1013 985 1052.5 c 128,-1,34
 891 1092 891 1092 784 1092 c 0,35,36
 680 1092 680 1092 589 1055.5 c 128,-1,37
 498 1019 498 1019 430 954.5 c 128,-1,38
 362 890 362 890 322.5 801.5 c 128,-1,39
 283 713 283 713 283 609 c 0,20,21
467 595 m 0,40,41
 467 668 467 668 494 727.5 c 128,-1,42
 521 787 521 787 568.5 829 c 128,-1,43
 616 871 616 871 680 894 c 128,-1,44
 744 917 744 917 818 917 c 0,45,46
 927 917 927 917 1016 863 c 1,47,-1
 965 753 l 1,48,49
 931 772 931 772 890.5 784 c 128,-1,50
 850 796 850 796 805 796 c 0,51,52
 711 796 711 796 662 747 c 128,-1,53
 613 698 613 698 613 604 c 0,54,55
 613 504 613 504 665 452.5 c 128,-1,56
 717 401 717 401 818 401 c 0,57,58
 863 401 863 401 910.5 411 c 128,-1,59
 958 421 958 421 1009 446 c 1,60,-1
 1036 342 l 1,61,62
 1020 330 1020 330 994 318.5 c 128,-1,63
 968 307 968 307 936.5 297.5 c 128,-1,64
 905 288 905 288 870.5 282.5 c 128,-1,65
 836 277 836 277 804 277 c 0,66,67
 729 277 729 277 666.5 298.5 c 128,-1,68
 604 320 604 320 560 360.5 c 128,-1,69
 516 401 516 401 491.5 460.5 c 128,-1,70
 467 520 467 520 467 595 c 0,40,41
EndSplineSet
EndChar

StartChar: registered
Encoding: 174 174 133
Width: 1299
Flags: W
LayerCount: 2
Fore
SplineSet
643 715 m 0,0,1
 531 715 531 715 432 752.5 c 128,-1,2
 333 790 333 790 258.5 857.5 c 128,-1,3
 184 925 184 925 140.5 1018 c 128,-1,4
 97 1111 97 1111 97 1223 c 0,5,6
 97 1340 97 1340 140.5 1437 c 128,-1,7
 184 1534 184 1534 260 1604.5 c 128,-1,8
 336 1675 336 1675 437.5 1714 c 128,-1,9
 539 1753 539 1753 656 1753 c 0,10,11
 768 1753 768 1753 867 1715.5 c 128,-1,12
 966 1678 966 1678 1040.5 1610.5 c 128,-1,13
 1115 1543 1115 1543 1158.5 1449.5 c 128,-1,14
 1202 1356 1202 1356 1202 1244 c 0,15,16
 1202 1128 1202 1128 1158.5 1030.5 c 128,-1,17
 1115 933 1115 933 1039 863 c 128,-1,18
 963 793 963 793 861.5 754 c 128,-1,19
 760 715 760 715 643 715 c 0,0,1
656 821 m 0,20,21
 742 821 742 821 818 851.5 c 128,-1,22
 894 882 894 882 951 936 c 128,-1,23
 1008 990 1008 990 1041 1063.5 c 128,-1,24
 1074 1137 1074 1137 1074 1223 c 0,25,26
 1074 1312 1074 1312 1040 1389.5 c 128,-1,27
 1006 1467 1006 1467 947.5 1524.5 c 128,-1,28
 889 1582 889 1582 810.5 1615 c 128,-1,29
 732 1648 732 1648 643 1648 c 0,30,31
 557 1648 557 1648 481 1617 c 128,-1,32
 405 1586 405 1586 348 1532 c 128,-1,33
 291 1478 291 1478 258 1404 c 128,-1,34
 225 1330 225 1330 225 1244 c 0,35,36
 225 1155 225 1155 259 1078 c 128,-1,37
 293 1001 293 1001 351.5 944 c 128,-1,38
 410 887 410 887 488.5 854 c 128,-1,39
 567 821 567 821 656 821 c 0,20,21
419 1505 m 1,40,-1
 651 1505 l 2,41,42
 705 1505 705 1505 754 1496 c 128,-1,43
 803 1487 803 1487 839.5 1465.5 c 128,-1,44
 876 1444 876 1444 898 1408 c 128,-1,45
 920 1372 920 1372 920 1318 c 0,46,47
 920 1248 920 1248 886 1205.5 c 128,-1,48
 852 1163 852 1163 796 1141 c 1,49,-1
 886 971 l 1,50,-1
 773 971 l 1,51,-1
 694 1119 l 1,52,53
 680 1118 680 1118 667 1117.5 c 128,-1,54
 654 1117 654 1117 640 1117 c 2,55,-1
 520 1117 l 1,56,-1
 520 971 l 1,57,-1
 419 971 l 1,58,-1
 419 1505 l 1,40,-1
649 1213 m 2,59,60
 682 1213 682 1213 712 1216 c 128,-1,61
 742 1219 742 1219 765.5 1229.5 c 128,-1,62
 789 1240 789 1240 802.5 1259.5 c 128,-1,63
 816 1279 816 1279 816 1312 c 256,64,65
 816 1345 816 1345 800.5 1364.5 c 128,-1,66
 785 1384 785 1384 760.5 1394 c 128,-1,67
 736 1404 736 1404 704 1407 c 128,-1,68
 672 1410 672 1410 639 1410 c 2,69,-1
 520 1410 l 1,70,-1
 520 1213 l 1,71,-1
 649 1213 l 2,59,60
EndSplineSet
EndChar

StartChar: asciicircum
Encoding: 94 94 134
Width: 1288
Flags: W
LayerCount: 2
Fore
SplineSet
65 722 m 1,0,-1
 639 1436 l 1,1,-1
 1223 723 l 1,2,-1
 1116 625 l 1,3,-1
 633 1156 l 1,4,-1
 176 632 l 1,5,-1
 65 722 l 1,0,-1
EndSplineSet
EndChar

StartChar: underscore
Encoding: 95 95 135
Width: 1236
Flags: W
LayerCount: 2
Fore
SplineSet
1129 0 m 1,0,-1
 1129 -154 l 1,1,-1
 107 -154 l 1,2,-1
 107 0 l 1,3,-1
 1129 0 l 1,0,-1
EndSplineSet
EndChar

StartChar: section
Encoding: 167 167 136
Width: 1114
Flags: W
LayerCount: 2
Fore
SplineSet
289 264 m 1,0,1
 354 207 354 207 426.5 176.5 c 128,-1,2
 499 146 499 146 566 146 c 0,3,4
 596 146 596 146 623.5 154 c 128,-1,5
 651 162 651 162 671.5 177.5 c 128,-1,6
 692 193 692 193 704.5 216 c 128,-1,7
 717 239 717 239 717 269 c 0,8,9
 717 308 717 308 692 335 c 128,-1,10
 667 362 667 362 626.5 381.5 c 128,-1,11
 586 401 586 401 533.5 417 c 128,-1,12
 481 433 481 433 427 450 c 128,-1,13
 373 467 373 467 320.5 489 c 128,-1,14
 268 511 268 511 227.5 543 c 128,-1,15
 187 575 187 575 162 620.5 c 128,-1,16
 137 666 137 666 137 730 c 0,17,18
 137 799 137 799 171 860 c 128,-1,19
 205 921 205 921 260 959 c 1,20,21
 233 988 233 988 217 1027 c 128,-1,22
 201 1066 201 1066 201 1117 c 0,23,24
 201 1187 201 1187 231.5 1246 c 128,-1,25
 262 1305 262 1305 313 1347 c 128,-1,26
 364 1389 364 1389 429.5 1412.5 c 128,-1,27
 495 1436 495 1436 566 1436 c 0,28,29
 665 1436 665 1436 751.5 1401 c 128,-1,30
 838 1366 838 1366 918 1300 c 1,31,-1
 825 1152 l 1,32,33
 760 1209 760 1209 687.5 1239.5 c 128,-1,34
 615 1270 615 1270 548 1270 c 0,35,36
 518 1270 518 1270 490.5 1262 c 128,-1,37
 463 1254 463 1254 442.5 1238.5 c 128,-1,38
 422 1223 422 1223 409.5 1200 c 128,-1,39
 397 1177 397 1177 397 1147 c 0,40,41
 397 1108 397 1108 422 1081 c 128,-1,42
 447 1054 447 1054 487.5 1034.5 c 128,-1,43
 528 1015 528 1015 580.5 999 c 128,-1,44
 633 983 633 983 687 966 c 128,-1,45
 741 949 741 949 793.5 927 c 128,-1,46
 846 905 846 905 886.5 873 c 128,-1,47
 927 841 927 841 952 795.5 c 128,-1,48
 977 750 977 750 977 686 c 0,49,50
 977 616 977 616 943 555.5 c 128,-1,51
 909 495 909 495 853 457 c 1,52,53
 881 427 881 427 897 388.5 c 128,-1,54
 913 350 913 350 913 299 c 0,55,56
 913 228 913 228 882.5 169.5 c 128,-1,57
 852 111 852 111 801 69 c 128,-1,58
 750 27 750 27 684 3.5 c 128,-1,59
 618 -20 618 -20 548 -20 c 0,60,61
 449 -20 449 -20 362.5 15 c 128,-1,62
 276 50 276 50 196 116 c 1,63,-1
 289 264 l 1,0,1
333 760 m 0,64,65
 333 727 333 727 350.5 703 c 128,-1,66
 368 679 368 679 398 661 c 128,-1,67
 428 643 428 643 468 628.5 c 128,-1,68
 508 614 508 614 552 600.5 c 128,-1,69
 596 587 596 587 642 572.5 c 128,-1,70
 688 558 688 558 731 539 c 1,71,72
 753 557 753 557 767 587 c 128,-1,73
 781 617 781 617 781 656 c 0,74,75
 781 689 781 689 763.5 712.5 c 128,-1,76
 746 736 746 736 716 754.5 c 128,-1,77
 686 773 686 773 646 787 c 128,-1,78
 606 801 606 801 562 815 c 128,-1,79
 518 829 518 829 471.5 843.5 c 128,-1,80
 425 858 425 858 383 877 c 1,81,82
 361 859 361 859 347 829 c 128,-1,83
 333 799 333 799 333 760 c 0,64,65
EndSplineSet
EndChar

StartChar: acute
Encoding: 180 180 137
Width: 598
Flags: W
LayerCount: 2
Fore
SplineSet
86 1235 m 1,0,-1
 419 1521 l 1,1,-1
 535 1405 l 1,2,-1
 179 1145 l 1,3,-1
 86 1235 l 1,0,-1
EndSplineSet
EndChar

StartChar: grave
Encoding: 96 96 138
Width: 591
Flags: W
LayerCount: 2
Fore
SplineSet
60 1408 m 1,0,-1
 174 1525 l 1,1,-1
 507 1239 l 1,2,-1
 416 1148 l 1,3,-1
 60 1408 l 1,0,-1
EndSplineSet
EndChar

StartChar: tilde
Encoding: 732 732 139
Width: 598
Flags: W
LayerCount: 2
Fore
SplineSet
-67 1270 m 1,0,1
 -44 1322 -44 1322 -7 1362 c 0,2,3
 9 1379 9 1379 29 1395.5 c 128,-1,4
 49 1412 49 1412 74 1425 c 128,-1,5
 99 1438 99 1438 128.5 1446 c 128,-1,6
 158 1454 158 1454 193 1454 c 0,7,8
 233 1454 233 1454 267.5 1436.5 c 128,-1,9
 302 1419 302 1419 331 1398.5 c 128,-1,10
 360 1378 360 1378 385 1360.5 c 128,-1,11
 410 1343 410 1343 433 1343 c 0,12,13
 463 1343 463 1343 488 1360 c 128,-1,14
 513 1377 513 1377 531 1398 c 0,15,16
 552 1423 552 1423 570 1454 c 1,17,-1
 666 1395 l 1,18,19
 642 1340 642 1340 606 1297 c 0,20,21
 590 1279 590 1279 570 1261 c 128,-1,22
 550 1243 550 1243 525.5 1229.5 c 128,-1,23
 501 1216 501 1216 471.5 1207.5 c 128,-1,24
 442 1199 442 1199 407 1199 c 0,25,26
 366 1199 366 1199 332 1216.5 c 128,-1,27
 298 1234 298 1234 269 1254.5 c 128,-1,28
 240 1275 240 1275 214.5 1292.5 c 128,-1,29
 189 1310 189 1310 167 1310 c 0,30,31
 137 1310 137 1310 111.5 1292.5 c 128,-1,32
 86 1275 86 1275 68 1254 c 0,33,34
 47 1229 47 1229 30 1199 c 1,35,-1
 -67 1270 l 1,0,1
EndSplineSet
EndChar

StartChar: asciitilde
Encoding: 126 126 140
Width: 1288
Flags: W
LayerCount: 2
Fore
SplineSet
157 910 m 1,0,1
 190 989 190 989 238 1051 c 0,2,3
 258 1077 258 1077 283.5 1102.5 c 128,-1,4
 309 1128 309 1128 339.5 1148 c 128,-1,5
 370 1168 370 1168 405.5 1180 c 128,-1,6
 441 1192 441 1192 482 1192 c 0,7,8
 521 1192 521 1192 554.5 1178.5 c 128,-1,9
 588 1165 588 1165 617 1145 c 128,-1,10
 646 1125 646 1125 671.5 1101.5 c 128,-1,11
 697 1078 697 1078 721.5 1058 c 128,-1,12
 746 1038 746 1038 770.5 1024.5 c 128,-1,13
 795 1011 795 1011 822 1011 c 0,14,15
 844 1011 844 1011 864.5 1018 c 128,-1,16
 885 1025 885 1025 903 1037 c 128,-1,17
 921 1049 921 1049 937 1064.5 c 128,-1,18
 953 1080 953 1080 966 1096 c 0,19,20
 996 1134 996 1134 1020 1182 c 1,21,-1
 1131 1126 l 1,22,23
 1094 1050 1094 1050 1044 990 c 0,24,25
 1023 964 1023 964 996.5 940 c 128,-1,26
 970 916 970 916 939 897 c 128,-1,27
 908 878 908 878 872 866.5 c 128,-1,28
 836 855 836 855 796 855 c 256,29,30
 756 855 756 855 723 868.5 c 128,-1,31
 690 882 690 882 661 902 c 128,-1,32
 632 922 632 922 606.5 945.5 c 128,-1,33
 581 969 581 969 556.5 989 c 128,-1,34
 532 1009 532 1009 507 1022.5 c 128,-1,35
 482 1036 482 1036 456 1036 c 0,36,37
 433 1036 433 1036 413 1028 c 128,-1,38
 393 1020 393 1020 376 1007.5 c 128,-1,39
 359 995 359 995 344 978.5 c 128,-1,40
 329 962 329 962 317 945 c 0,41,42
 289 905 289 905 268 855 c 1,43,-1
 157 910 l 1,0,1
EndSplineSet
EndChar

StartChar: dieresis
Encoding: 168 168 141
Width: 598
Flags: W
LayerCount: 2
Fore
SplineSet
495 1222 m 256,0,1
 450 1222 450 1222 419.5 1252.5 c 128,-1,2
 389 1283 389 1283 389 1328 c 256,3,4
 389 1373 389 1373 419.5 1403.5 c 128,-1,5
 450 1434 450 1434 495 1434 c 256,6,7
 540 1434 540 1434 570.5 1403.5 c 128,-1,8
 601 1373 601 1373 601 1328 c 256,9,10
 601 1283 601 1283 570.5 1252.5 c 128,-1,11
 540 1222 540 1222 495 1222 c 256,0,1
103 1222 m 256,12,13
 58 1222 58 1222 27.5 1252.5 c 128,-1,14
 -3 1283 -3 1283 -3 1328 c 256,15,16
 -3 1373 -3 1373 27.5 1403.5 c 128,-1,17
 58 1434 58 1434 103 1434 c 256,18,19
 148 1434 148 1434 178.5 1403.5 c 128,-1,20
 209 1373 209 1373 209 1328 c 256,21,22
 209 1283 209 1283 178.5 1252.5 c 128,-1,23
 148 1222 148 1222 103 1222 c 256,12,13
EndSplineSet
EndChar

StartChar: cedilla
Encoding: 184 184 142
Width: 598
Flags: W
LayerCount: 2
Fore
SplineSet
334 -15 m 1,0,1
 326 -33 326 -33 320 -49 c 0,2,3
 314 -63 314 -63 308.5 -77 c 128,-1,4
 303 -91 303 -91 301 -100 c 1,5,6
 365 -116 365 -116 401.5 -154 c 128,-1,7
 438 -192 438 -192 438 -249 c 0,8,9
 438 -283 438 -283 417.5 -317.5 c 128,-1,10
 397 -352 397 -352 365.5 -383.5 c 128,-1,11
 334 -415 334 -415 295.5 -441.5 c 128,-1,12
 257 -468 257 -468 220 -486 c 1,13,-1
 146 -411 l 1,14,15
 166 -396 166 -396 186.5 -379.5 c 128,-1,16
 207 -363 207 -363 223.5 -346 c 128,-1,17
 240 -329 240 -329 250.5 -312 c 128,-1,18
 261 -295 261 -295 261 -279 c 0,19,20
 261 -266 261 -266 250 -255 c 128,-1,21
 239 -244 239 -244 221.5 -235 c 128,-1,22
 204 -226 204 -226 183.5 -219.5 c 128,-1,23
 163 -213 163 -213 144 -209 c 1,24,25
 150 -186 150 -186 159.5 -158.5 c 128,-1,26
 169 -131 169 -131 180.5 -103.5 c 128,-1,27
 192 -76 192 -76 204 -49.5 c 128,-1,28
 216 -23 216 -23 227 -3 c 1,29,-1
 334 -15 l 1,0,1
EndSplineSet
EndChar

StartChar: circumflex
Encoding: 710 710 143
Width: 598
Flags: W
LayerCount: 2
Fore
SplineSet
-11 1232 m 1,0,-1
 299 1526 l 1,1,-1
 607 1234 l 1,2,-1
 514 1145 l 1,3,-1
 293 1330 l 1,4,-1
 80 1145 l 1,5,-1
 -11 1232 l 1,0,-1
EndSplineSet
EndChar

StartChar: macron
Encoding: 175 175 144
Width: 598
Flags: W
LayerCount: 2
Fore
SplineSet
-23 1400 m 1,0,-1
 621 1400 l 1,1,-1
 621 1260 l 1,2,-1
 -23 1260 l 1,3,-1
 -23 1400 l 1,0,-1
EndSplineSet
EndChar

StartChar: ae
Encoding: 230 230 145
Width: 1809
Flags: W
LayerCount: 2
Fore
SplineSet
101 263 m 0,0,1
 101 336 101 336 127 393 c 128,-1,2
 153 450 153 450 200 493 c 128,-1,3
 247 536 247 536 312 567 c 128,-1,4
 377 598 377 598 454.5 617.5 c 128,-1,5
 532 637 532 637 619 646.5 c 128,-1,6
 706 656 706 656 798 658 c 1,7,8
 796 717 796 717 777 756 c 128,-1,9
 758 795 758 795 723 818 c 128,-1,10
 688 841 688 841 638.5 850.5 c 128,-1,11
 589 860 589 860 528 860 c 0,12,13
 501 860 501 860 467 856 c 128,-1,14
 433 852 433 852 397 845 c 128,-1,15
 361 838 361 838 326 828.5 c 128,-1,16
 291 819 291 819 263 808 c 1,17,-1
 210 950 l 1,18,19
 248 969 248 969 292 982 c 128,-1,20
 336 995 336 995 380.5 1003.5 c 128,-1,21
 425 1012 425 1012 468 1016 c 128,-1,22
 511 1020 511 1020 548 1020 c 0,23,24
 678 1020 678 1020 778 982 c 128,-1,25
 878 944 878 944 935 859 c 1,26,27
 1004 935 1004 935 1099.5 977.5 c 128,-1,28
 1195 1020 1195 1020 1310 1020 c 0,29,30
 1397 1020 1397 1020 1471 993 c 128,-1,31
 1545 966 1545 966 1598.5 912.5 c 128,-1,32
 1652 859 1652 859 1682.5 778.5 c 128,-1,33
 1713 698 1713 698 1713 591 c 0,34,35
 1713 546 1713 546 1706 494 c 128,-1,36
 1699 442 1699 442 1692 400 c 1,37,-1
 997 400 l 1,38,39
 1019 279 1019 279 1095 209.5 c 128,-1,40
 1171 140 1171 140 1310 140 c 0,41,42
 1354 140 1354 140 1400.5 145.5 c 128,-1,43
 1447 151 1447 151 1492 160 c 128,-1,44
 1537 169 1537 169 1578 181.5 c 128,-1,45
 1619 194 1619 194 1651 208 c 1,46,-1
 1683 65 l 1,47,48
 1647 44 1647 44 1598.5 28.5 c 128,-1,49
 1550 13 1550 13 1496.5 2 c 128,-1,50
 1443 -9 1443 -9 1389.5 -14.5 c 128,-1,51
 1336 -20 1336 -20 1291 -20 c 0,52,53
 1140 -20 1140 -20 1037.5 28 c 128,-1,54
 935 76 935 76 876 170 c 1,55,56
 837 136 837 136 790 102 c 128,-1,57
 743 68 743 68 687 41 c 128,-1,58
 631 14 631 14 566 -3 c 128,-1,59
 501 -20 501 -20 428 -20 c 0,60,61
 366 -20 366 -20 307 -1 c 128,-1,62
 248 18 248 18 202.5 54.5 c 128,-1,63
 157 91 157 91 129 143.5 c 128,-1,64
 101 196 101 196 101 263 c 0,0,1
1531 547 m 1,65,66
 1531 551 1531 551 1532 558.5 c 128,-1,67
 1533 566 1533 566 1534 574.5 c 128,-1,68
 1535 583 1535 583 1535.5 590 c 128,-1,69
 1536 597 1536 597 1536 601 c 0,70,71
 1536 657 1536 657 1521 705 c 128,-1,72
 1506 753 1506 753 1475.5 788.5 c 128,-1,73
 1445 824 1445 824 1399 844 c 128,-1,74
 1353 864 1353 864 1292 864 c 0,75,76
 1225 864 1225 864 1171.5 839 c 128,-1,77
 1118 814 1118 814 1079 771 c 128,-1,78
 1040 728 1040 728 1017 670 c 128,-1,79
 994 612 994 612 989 547 c 1,80,-1
 1531 547 l 1,65,66
291 276 m 0,81,82
 291 243 291 243 304.5 217.5 c 128,-1,83
 318 192 318 192 340 175 c 128,-1,84
 362 158 362 158 390 149 c 128,-1,85
 418 140 418 140 446 140 c 0,86,87
 508 140 508 140 565.5 156.5 c 128,-1,88
 623 173 623 173 671.5 198.5 c 128,-1,89
 720 224 720 224 757.5 255.5 c 128,-1,90
 795 287 795 287 817 316 c 1,91,92
 798 396 798 396 798 498 c 2,93,-1
 798 509 l 1,94,95
 696 504 696 504 604 491.5 c 128,-1,96
 512 479 512 479 442.5 452.5 c 128,-1,97
 373 426 373 426 332 383.5 c 128,-1,98
 291 341 291 341 291 276 c 0,81,82
EndSplineSet
EndChar

StartChar: agrave
Encoding: 224 224 146
Width: 1201
Flags: W
LayerCount: 2
Fore
SplineSet
280 1408 m 1,0,-1
 394 1525 l 1,1,-1
 727 1239 l 1,2,-1
 636 1148 l 1,3,-1
 280 1408 l 1,0,-1
112 263 m 0,4,5
 112 336 112 336 138 393 c 128,-1,6
 164 450 164 450 211 493 c 128,-1,7
 258 536 258 536 323 567 c 128,-1,8
 388 598 388 598 465.5 617.5 c 128,-1,9
 543 637 543 637 630 646.5 c 128,-1,10
 717 656 717 656 809 658 c 1,11,12
 807 717 807 717 788 756 c 128,-1,13
 769 795 769 795 734 818 c 128,-1,14
 699 841 699 841 649.5 850.5 c 128,-1,15
 600 860 600 860 539 860 c 0,16,17
 512 860 512 860 478 856 c 128,-1,18
 444 852 444 852 408 845 c 128,-1,19
 372 838 372 838 337 828.5 c 128,-1,20
 302 819 302 819 274 808 c 1,21,-1
 221 950 l 1,22,23
 259 969 259 969 303 982 c 128,-1,24
 347 995 347 995 391.5 1003.5 c 128,-1,25
 436 1012 436 1012 479 1016 c 128,-1,26
 522 1020 522 1020 559 1020 c 0,27,28
 653 1020 653 1020 734 999.5 c 128,-1,29
 815 979 815 979 873.5 935 c 128,-1,30
 932 891 932 891 965.5 823 c 128,-1,31
 999 755 999 755 999 661 c 2,32,-1
 999 342 l 2,33,34
 999 298 999 298 1002 262 c 128,-1,35
 1005 226 1005 226 1016.5 198.5 c 128,-1,36
 1028 171 1028 171 1049.5 152 c 128,-1,37
 1071 133 1071 133 1109 123 c 1,38,-1
 1081 0 l 1,39,40
 1029 -6 1029 -6 989 0.5 c 128,-1,41
 949 7 949 7 919.5 24 c 128,-1,42
 890 41 890 41 870 67.5 c 128,-1,43
 850 94 850 94 837 128 c 1,44,45
 811 107 811 107 774 81 c 128,-1,46
 737 55 737 55 688.5 32.5 c 128,-1,47
 640 10 640 10 581 -5 c 128,-1,48
 522 -20 522 -20 452 -20 c 0,49,50
 385 -20 385 -20 323.5 -1 c 128,-1,51
 262 18 262 18 215 54.5 c 128,-1,52
 168 91 168 91 140 143.5 c 128,-1,53
 112 196 112 196 112 263 c 0,4,5
302 276 m 0,54,55
 302 243 302 243 316 217.5 c 128,-1,56
 330 192 330 192 353 175 c 128,-1,57
 376 158 376 158 406.5 149 c 128,-1,58
 437 140 437 140 470 140 c 0,59,60
 526 140 526 140 576.5 153.5 c 128,-1,61
 627 167 627 167 670.5 189 c 128,-1,62
 714 211 714 211 749.5 238.5 c 128,-1,63
 785 266 785 266 809 293 c 1,64,-1
 809 509 l 1,65,66
 707 504 707 504 615 491.5 c 128,-1,67
 523 479 523 479 453.5 452.5 c 128,-1,68
 384 426 384 426 343 383.5 c 128,-1,69
 302 341 302 341 302 276 c 0,54,55
EndSplineSet
EndChar

StartChar: aacute
Encoding: 225 225 147
Width: 1201
Flags: W
LayerCount: 2
Fore
SplineSet
451 1235 m 1,0,-1
 784 1521 l 1,1,-1
 900 1405 l 1,2,-1
 544 1145 l 1,3,-1
 451 1235 l 1,0,-1
112 263 m 0,4,5
 112 336 112 336 138 393 c 128,-1,6
 164 450 164 450 211 493 c 128,-1,7
 258 536 258 536 323 567 c 128,-1,8
 388 598 388 598 465.5 617.5 c 128,-1,9
 543 637 543 637 630 646.5 c 128,-1,10
 717 656 717 656 809 658 c 1,11,12
 807 717 807 717 788 756 c 128,-1,13
 769 795 769 795 734 818 c 128,-1,14
 699 841 699 841 649.5 850.5 c 128,-1,15
 600 860 600 860 539 860 c 0,16,17
 512 860 512 860 478 856 c 128,-1,18
 444 852 444 852 408 845 c 128,-1,19
 372 838 372 838 337 828.5 c 128,-1,20
 302 819 302 819 274 808 c 1,21,-1
 221 950 l 1,22,23
 259 969 259 969 303 982 c 128,-1,24
 347 995 347 995 391.5 1003.5 c 128,-1,25
 436 1012 436 1012 479 1016 c 128,-1,26
 522 1020 522 1020 559 1020 c 0,27,28
 653 1020 653 1020 734 999.5 c 128,-1,29
 815 979 815 979 873.5 935 c 128,-1,30
 932 891 932 891 965.5 823 c 128,-1,31
 999 755 999 755 999 661 c 2,32,-1
 999 342 l 2,33,34
 999 298 999 298 1002 262 c 128,-1,35
 1005 226 1005 226 1016.5 198.5 c 128,-1,36
 1028 171 1028 171 1049.5 152 c 128,-1,37
 1071 133 1071 133 1109 123 c 1,38,-1
 1081 0 l 1,39,40
 1029 -6 1029 -6 989 0.5 c 128,-1,41
 949 7 949 7 919.5 24 c 128,-1,42
 890 41 890 41 870 67.5 c 128,-1,43
 850 94 850 94 837 128 c 1,44,45
 811 107 811 107 774 81 c 128,-1,46
 737 55 737 55 688.5 32.5 c 128,-1,47
 640 10 640 10 581 -5 c 128,-1,48
 522 -20 522 -20 452 -20 c 0,49,50
 385 -20 385 -20 323.5 -1 c 128,-1,51
 262 18 262 18 215 54.5 c 128,-1,52
 168 91 168 91 140 143.5 c 128,-1,53
 112 196 112 196 112 263 c 0,4,5
302 276 m 0,54,55
 302 243 302 243 316 217.5 c 128,-1,56
 330 192 330 192 353 175 c 128,-1,57
 376 158 376 158 406.5 149 c 128,-1,58
 437 140 437 140 470 140 c 0,59,60
 526 140 526 140 576.5 153.5 c 128,-1,61
 627 167 627 167 670.5 189 c 128,-1,62
 714 211 714 211 749.5 238.5 c 128,-1,63
 785 266 785 266 809 293 c 1,64,-1
 809 509 l 1,65,66
 707 504 707 504 615 491.5 c 128,-1,67
 523 479 523 479 453.5 452.5 c 128,-1,68
 384 426 384 426 343 383.5 c 128,-1,69
 302 341 302 341 302 276 c 0,54,55
EndSplineSet
EndChar

StartChar: acircumflex
Encoding: 226 226 148
Width: 1201
Flags: W
LayerCount: 2
Fore
SplineSet
293 1232 m 1,0,-1
 603 1526 l 1,1,-1
 911 1234 l 1,2,-1
 818 1145 l 1,3,-1
 597 1330 l 1,4,-1
 384 1145 l 1,5,-1
 293 1232 l 1,0,-1
112 263 m 0,6,7
 112 336 112 336 138 393 c 128,-1,8
 164 450 164 450 211 493 c 128,-1,9
 258 536 258 536 323 567 c 128,-1,10
 388 598 388 598 465.5 617.5 c 128,-1,11
 543 637 543 637 630 646.5 c 128,-1,12
 717 656 717 656 809 658 c 1,13,14
 807 717 807 717 788 756 c 128,-1,15
 769 795 769 795 734 818 c 128,-1,16
 699 841 699 841 649.5 850.5 c 128,-1,17
 600 860 600 860 539 860 c 0,18,19
 512 860 512 860 478 856 c 128,-1,20
 444 852 444 852 408 845 c 128,-1,21
 372 838 372 838 337 828.5 c 128,-1,22
 302 819 302 819 274 808 c 1,23,-1
 221 950 l 1,24,25
 259 969 259 969 303 982 c 128,-1,26
 347 995 347 995 391.5 1003.5 c 128,-1,27
 436 1012 436 1012 479 1016 c 128,-1,28
 522 1020 522 1020 559 1020 c 0,29,30
 653 1020 653 1020 734 999.5 c 128,-1,31
 815 979 815 979 873.5 935 c 128,-1,32
 932 891 932 891 965.5 823 c 128,-1,33
 999 755 999 755 999 661 c 2,34,-1
 999 342 l 2,35,36
 999 298 999 298 1002 262 c 128,-1,37
 1005 226 1005 226 1016.5 198.5 c 128,-1,38
 1028 171 1028 171 1049.5 152 c 128,-1,39
 1071 133 1071 133 1109 123 c 1,40,-1
 1081 0 l 1,41,42
 1029 -6 1029 -6 989 0.5 c 128,-1,43
 949 7 949 7 919.5 24 c 128,-1,44
 890 41 890 41 870 67.5 c 128,-1,45
 850 94 850 94 837 128 c 1,46,47
 811 107 811 107 774 81 c 128,-1,48
 737 55 737 55 688.5 32.5 c 128,-1,49
 640 10 640 10 581 -5 c 128,-1,50
 522 -20 522 -20 452 -20 c 0,51,52
 385 -20 385 -20 323.5 -1 c 128,-1,53
 262 18 262 18 215 54.5 c 128,-1,54
 168 91 168 91 140 143.5 c 128,-1,55
 112 196 112 196 112 263 c 0,6,7
302 276 m 0,56,57
 302 243 302 243 316 217.5 c 128,-1,58
 330 192 330 192 353 175 c 128,-1,59
 376 158 376 158 406.5 149 c 128,-1,60
 437 140 437 140 470 140 c 0,61,62
 526 140 526 140 576.5 153.5 c 128,-1,63
 627 167 627 167 670.5 189 c 128,-1,64
 714 211 714 211 749.5 238.5 c 128,-1,65
 785 266 785 266 809 293 c 1,66,-1
 809 509 l 1,67,68
 707 504 707 504 615 491.5 c 128,-1,69
 523 479 523 479 453.5 452.5 c 128,-1,70
 384 426 384 426 343 383.5 c 128,-1,71
 302 341 302 341 302 276 c 0,56,57
EndSplineSet
EndChar

StartChar: adieresis
Encoding: 228 228 149
Width: 1201
Flags: W
LayerCount: 2
Fore
SplineSet
798 1222 m 256,0,1
 753 1222 753 1222 722.5 1252.5 c 128,-1,2
 692 1283 692 1283 692 1328 c 256,3,4
 692 1373 692 1373 722.5 1403.5 c 128,-1,5
 753 1434 753 1434 798 1434 c 256,6,7
 843 1434 843 1434 873.5 1403.5 c 128,-1,8
 904 1373 904 1373 904 1328 c 256,9,10
 904 1283 904 1283 873.5 1252.5 c 128,-1,11
 843 1222 843 1222 798 1222 c 256,0,1
406 1222 m 256,12,13
 361 1222 361 1222 330.5 1252.5 c 128,-1,14
 300 1283 300 1283 300 1328 c 256,15,16
 300 1373 300 1373 330.5 1403.5 c 128,-1,17
 361 1434 361 1434 406 1434 c 256,18,19
 451 1434 451 1434 481.5 1403.5 c 128,-1,20
 512 1373 512 1373 512 1328 c 256,21,22
 512 1283 512 1283 481.5 1252.5 c 128,-1,23
 451 1222 451 1222 406 1222 c 256,12,13
112 263 m 0,24,25
 112 336 112 336 138 393 c 128,-1,26
 164 450 164 450 211 493 c 128,-1,27
 258 536 258 536 323 567 c 128,-1,28
 388 598 388 598 465.5 617.5 c 128,-1,29
 543 637 543 637 630 646.5 c 128,-1,30
 717 656 717 656 809 658 c 1,31,32
 807 717 807 717 788 756 c 128,-1,33
 769 795 769 795 734 818 c 128,-1,34
 699 841 699 841 649.5 850.5 c 128,-1,35
 600 860 600 860 539 860 c 0,36,37
 512 860 512 860 478 856 c 128,-1,38
 444 852 444 852 408 845 c 128,-1,39
 372 838 372 838 337 828.5 c 128,-1,40
 302 819 302 819 274 808 c 1,41,-1
 221 950 l 1,42,43
 259 969 259 969 303 982 c 128,-1,44
 347 995 347 995 391.5 1003.5 c 128,-1,45
 436 1012 436 1012 479 1016 c 128,-1,46
 522 1020 522 1020 559 1020 c 0,47,48
 653 1020 653 1020 734 999.5 c 128,-1,49
 815 979 815 979 873.5 935 c 128,-1,50
 932 891 932 891 965.5 823 c 128,-1,51
 999 755 999 755 999 661 c 2,52,-1
 999 342 l 2,53,54
 999 298 999 298 1002 262 c 128,-1,55
 1005 226 1005 226 1016.5 198.5 c 128,-1,56
 1028 171 1028 171 1049.5 152 c 128,-1,57
 1071 133 1071 133 1109 123 c 1,58,-1
 1081 0 l 1,59,60
 1029 -6 1029 -6 989 0.5 c 128,-1,61
 949 7 949 7 919.5 24 c 128,-1,62
 890 41 890 41 870 67.5 c 128,-1,63
 850 94 850 94 837 128 c 1,64,65
 811 107 811 107 774 81 c 128,-1,66
 737 55 737 55 688.5 32.5 c 128,-1,67
 640 10 640 10 581 -5 c 128,-1,68
 522 -20 522 -20 452 -20 c 0,69,70
 385 -20 385 -20 323.5 -1 c 128,-1,71
 262 18 262 18 215 54.5 c 128,-1,72
 168 91 168 91 140 143.5 c 128,-1,73
 112 196 112 196 112 263 c 0,24,25
302 276 m 0,74,75
 302 243 302 243 316 217.5 c 128,-1,76
 330 192 330 192 353 175 c 128,-1,77
 376 158 376 158 406.5 149 c 128,-1,78
 437 140 437 140 470 140 c 0,79,80
 526 140 526 140 576.5 153.5 c 128,-1,81
 627 167 627 167 670.5 189 c 128,-1,82
 714 211 714 211 749.5 238.5 c 128,-1,83
 785 266 785 266 809 293 c 1,84,-1
 809 509 l 1,85,86
 707 504 707 504 615 491.5 c 128,-1,87
 523 479 523 479 453.5 452.5 c 128,-1,88
 384 426 384 426 343 383.5 c 128,-1,89
 302 341 302 341 302 276 c 0,74,75
EndSplineSet
EndChar

StartChar: atilde
Encoding: 227 227 150
Width: 1201
Flags: W
LayerCount: 2
Fore
SplineSet
236 1270 m 1,0,1
 259 1322 259 1322 296 1362 c 0,2,3
 312 1379 312 1379 332 1395.5 c 128,-1,4
 352 1412 352 1412 377 1425 c 128,-1,5
 402 1438 402 1438 431.5 1446 c 128,-1,6
 461 1454 461 1454 496 1454 c 0,7,8
 536 1454 536 1454 570.5 1436.5 c 128,-1,9
 605 1419 605 1419 634 1398.5 c 128,-1,10
 663 1378 663 1378 688 1360.5 c 128,-1,11
 713 1343 713 1343 736 1343 c 0,12,13
 766 1343 766 1343 791 1360 c 128,-1,14
 816 1377 816 1377 834 1398 c 0,15,16
 855 1423 855 1423 873 1454 c 1,17,-1
 969 1395 l 1,18,19
 945 1340 945 1340 909 1297 c 0,20,21
 893 1279 893 1279 873 1261 c 128,-1,22
 853 1243 853 1243 828.5 1229.5 c 128,-1,23
 804 1216 804 1216 774.5 1207.5 c 128,-1,24
 745 1199 745 1199 710 1199 c 0,25,26
 669 1199 669 1199 635 1216.5 c 128,-1,27
 601 1234 601 1234 572 1254.5 c 128,-1,28
 543 1275 543 1275 517.5 1292.5 c 128,-1,29
 492 1310 492 1310 470 1310 c 0,30,31
 440 1310 440 1310 414.5 1292.5 c 128,-1,32
 389 1275 389 1275 371 1254 c 0,33,34
 350 1229 350 1229 333 1199 c 1,35,-1
 236 1270 l 1,0,1
112 263 m 0,36,37
 112 336 112 336 138 393 c 128,-1,38
 164 450 164 450 211 493 c 128,-1,39
 258 536 258 536 323 567 c 128,-1,40
 388 598 388 598 465.5 617.5 c 128,-1,41
 543 637 543 637 630 646.5 c 128,-1,42
 717 656 717 656 809 658 c 1,43,44
 807 717 807 717 788 756 c 128,-1,45
 769 795 769 795 734 818 c 128,-1,46
 699 841 699 841 649.5 850.5 c 128,-1,47
 600 860 600 860 539 860 c 0,48,49
 512 860 512 860 478 856 c 128,-1,50
 444 852 444 852 408 845 c 128,-1,51
 372 838 372 838 337 828.5 c 128,-1,52
 302 819 302 819 274 808 c 1,53,-1
 221 950 l 1,54,55
 259 969 259 969 303 982 c 128,-1,56
 347 995 347 995 391.5 1003.5 c 128,-1,57
 436 1012 436 1012 479 1016 c 128,-1,58
 522 1020 522 1020 559 1020 c 0,59,60
 653 1020 653 1020 734 999.5 c 128,-1,61
 815 979 815 979 873.5 935 c 128,-1,62
 932 891 932 891 965.5 823 c 128,-1,63
 999 755 999 755 999 661 c 2,64,-1
 999 342 l 2,65,66
 999 298 999 298 1002 262 c 128,-1,67
 1005 226 1005 226 1016.5 198.5 c 128,-1,68
 1028 171 1028 171 1049.5 152 c 128,-1,69
 1071 133 1071 133 1109 123 c 1,70,-1
 1081 0 l 1,71,72
 1029 -6 1029 -6 989 0.5 c 128,-1,73
 949 7 949 7 919.5 24 c 128,-1,74
 890 41 890 41 870 67.5 c 128,-1,75
 850 94 850 94 837 128 c 1,76,77
 811 107 811 107 774 81 c 128,-1,78
 737 55 737 55 688.5 32.5 c 128,-1,79
 640 10 640 10 581 -5 c 128,-1,80
 522 -20 522 -20 452 -20 c 0,81,82
 385 -20 385 -20 323.5 -1 c 128,-1,83
 262 18 262 18 215 54.5 c 128,-1,84
 168 91 168 91 140 143.5 c 128,-1,85
 112 196 112 196 112 263 c 0,36,37
302 276 m 0,86,87
 302 243 302 243 316 217.5 c 128,-1,88
 330 192 330 192 353 175 c 128,-1,89
 376 158 376 158 406.5 149 c 128,-1,90
 437 140 437 140 470 140 c 0,91,92
 526 140 526 140 576.5 153.5 c 128,-1,93
 627 167 627 167 670.5 189 c 128,-1,94
 714 211 714 211 749.5 238.5 c 128,-1,95
 785 266 785 266 809 293 c 1,96,-1
 809 509 l 1,97,98
 707 504 707 504 615 491.5 c 128,-1,99
 523 479 523 479 453.5 452.5 c 128,-1,100
 384 426 384 426 343 383.5 c 128,-1,101
 302 341 302 341 302 276 c 0,86,87
EndSplineSet
EndChar

StartChar: aring
Encoding: 229 229 151
Width: 1201
Flags: W
LayerCount: 2
Fore
SplineSet
595 1143 m 0,0,1
 546 1143 546 1143 505.5 1156.5 c 128,-1,2
 465 1170 465 1170 436 1196 c 128,-1,3
 407 1222 407 1222 391 1259.5 c 128,-1,4
 375 1297 375 1297 375 1346 c 0,5,6
 375 1392 375 1392 394 1431.5 c 128,-1,7
 413 1471 413 1471 445.5 1500 c 128,-1,8
 478 1529 478 1529 520 1545 c 128,-1,9
 562 1561 562 1561 609 1561 c 0,10,11
 658 1561 658 1561 698.5 1547 c 128,-1,12
 739 1533 739 1533 768 1506.5 c 128,-1,13
 797 1480 797 1480 813.5 1442 c 128,-1,14
 830 1404 830 1404 830 1355 c 0,15,16
 830 1308 830 1308 810.5 1269.5 c 128,-1,17
 791 1231 791 1231 759 1202.5 c 128,-1,18
 727 1174 727 1174 684 1158.5 c 128,-1,19
 641 1143 641 1143 595 1143 c 0,0,1
609 1244 m 0,20,21
 654 1244 654 1244 684 1272.5 c 128,-1,22
 714 1301 714 1301 714 1346 c 0,23,24
 714 1399 714 1399 681 1429.5 c 128,-1,25
 648 1460 648 1460 595 1460 c 0,26,27
 550 1460 550 1460 520.5 1430 c 128,-1,28
 491 1400 491 1400 491 1355 c 0,29,30
 491 1302 491 1302 523.5 1273 c 128,-1,31
 556 1244 556 1244 609 1244 c 0,20,21
112 263 m 0,32,33
 112 336 112 336 138 393 c 128,-1,34
 164 450 164 450 211 493 c 128,-1,35
 258 536 258 536 323 567 c 128,-1,36
 388 598 388 598 465.5 617.5 c 128,-1,37
 543 637 543 637 630 646.5 c 128,-1,38
 717 656 717 656 809 658 c 1,39,40
 807 717 807 717 788 756 c 128,-1,41
 769 795 769 795 734 818 c 128,-1,42
 699 841 699 841 649.5 850.5 c 128,-1,43
 600 860 600 860 539 860 c 0,44,45
 512 860 512 860 478 856 c 128,-1,46
 444 852 444 852 408 845 c 128,-1,47
 372 838 372 838 337 828.5 c 128,-1,48
 302 819 302 819 274 808 c 1,49,-1
 221 950 l 1,50,51
 259 969 259 969 303 982 c 128,-1,52
 347 995 347 995 391.5 1003.5 c 128,-1,53
 436 1012 436 1012 479 1016 c 128,-1,54
 522 1020 522 1020 559 1020 c 0,55,56
 653 1020 653 1020 734 999.5 c 128,-1,57
 815 979 815 979 873.5 935 c 128,-1,58
 932 891 932 891 965.5 823 c 128,-1,59
 999 755 999 755 999 661 c 2,60,-1
 999 342 l 2,61,62
 999 298 999 298 1002 262 c 128,-1,63
 1005 226 1005 226 1016.5 198.5 c 128,-1,64
 1028 171 1028 171 1049.5 152 c 128,-1,65
 1071 133 1071 133 1109 123 c 1,66,-1
 1081 0 l 1,67,68
 1029 -6 1029 -6 989 0.5 c 128,-1,69
 949 7 949 7 919.5 24 c 128,-1,70
 890 41 890 41 870 67.5 c 128,-1,71
 850 94 850 94 837 128 c 1,72,73
 811 107 811 107 774 81 c 128,-1,74
 737 55 737 55 688.5 32.5 c 128,-1,75
 640 10 640 10 581 -5 c 128,-1,76
 522 -20 522 -20 452 -20 c 0,77,78
 385 -20 385 -20 323.5 -1 c 128,-1,79
 262 18 262 18 215 54.5 c 128,-1,80
 168 91 168 91 140 143.5 c 128,-1,81
 112 196 112 196 112 263 c 0,32,33
302 276 m 0,82,83
 302 243 302 243 316 217.5 c 128,-1,84
 330 192 330 192 353 175 c 128,-1,85
 376 158 376 158 406.5 149 c 128,-1,86
 437 140 437 140 470 140 c 0,87,88
 526 140 526 140 576.5 153.5 c 128,-1,89
 627 167 627 167 670.5 189 c 128,-1,90
 714 211 714 211 749.5 238.5 c 128,-1,91
 785 266 785 266 809 293 c 1,92,-1
 809 509 l 1,93,94
 707 504 707 504 615 491.5 c 128,-1,95
 523 479 523 479 453.5 452.5 c 128,-1,96
 384 426 384 426 343 383.5 c 128,-1,97
 302 341 302 341 302 276 c 0,82,83
EndSplineSet
EndChar

StartChar: ccedilla
Encoding: 231 231 152
Width: 990
Flags: W
LayerCount: 2
Fore
SplineSet
429 -209 m 1,0,1
 434 -188 434 -188 443 -162.5 c 128,-1,2
 452 -137 452 -137 462.5 -111 c 128,-1,3
 473 -85 473 -85 484 -60 c 128,-1,4
 495 -35 495 -35 506 -15 c 1,5,6
 407 -3 407 -3 330.5 38.5 c 128,-1,7
 254 80 254 80 201.5 146.5 c 128,-1,8
 149 213 149 213 122 302 c 128,-1,9
 95 391 95 391 95 498 c 0,10,11
 95 608 95 608 133.5 703.5 c 128,-1,12
 172 799 172 799 240.5 869.5 c 128,-1,13
 309 940 309 940 403 980 c 128,-1,14
 497 1020 497 1020 607 1020 c 0,15,16
 702 1020 702 1020 780 1000.5 c 128,-1,17
 858 981 858 981 929 929 c 1,18,-1
 863 780 l 1,19,20
 812 818 812 818 741 841 c 128,-1,21
 670 864 670 864 589 864 c 0,22,23
 518 864 518 864 461.5 835.5 c 128,-1,24
 405 807 405 807 366 758.5 c 128,-1,25
 327 710 327 710 306 645.5 c 128,-1,26
 285 581 285 581 285 510 c 0,27,28
 285 433 285 433 306.5 366 c 128,-1,29
 328 299 328 299 369.5 248.5 c 128,-1,30
 411 198 411 198 470.5 169 c 128,-1,31
 530 140 530 140 607 140 c 0,32,33
 695 140 695 140 769.5 158 c 128,-1,34
 844 176 844 176 921 214 c 1,35,-1
 956 73 l 1,36,37
 924 49 924 49 883 32.5 c 128,-1,38
 842 16 842 16 797 4.5 c 128,-1,39
 752 -7 752 -7 705.5 -12.5 c 128,-1,40
 659 -18 659 -18 616 -19 c 1,41,42
 614 -24 614 -24 610 -34.5 c 128,-1,43
 606 -45 606 -45 601 -57 c 128,-1,44
 596 -69 596 -69 592 -80.5 c 128,-1,45
 588 -92 588 -92 586 -100 c 1,46,47
 650 -116 650 -116 686.5 -154 c 128,-1,48
 723 -192 723 -192 723 -249 c 0,49,50
 723 -283 723 -283 702.5 -317.5 c 128,-1,51
 682 -352 682 -352 650.5 -383.5 c 128,-1,52
 619 -415 619 -415 580.5 -441.5 c 128,-1,53
 542 -468 542 -468 505 -486 c 1,54,-1
 431 -411 l 1,55,56
 451 -396 451 -396 471.5 -379.5 c 128,-1,57
 492 -363 492 -363 508.5 -346 c 128,-1,58
 525 -329 525 -329 535.5 -312 c 128,-1,59
 546 -295 546 -295 546 -279 c 0,60,61
 546 -266 546 -266 535 -255 c 128,-1,62
 524 -244 524 -244 506.5 -235 c 128,-1,63
 489 -226 489 -226 468.5 -219.5 c 128,-1,64
 448 -213 448 -213 429 -209 c 1,0,1
EndSplineSet
EndChar

StartChar: egrave
Encoding: 232 232 153
Width: 1106
Flags: W
LayerCount: 2
Fore
SplineSet
283 1408 m 1,0,-1
 397 1525 l 1,1,-1
 730 1239 l 1,2,-1
 639 1148 l 1,3,-1
 283 1408 l 1,0,-1
294 400 m 1,4,5
 316 279 316 279 392 209.5 c 128,-1,6
 468 140 468 140 607 140 c 0,7,8
 651 140 651 140 697.5 145.5 c 128,-1,9
 744 151 744 151 789 160 c 128,-1,10
 834 169 834 169 875 181.5 c 128,-1,11
 916 194 916 194 948 208 c 1,12,-1
 980 65 l 1,13,14
 944 44 944 44 895.5 28.5 c 128,-1,15
 847 13 847 13 793.5 2 c 128,-1,16
 740 -9 740 -9 686.5 -14.5 c 128,-1,17
 633 -20 633 -20 588 -20 c 0,18,19
 463 -20 463 -20 370 14 c 128,-1,20
 277 48 277 48 216 114 c 128,-1,21
 155 180 155 180 125 276.5 c 128,-1,22
 95 373 95 373 95 498 c 0,23,24
 95 608 95 608 133.5 703.5 c 128,-1,25
 172 799 172 799 240.5 869.5 c 128,-1,26
 309 940 309 940 403 980 c 128,-1,27
 497 1020 497 1020 607 1020 c 0,28,29
 694 1020 694 1020 768 993 c 128,-1,30
 842 966 842 966 895.5 912.5 c 128,-1,31
 949 859 949 859 979.5 778.5 c 128,-1,32
 1010 698 1010 698 1010 591 c 0,33,34
 1010 546 1010 546 1003.5 494 c 128,-1,35
 997 442 997 442 990 400 c 1,36,-1
 294 400 l 1,4,5
829 547 m 1,37,38
 829 551 829 551 830 558.5 c 128,-1,39
 831 566 831 566 831.5 574.5 c 128,-1,40
 832 583 832 583 832.5 590 c 128,-1,41
 833 597 833 597 833 601 c 0,42,43
 833 657 833 657 818 705 c 128,-1,44
 803 753 803 753 772.5 788.5 c 128,-1,45
 742 824 742 824 696 844 c 128,-1,46
 650 864 650 864 589 864 c 0,47,48
 522 864 522 864 468.5 839 c 128,-1,49
 415 814 415 814 376 771 c 128,-1,50
 337 728 337 728 314 670 c 128,-1,51
 291 612 291 612 286 547 c 1,52,-1
 829 547 l 1,37,38
EndSplineSet
EndChar

StartChar: eacute
Encoding: 233 233 154
Width: 1106
Flags: W
LayerCount: 2
Fore
SplineSet
421 1235 m 1,0,-1
 754 1521 l 1,1,-1
 870 1405 l 1,2,-1
 514 1145 l 1,3,-1
 421 1235 l 1,0,-1
294 400 m 1,4,5
 316 279 316 279 392 209.5 c 128,-1,6
 468 140 468 140 607 140 c 0,7,8
 651 140 651 140 697.5 145.5 c 128,-1,9
 744 151 744 151 789 160 c 128,-1,10
 834 169 834 169 875 181.5 c 128,-1,11
 916 194 916 194 948 208 c 1,12,-1
 980 65 l 1,13,14
 944 44 944 44 895.5 28.5 c 128,-1,15
 847 13 847 13 793.5 2 c 128,-1,16
 740 -9 740 -9 686.5 -14.5 c 128,-1,17
 633 -20 633 -20 588 -20 c 0,18,19
 463 -20 463 -20 370 14 c 128,-1,20
 277 48 277 48 216 114 c 128,-1,21
 155 180 155 180 125 276.5 c 128,-1,22
 95 373 95 373 95 498 c 0,23,24
 95 608 95 608 133.5 703.5 c 128,-1,25
 172 799 172 799 240.5 869.5 c 128,-1,26
 309 940 309 940 403 980 c 128,-1,27
 497 1020 497 1020 607 1020 c 0,28,29
 694 1020 694 1020 768 993 c 128,-1,30
 842 966 842 966 895.5 912.5 c 128,-1,31
 949 859 949 859 979.5 778.5 c 128,-1,32
 1010 698 1010 698 1010 591 c 0,33,34
 1010 546 1010 546 1003.5 494 c 128,-1,35
 997 442 997 442 990 400 c 1,36,-1
 294 400 l 1,4,5
829 547 m 1,37,38
 829 551 829 551 830 558.5 c 128,-1,39
 831 566 831 566 831.5 574.5 c 128,-1,40
 832 583 832 583 832.5 590 c 128,-1,41
 833 597 833 597 833 601 c 0,42,43
 833 657 833 657 818 705 c 128,-1,44
 803 753 803 753 772.5 788.5 c 128,-1,45
 742 824 742 824 696 844 c 128,-1,46
 650 864 650 864 589 864 c 0,47,48
 522 864 522 864 468.5 839 c 128,-1,49
 415 814 415 814 376 771 c 128,-1,50
 337 728 337 728 314 670 c 128,-1,51
 291 612 291 612 286 547 c 1,52,-1
 829 547 l 1,37,38
EndSplineSet
EndChar

StartChar: ecircumflex
Encoding: 234 234 155
Width: 1106
Flags: W
LayerCount: 2
Fore
SplineSet
295 1232 m 1,0,-1
 605 1526 l 1,1,-1
 913 1234 l 1,2,-1
 820 1145 l 1,3,-1
 599 1330 l 1,4,-1
 386 1145 l 1,5,-1
 295 1232 l 1,0,-1
294 400 m 1,6,7
 316 279 316 279 392 209.5 c 128,-1,8
 468 140 468 140 607 140 c 0,9,10
 651 140 651 140 697.5 145.5 c 128,-1,11
 744 151 744 151 789 160 c 128,-1,12
 834 169 834 169 875 181.5 c 128,-1,13
 916 194 916 194 948 208 c 1,14,-1
 980 65 l 1,15,16
 944 44 944 44 895.5 28.5 c 128,-1,17
 847 13 847 13 793.5 2 c 128,-1,18
 740 -9 740 -9 686.5 -14.5 c 128,-1,19
 633 -20 633 -20 588 -20 c 0,20,21
 463 -20 463 -20 370 14 c 128,-1,22
 277 48 277 48 216 114 c 128,-1,23
 155 180 155 180 125 276.5 c 128,-1,24
 95 373 95 373 95 498 c 0,25,26
 95 608 95 608 133.5 703.5 c 128,-1,27
 172 799 172 799 240.5 869.5 c 128,-1,28
 309 940 309 940 403 980 c 128,-1,29
 497 1020 497 1020 607 1020 c 0,30,31
 694 1020 694 1020 768 993 c 128,-1,32
 842 966 842 966 895.5 912.5 c 128,-1,33
 949 859 949 859 979.5 778.5 c 128,-1,34
 1010 698 1010 698 1010 591 c 0,35,36
 1010 546 1010 546 1003.5 494 c 128,-1,37
 997 442 997 442 990 400 c 1,38,-1
 294 400 l 1,6,7
829 547 m 1,39,40
 829 551 829 551 830 558.5 c 128,-1,41
 831 566 831 566 831.5 574.5 c 128,-1,42
 832 583 832 583 832.5 590 c 128,-1,43
 833 597 833 597 833 601 c 0,44,45
 833 657 833 657 818 705 c 128,-1,46
 803 753 803 753 772.5 788.5 c 128,-1,47
 742 824 742 824 696 844 c 128,-1,48
 650 864 650 864 589 864 c 0,49,50
 522 864 522 864 468.5 839 c 128,-1,51
 415 814 415 814 376 771 c 128,-1,52
 337 728 337 728 314 670 c 128,-1,53
 291 612 291 612 286 547 c 1,54,-1
 829 547 l 1,39,40
EndSplineSet
EndChar

StartChar: edieresis
Encoding: 235 235 156
Width: 1106
Flags: W
LayerCount: 2
Fore
SplineSet
749 1222 m 256,0,1
 704 1222 704 1222 673.5 1252.5 c 128,-1,2
 643 1283 643 1283 643 1328 c 256,3,4
 643 1373 643 1373 673.5 1403.5 c 128,-1,5
 704 1434 704 1434 749 1434 c 256,6,7
 794 1434 794 1434 824.5 1403.5 c 128,-1,8
 855 1373 855 1373 855 1328 c 256,9,10
 855 1283 855 1283 824.5 1252.5 c 128,-1,11
 794 1222 794 1222 749 1222 c 256,0,1
357 1222 m 256,12,13
 312 1222 312 1222 281.5 1252.5 c 128,-1,14
 251 1283 251 1283 251 1328 c 256,15,16
 251 1373 251 1373 281.5 1403.5 c 128,-1,17
 312 1434 312 1434 357 1434 c 256,18,19
 402 1434 402 1434 432.5 1403.5 c 128,-1,20
 463 1373 463 1373 463 1328 c 256,21,22
 463 1283 463 1283 432.5 1252.5 c 128,-1,23
 402 1222 402 1222 357 1222 c 256,12,13
294 400 m 1,24,25
 316 279 316 279 392 209.5 c 128,-1,26
 468 140 468 140 607 140 c 0,27,28
 651 140 651 140 697.5 145.5 c 128,-1,29
 744 151 744 151 789 160 c 128,-1,30
 834 169 834 169 875 181.5 c 128,-1,31
 916 194 916 194 948 208 c 1,32,-1
 980 65 l 1,33,34
 944 44 944 44 895.5 28.5 c 128,-1,35
 847 13 847 13 793.5 2 c 128,-1,36
 740 -9 740 -9 686.5 -14.5 c 128,-1,37
 633 -20 633 -20 588 -20 c 0,38,39
 463 -20 463 -20 370 14 c 128,-1,40
 277 48 277 48 216 114 c 128,-1,41
 155 180 155 180 125 276.5 c 128,-1,42
 95 373 95 373 95 498 c 0,43,44
 95 608 95 608 133.5 703.5 c 128,-1,45
 172 799 172 799 240.5 869.5 c 128,-1,46
 309 940 309 940 403 980 c 128,-1,47
 497 1020 497 1020 607 1020 c 0,48,49
 694 1020 694 1020 768 993 c 128,-1,50
 842 966 842 966 895.5 912.5 c 128,-1,51
 949 859 949 859 979.5 778.5 c 128,-1,52
 1010 698 1010 698 1010 591 c 0,53,54
 1010 546 1010 546 1003.5 494 c 128,-1,55
 997 442 997 442 990 400 c 1,56,-1
 294 400 l 1,24,25
829 547 m 1,57,58
 829 551 829 551 830 558.5 c 128,-1,59
 831 566 831 566 831.5 574.5 c 128,-1,60
 832 583 832 583 832.5 590 c 128,-1,61
 833 597 833 597 833 601 c 0,62,63
 833 657 833 657 818 705 c 128,-1,64
 803 753 803 753 772.5 788.5 c 128,-1,65
 742 824 742 824 696 844 c 128,-1,66
 650 864 650 864 589 864 c 0,67,68
 522 864 522 864 468.5 839 c 128,-1,69
 415 814 415 814 376 771 c 128,-1,70
 337 728 337 728 314 670 c 128,-1,71
 291 612 291 612 286 547 c 1,72,-1
 829 547 l 1,57,58
EndSplineSet
EndChar

StartChar: hbar
Encoding: 295 295 157
Width: 1337
Flags: W
LayerCount: 2
Fore
SplineSet
184 1205 m 1,0,-1
 5 1205 l 1,1,-1
 5 1359 l 1,2,-1
 184 1359 l 1,3,-1
 184 1562 l 1,4,-1
 374 1561 l 1,5,-1
 374 1359 l 1,6,-1
 655 1359 l 1,7,-1
 655 1205 l 1,8,-1
 374 1205 l 1,9,-1
 374 913 l 1,10,11
 403 934 403 934 440 953.5 c 128,-1,12
 477 973 477 973 520.5 987.5 c 128,-1,13
 564 1002 564 1002 613.5 1011 c 128,-1,14
 663 1020 663 1020 718 1020 c 0,15,16
 836 1020 836 1020 922 986 c 128,-1,17
 1008 952 1008 952 1064 887.5 c 128,-1,18
 1120 823 1120 823 1147 730 c 128,-1,19
 1174 637 1174 637 1174 519 c 2,20,-1
 1174 0 l 1,21,-1
 985 0 l 1,22,-1
 984 507 l 2,23,24
 984 587 984 587 970.5 652.5 c 128,-1,25
 957 718 957 718 924.5 764 c 128,-1,26
 892 810 892 810 838.5 835 c 128,-1,27
 785 860 785 860 705 860 c 0,28,29
 655 860 655 860 605 851 c 128,-1,30
 555 842 555 842 511 824 c 128,-1,31
 467 806 467 806 431.5 780.5 c 128,-1,32
 396 755 396 755 374 722 c 1,33,-1
 374 0 l 1,34,-1
 184 0 l 1,35,-1
 184 1205 l 1,0,-1
EndSplineSet
EndChar

StartChar: dotlessi
Encoding: 305 305 158
Width: 558
Flags: W
LayerCount: 2
Fore
SplineSet
184 1000 m 1,0,-1
 374 1000 l 1,1,-1
 374 0 l 1,2,-1
 184 0 l 1,3,-1
 184 1000 l 1,0,-1
EndSplineSet
EndChar

StartChar: itilde
Encoding: 297 297 159
Width: 558
Flags: W
LayerCount: 2
Fore
SplineSet
-89 1270 m 1,0,1
 -66 1322 -66 1322 -29 1362 c 0,2,3
 -13 1379 -13 1379 7 1395.5 c 128,-1,4
 27 1412 27 1412 52 1425 c 128,-1,5
 77 1438 77 1438 106.5 1446 c 128,-1,6
 136 1454 136 1454 171 1454 c 0,7,8
 211 1454 211 1454 245.5 1436.5 c 128,-1,9
 280 1419 280 1419 309 1398.5 c 128,-1,10
 338 1378 338 1378 363 1360.5 c 128,-1,11
 388 1343 388 1343 411 1343 c 0,12,13
 441 1343 441 1343 466 1360 c 128,-1,14
 491 1377 491 1377 509 1398 c 0,15,16
 530 1423 530 1423 548 1454 c 1,17,-1
 644 1395 l 1,18,19
 620 1340 620 1340 584 1297 c 0,20,21
 568 1279 568 1279 548 1261 c 128,-1,22
 528 1243 528 1243 503.5 1229.5 c 128,-1,23
 479 1216 479 1216 449.5 1207.5 c 128,-1,24
 420 1199 420 1199 385 1199 c 0,25,26
 344 1199 344 1199 310 1216.5 c 128,-1,27
 276 1234 276 1234 247 1254.5 c 128,-1,28
 218 1275 218 1275 192.5 1292.5 c 128,-1,29
 167 1310 167 1310 145 1310 c 0,30,31
 115 1310 115 1310 89.5 1292.5 c 128,-1,32
 64 1275 64 1275 46 1254 c 0,33,34
 25 1229 25 1229 8 1199 c 1,35,-1
 -89 1270 l 1,0,1
184 1000 m 1,36,-1
 374 1000 l 1,37,-1
 374 0 l 1,38,-1
 184 0 l 1,39,-1
 184 1000 l 1,36,-1
EndSplineSet
EndChar

StartChar: ij
Encoding: 307 307 160
Width: 1102
Flags: W
LayerCount: 2
Fore
SplineSet
824 1287 m 0,0,1
 767 1287 767 1287 733 1321 c 128,-1,2
 699 1355 699 1355 699 1410 c 0,3,4
 699 1467 699 1467 733 1500.5 c 128,-1,5
 767 1534 767 1534 824 1534 c 0,6,7
 879 1534 879 1534 913 1500.5 c 128,-1,8
 947 1467 947 1467 947 1410 c 0,9,10
 947 1355 947 1355 913 1321 c 128,-1,11
 879 1287 879 1287 824 1287 c 0,0,1
280 1287 m 0,12,13
 223 1287 223 1287 189 1321 c 128,-1,14
 155 1355 155 1355 155 1410 c 0,15,16
 155 1467 155 1467 189 1500.5 c 128,-1,17
 223 1534 223 1534 280 1534 c 0,18,19
 335 1534 335 1534 369 1500.5 c 128,-1,20
 403 1467 403 1467 403 1410 c 0,21,22
 403 1355 403 1355 369 1321 c 128,-1,23
 335 1287 335 1287 280 1287 c 0,12,13
599 -356 m 1,24,25
 634 -335 634 -335 658.5 -311.5 c 128,-1,26
 683 -288 683 -288 698.5 -257 c 128,-1,27
 714 -226 714 -226 721 -184.5 c 128,-1,28
 728 -143 728 -143 728 -85 c 2,29,-1
 728 1000 l 1,30,-1
 918 1000 l 1,31,-1
 918 -65 l 2,32,33
 918 -148 918 -148 904.5 -212.5 c 128,-1,34
 891 -277 891 -277 862 -328 c 128,-1,35
 833 -379 833 -379 788 -417 c 128,-1,36
 743 -455 743 -455 679 -485 c 1,37,-1
 599 -356 l 1,24,25
184 1000 m 1,38,-1
 374 1000 l 1,39,-1
 374 0 l 1,40,-1
 184 0 l 1,41,-1
 184 1000 l 1,38,-1
EndSplineSet
EndChar

StartChar: igrave
Encoding: 236 236 161
Width: 558
Flags: W
LayerCount: 2
Fore
SplineSet
-74 1408 m 1,0,-1
 40 1525 l 1,1,-1
 373 1239 l 1,2,-1
 282 1148 l 1,3,-1
 -74 1408 l 1,0,-1
184 1000 m 1,4,-1
 374 1000 l 1,5,-1
 374 0 l 1,6,-1
 184 0 l 1,7,-1
 184 1000 l 1,4,-1
EndSplineSet
EndChar

StartChar: iacute
Encoding: 237 237 162
Width: 558
Flags: W
LayerCount: 2
Fore
SplineSet
170 1235 m 1,0,-1
 503 1521 l 1,1,-1
 619 1405 l 1,2,-1
 263 1145 l 1,3,-1
 170 1235 l 1,0,-1
184 1000 m 1,4,-1
 374 1000 l 1,5,-1
 374 0 l 1,6,-1
 184 0 l 1,7,-1
 184 1000 l 1,4,-1
EndSplineSet
EndChar

StartChar: icircumflex
Encoding: 238 238 163
Width: 558
Flags: W
LayerCount: 2
Fore
SplineSet
-30 1232 m 1,0,-1
 280 1526 l 1,1,-1
 588 1234 l 1,2,-1
 495 1145 l 1,3,-1
 274 1330 l 1,4,-1
 61 1145 l 1,5,-1
 -30 1232 l 1,0,-1
184 1000 m 1,6,-1
 374 1000 l 1,7,-1
 374 0 l 1,8,-1
 184 0 l 1,9,-1
 184 1000 l 1,6,-1
EndSplineSet
EndChar

StartChar: idieresis
Encoding: 239 239 164
Width: 558
Flags: W
LayerCount: 2
Fore
SplineSet
475 1222 m 256,0,1
 430 1222 430 1222 399.5 1252.5 c 128,-1,2
 369 1283 369 1283 369 1328 c 256,3,4
 369 1373 369 1373 399.5 1403.5 c 128,-1,5
 430 1434 430 1434 475 1434 c 256,6,7
 520 1434 520 1434 550.5 1403.5 c 128,-1,8
 581 1373 581 1373 581 1328 c 256,9,10
 581 1283 581 1283 550.5 1252.5 c 128,-1,11
 520 1222 520 1222 475 1222 c 256,0,1
83 1222 m 256,12,13
 38 1222 38 1222 7.5 1252.5 c 128,-1,14
 -23 1283 -23 1283 -23 1328 c 256,15,16
 -23 1373 -23 1373 7.5 1403.5 c 128,-1,17
 38 1434 38 1434 83 1434 c 256,18,19
 128 1434 128 1434 158.5 1403.5 c 128,-1,20
 189 1373 189 1373 189 1328 c 256,21,22
 189 1283 189 1283 158.5 1252.5 c 128,-1,23
 128 1222 128 1222 83 1222 c 256,12,13
184 1000 m 1,24,-1
 374 1000 l 1,25,-1
 374 0 l 1,26,-1
 184 0 l 1,27,-1
 184 1000 l 1,24,-1
EndSplineSet
EndChar

StartChar: jcircumflex
Encoding: 309 309 165
Width: 558
Flags: W
LayerCount: 2
Fore
SplineSet
-30 1232 m 1,0,-1
 280 1526 l 1,1,-1
 588 1234 l 1,2,-1
 495 1145 l 1,3,-1
 274 1330 l 1,4,-1
 61 1145 l 1,5,-1
 -30 1232 l 1,0,-1
184 1000 m 1,6,-1
 374 1000 l 1,7,-1
 374 -65 l 2,8,9
 374 -148 374 -148 360.5 -212.5 c 128,-1,10
 347 -277 347 -277 318 -328 c 128,-1,11
 289 -379 289 -379 244 -417 c 128,-1,12
 199 -455 199 -455 135 -485 c 1,13,-1
 55 -356 l 1,14,15
 90 -335 90 -335 114.5 -311.5 c 128,-1,16
 139 -288 139 -288 154.5 -257 c 128,-1,17
 170 -226 170 -226 177 -184.5 c 128,-1,18
 184 -143 184 -143 184 -85 c 2,19,-1
 184 1000 l 1,6,-1
EndSplineSet
EndChar

StartChar: kcommaaccent
Encoding: 311 311 166
Width: 1112
Flags: W
LayerCount: 2
Fore
SplineSet
184 1561 m 1,0,-1
 374 1561 l 1,1,-1
 374 560 l 1,2,-1
 823 1000 l 1,3,-1
 1045 1000 l 1,4,-1
 575 540 l 1,5,-1
 855 238 l 2,6,7
 892 199 892 199 944.5 169.5 c 128,-1,8
 997 140 997 140 1067 135 c 1,9,-1
 1038 0 l 1,10,11
 980 -8 980 -8 936 -3 c 128,-1,12
 892 2 892 2 857 17 c 128,-1,13
 822 32 822 32 792.5 56 c 128,-1,14
 763 80 763 80 735 111 c 2,15,-1
 374 501 l 1,16,-1
 374 0 l 1,17,-1
 184 0 l 1,18,-1
 184 1561 l 1,0,-1
645 -99 m 1,19,20
 658 -156 658 -156 649 -212 c 128,-1,21
 640 -268 640 -268 618.5 -318 c 128,-1,22
 597 -368 597 -368 567.5 -411.5 c 128,-1,23
 538 -455 538 -455 510 -486 c 1,24,-1
 414 -445 l 1,25,26
 433 -410 433 -410 450 -371 c 128,-1,27
 467 -332 467 -332 477.5 -290.5 c 128,-1,28
 488 -249 488 -249 490.5 -205.5 c 128,-1,29
 493 -162 493 -162 483 -118 c 1,30,-1
 645 -99 l 1,19,20
EndSplineSet
EndChar

StartChar: kgreenlandic
Encoding: 312 312 167
Width: 1112
Flags: W
LayerCount: 2
Fore
SplineSet
184 1000 m 1,0,-1
 374 1000 l 1,1,-1
 374 560 l 1,2,-1
 823 1000 l 1,3,-1
 1045 1000 l 1,4,-1
 575 540 l 1,5,-1
 855 238 l 2,6,7
 892 199 892 199 944.5 169.5 c 128,-1,8
 997 140 997 140 1067 135 c 1,9,-1
 1038 0 l 1,10,11
 980 -8 980 -8 936 -3 c 128,-1,12
 892 2 892 2 857 17 c 128,-1,13
 822 32 822 32 792.5 56 c 128,-1,14
 763 80 763 80 735 111 c 2,15,-1
 374 501 l 1,16,-1
 374 0 l 1,17,-1
 184 0 l 1,18,-1
 184 1000 l 1,0,-1
EndSplineSet
EndChar

StartChar: ldot
Encoding: 320 320 168
Width: 902
Flags: W
LayerCount: 2
Fore
SplineSet
184 1561 m 1,0,-1
 374 1561 l 1,1,-1
 374 342 l 2,2,3
 374 298 374 298 377 262 c 128,-1,4
 380 226 380 226 391.5 198.5 c 128,-1,5
 403 171 403 171 424.5 152 c 128,-1,6
 446 133 446 133 484 123 c 1,7,-1
 456 0 l 1,8,9
 371 -11 371 -11 318 12.5 c 128,-1,10
 265 36 265 36 235 82.5 c 128,-1,11
 205 129 205 129 194.5 193 c 128,-1,12
 184 257 184 257 184 328 c 2,13,-1
 184 1561 l 1,0,-1
680 596 m 0,14,15
 616 596 616 596 577.5 634.5 c 128,-1,16
 539 673 539 673 539 735 c 0,17,18
 539 799 539 799 577.5 836.5 c 128,-1,19
 616 874 616 874 680 874 c 0,20,21
 742 874 742 874 780 836.5 c 128,-1,22
 818 799 818 799 818 735 c 0,23,24
 818 673 818 673 780 634.5 c 128,-1,25
 742 596 742 596 680 596 c 0,14,15
EndSplineSet
EndChar

StartChar: lslash
Encoding: 322 322 169
Width: 715
Flags: W
LayerCount: 2
Fore
SplineSet
254 610 m 1,0,-1
 124 552 l 1,1,-1
 61 693 l 1,2,-1
 254 779 l 1,3,-1
 254 1561 l 1,4,-1
 444 1561 l 1,5,-1
 444 863 l 1,6,-1
 621 942 l 1,7,-1
 684 801 l 1,8,-1
 444 694 l 1,9,-1
 444 342 l 2,10,11
 444 298 444 298 447 262 c 128,-1,12
 450 226 450 226 461.5 198.5 c 128,-1,13
 473 171 473 171 494.5 152 c 128,-1,14
 516 133 516 133 554 123 c 1,15,-1
 526 0 l 1,16,17
 441 -11 441 -11 388 12.5 c 128,-1,18
 335 36 335 36 305 82.5 c 128,-1,19
 275 129 275 129 264.5 193 c 128,-1,20
 254 257 254 257 254 328 c 2,21,-1
 254 610 l 1,0,-1
EndSplineSet
EndChar

StartChar: nacute
Encoding: 324 324 170
Width: 1337
Flags: W
LayerCount: 2
Fore
SplineSet
520 1235 m 1,0,-1
 853 1521 l 1,1,-1
 969 1405 l 1,2,-1
 613 1145 l 1,3,-1
 520 1235 l 1,0,-1
184 1000 m 1,4,-1
 329 1000 l 1,5,-1
 358 901 l 1,6,7
 387 923 387 923 425 944.5 c 128,-1,8
 463 966 463 966 508.5 983 c 128,-1,9
 554 1000 554 1000 606.5 1010 c 128,-1,10
 659 1020 659 1020 718 1020 c 0,11,12
 836 1020 836 1020 922 986 c 128,-1,13
 1008 952 1008 952 1064 887.5 c 128,-1,14
 1120 823 1120 823 1147 730 c 128,-1,15
 1174 637 1174 637 1174 519 c 2,16,-1
 1174 0 l 1,17,-1
 984 0 l 1,18,-1
 984 507 l 2,19,20
 984 587 984 587 970.5 652.5 c 128,-1,21
 957 718 957 718 924.5 764 c 128,-1,22
 892 810 892 810 838.5 835 c 128,-1,23
 785 860 785 860 705 860 c 0,24,25
 655 860 655 860 605 851 c 128,-1,26
 555 842 555 842 511 824 c 128,-1,27
 467 806 467 806 431.5 780.5 c 128,-1,28
 396 755 396 755 374 722 c 1,29,-1
 374 0 l 1,30,-1
 184 0 l 1,31,-1
 184 1000 l 1,4,-1
EndSplineSet
EndChar

StartChar: ntilde
Encoding: 241 241 171
Width: 1337
Flags: W
LayerCount: 2
Fore
SplineSet
300 1270 m 1,0,1
 323 1322 323 1322 360 1362 c 0,2,3
 376 1379 376 1379 396 1395.5 c 128,-1,4
 416 1412 416 1412 441 1425 c 128,-1,5
 466 1438 466 1438 495.5 1446 c 128,-1,6
 525 1454 525 1454 560 1454 c 0,7,8
 600 1454 600 1454 634.5 1436.5 c 128,-1,9
 669 1419 669 1419 698 1398.5 c 128,-1,10
 727 1378 727 1378 752 1360.5 c 128,-1,11
 777 1343 777 1343 800 1343 c 0,12,13
 830 1343 830 1343 855 1360 c 128,-1,14
 880 1377 880 1377 898 1398 c 0,15,16
 919 1423 919 1423 937 1454 c 1,17,-1
 1033 1395 l 1,18,19
 1009 1340 1009 1340 973 1297 c 0,20,21
 957 1279 957 1279 937 1261 c 128,-1,22
 917 1243 917 1243 892.5 1229.5 c 128,-1,23
 868 1216 868 1216 838.5 1207.5 c 128,-1,24
 809 1199 809 1199 774 1199 c 0,25,26
 733 1199 733 1199 699 1216.5 c 128,-1,27
 665 1234 665 1234 636 1254.5 c 128,-1,28
 607 1275 607 1275 581.5 1292.5 c 128,-1,29
 556 1310 556 1310 534 1310 c 0,30,31
 504 1310 504 1310 478.5 1292.5 c 128,-1,32
 453 1275 453 1275 435 1254 c 0,33,34
 414 1229 414 1229 397 1199 c 1,35,-1
 300 1270 l 1,0,1
184 1000 m 1,36,-1
 329 1000 l 1,37,-1
 358 901 l 1,38,39
 387 923 387 923 425 944.5 c 128,-1,40
 463 966 463 966 508.5 983 c 128,-1,41
 554 1000 554 1000 606.5 1010 c 128,-1,42
 659 1020 659 1020 718 1020 c 0,43,44
 836 1020 836 1020 922 986 c 128,-1,45
 1008 952 1008 952 1064 887.5 c 128,-1,46
 1120 823 1120 823 1147 730 c 128,-1,47
 1174 637 1174 637 1174 519 c 2,48,-1
 1174 0 l 1,49,-1
 984 0 l 1,50,-1
 984 507 l 2,51,52
 984 587 984 587 970.5 652.5 c 128,-1,53
 957 718 957 718 924.5 764 c 128,-1,54
 892 810 892 810 838.5 835 c 128,-1,55
 785 860 785 860 705 860 c 0,56,57
 655 860 655 860 605 851 c 128,-1,58
 555 842 555 842 511 824 c 128,-1,59
 467 806 467 806 431.5 780.5 c 128,-1,60
 396 755 396 755 374 722 c 1,61,-1
 374 0 l 1,62,-1
 184 0 l 1,63,-1
 184 1000 l 1,36,-1
EndSplineSet
EndChar

StartChar: oe
Encoding: 339 339 172
Width: 2017
Flags: W
LayerCount: 2
Fore
SplineSet
95 492 m 0,0,1
 95 605 95 605 140 702 c 128,-1,2
 185 799 185 799 261.5 869.5 c 128,-1,3
 338 940 338 940 439.5 980 c 128,-1,4
 541 1020 541 1020 654 1020 c 0,5,6
 724 1020 724 1020 789 1005.5 c 128,-1,7
 854 991 854 991 911 963.5 c 128,-1,8
 968 936 968 936 1016 896.5 c 128,-1,9
 1064 857 1064 857 1100 807 c 1,10,11
 1169 905 1169 905 1276.5 962.5 c 128,-1,12
 1384 1020 1384 1020 1518 1020 c 0,13,14
 1605 1020 1605 1020 1679 993 c 128,-1,15
 1753 966 1753 966 1806.5 912.5 c 128,-1,16
 1860 859 1860 859 1890.5 778.5 c 128,-1,17
 1921 698 1921 698 1921 591 c 0,18,19
 1921 546 1921 546 1914.5 494 c 128,-1,20
 1908 442 1908 442 1901 400 c 1,21,-1
 1205 400 l 1,22,23
 1227 279 1227 279 1303 209.5 c 128,-1,24
 1379 140 1379 140 1518 140 c 0,25,26
 1562 140 1562 140 1608.5 145.5 c 128,-1,27
 1655 151 1655 151 1700 160 c 128,-1,28
 1745 169 1745 169 1786 181.5 c 128,-1,29
 1827 194 1827 194 1859 208 c 1,30,-1
 1891 65 l 1,31,32
 1855 44 1855 44 1806.5 28.5 c 128,-1,33
 1758 13 1758 13 1704.5 2 c 128,-1,34
 1651 -9 1651 -9 1597.5 -14.5 c 128,-1,35
 1544 -20 1544 -20 1499 -20 c 0,36,37
 1344 -20 1344 -20 1240 30.5 c 128,-1,38
 1136 81 1136 81 1078 180 c 1,39,40
 1039 133 1039 133 990 96 c 128,-1,41
 941 59 941 59 884.5 33.5 c 128,-1,42
 828 8 828 8 765 -6 c 128,-1,43
 702 -20 702 -20 636 -20 c 0,44,45
 521 -20 521 -20 422 17 c 128,-1,46
 323 54 323 54 250.5 121.5 c 128,-1,47
 178 189 178 189 136.5 283 c 128,-1,48
 95 377 95 377 95 492 c 0,0,1
1740 547 m 1,49,50
 1740 551 1740 551 1741 558.5 c 128,-1,51
 1742 566 1742 566 1742.5 574.5 c 128,-1,52
 1743 583 1743 583 1743.5 590 c 128,-1,53
 1744 597 1744 597 1744 601 c 0,54,55
 1744 657 1744 657 1729 705 c 128,-1,56
 1714 753 1714 753 1683.5 788.5 c 128,-1,57
 1653 824 1653 824 1607 844 c 128,-1,58
 1561 864 1561 864 1500 864 c 0,59,60
 1433 864 1433 864 1379.5 839 c 128,-1,61
 1326 814 1326 814 1287 771 c 128,-1,62
 1248 728 1248 728 1225 670 c 128,-1,63
 1202 612 1202 612 1197 547 c 1,64,-1
 1740 547 l 1,49,50
285 504 m 0,65,66
 285 424 285 424 313 357.5 c 128,-1,67
 341 291 341 291 390 242.5 c 128,-1,68
 439 194 439 194 506.5 167 c 128,-1,69
 574 140 574 140 654 140 c 0,70,71
 729 140 729 140 793 167 c 128,-1,72
 857 194 857 194 904.5 241.5 c 128,-1,73
 952 289 952 289 978.5 353.5 c 128,-1,74
 1005 418 1005 418 1005 493 c 0,75,76
 1005 572 1005 572 977 639.5 c 128,-1,77
 949 707 949 707 900 756 c 128,-1,78
 851 805 851 805 783 832.5 c 128,-1,79
 715 860 715 860 636 860 c 0,80,81
 561 860 561 860 497 832.5 c 128,-1,82
 433 805 433 805 385.5 757 c 128,-1,83
 338 709 338 709 311.5 644 c 128,-1,84
 285 579 285 579 285 504 c 0,65,66
EndSplineSet
EndChar

StartChar: ograve
Encoding: 242 242 173
Width: 1290
Flags: W
LayerCount: 2
Fore
SplineSet
361 1408 m 1,0,-1
 475 1525 l 1,1,-1
 808 1239 l 1,2,-1
 717 1148 l 1,3,-1
 361 1408 l 1,0,-1
95 492 m 0,4,5
 95 605 95 605 140 702 c 128,-1,6
 185 799 185 799 261.5 869.5 c 128,-1,7
 338 940 338 940 439.5 980 c 128,-1,8
 541 1020 541 1020 654 1020 c 0,9,10
 769 1020 769 1020 867.5 982.5 c 128,-1,11
 966 945 966 945 1039 877 c 128,-1,12
 1112 809 1112 809 1153.5 714 c 128,-1,13
 1195 619 1195 619 1195 504 c 0,14,15
 1195 391 1195 391 1150 295 c 128,-1,16
 1105 199 1105 199 1028.5 129 c 128,-1,17
 952 59 952 59 850.5 19.5 c 128,-1,18
 749 -20 749 -20 636 -20 c 0,19,20
 521 -20 521 -20 422 17 c 128,-1,21
 323 54 323 54 250.5 121.5 c 128,-1,22
 178 189 178 189 136.5 283 c 128,-1,23
 95 377 95 377 95 492 c 0,4,5
285 504 m 0,24,25
 285 424 285 424 313 357.5 c 128,-1,26
 341 291 341 291 390 242.5 c 128,-1,27
 439 194 439 194 506.5 167 c 128,-1,28
 574 140 574 140 654 140 c 0,29,30
 729 140 729 140 793 167 c 128,-1,31
 857 194 857 194 904.5 241.5 c 128,-1,32
 952 289 952 289 978.5 353.5 c 128,-1,33
 1005 418 1005 418 1005 493 c 0,34,35
 1005 572 1005 572 977 639.5 c 128,-1,36
 949 707 949 707 900 756 c 128,-1,37
 851 805 851 805 783 832.5 c 128,-1,38
 715 860 715 860 636 860 c 0,39,40
 561 860 561 860 497 832.5 c 128,-1,41
 433 805 433 805 385.5 757 c 128,-1,42
 338 709 338 709 311.5 644 c 128,-1,43
 285 579 285 579 285 504 c 0,24,25
EndSplineSet
EndChar

StartChar: oacute
Encoding: 243 243 174
Width: 1290
Flags: W
LayerCount: 2
Fore
SplineSet
492 1235 m 1,0,-1
 825 1521 l 1,1,-1
 941 1405 l 1,2,-1
 585 1145 l 1,3,-1
 492 1235 l 1,0,-1
95 492 m 0,4,5
 95 605 95 605 140 702 c 128,-1,6
 185 799 185 799 261.5 869.5 c 128,-1,7
 338 940 338 940 439.5 980 c 128,-1,8
 541 1020 541 1020 654 1020 c 0,9,10
 769 1020 769 1020 867.5 982.5 c 128,-1,11
 966 945 966 945 1039 877 c 128,-1,12
 1112 809 1112 809 1153.5 714 c 128,-1,13
 1195 619 1195 619 1195 504 c 0,14,15
 1195 391 1195 391 1150 295 c 128,-1,16
 1105 199 1105 199 1028.5 129 c 128,-1,17
 952 59 952 59 850.5 19.5 c 128,-1,18
 749 -20 749 -20 636 -20 c 0,19,20
 521 -20 521 -20 422 17 c 128,-1,21
 323 54 323 54 250.5 121.5 c 128,-1,22
 178 189 178 189 136.5 283 c 128,-1,23
 95 377 95 377 95 492 c 0,4,5
285 504 m 0,24,25
 285 424 285 424 313 357.5 c 128,-1,26
 341 291 341 291 390 242.5 c 128,-1,27
 439 194 439 194 506.5 167 c 128,-1,28
 574 140 574 140 654 140 c 0,29,30
 729 140 729 140 793 167 c 128,-1,31
 857 194 857 194 904.5 241.5 c 128,-1,32
 952 289 952 289 978.5 353.5 c 128,-1,33
 1005 418 1005 418 1005 493 c 0,34,35
 1005 572 1005 572 977 639.5 c 128,-1,36
 949 707 949 707 900 756 c 128,-1,37
 851 805 851 805 783 832.5 c 128,-1,38
 715 860 715 860 636 860 c 0,39,40
 561 860 561 860 497 832.5 c 128,-1,41
 433 805 433 805 385.5 757 c 128,-1,42
 338 709 338 709 311.5 644 c 128,-1,43
 285 579 285 579 285 504 c 0,24,25
EndSplineSet
EndChar

StartChar: ocircumflex
Encoding: 244 244 175
Width: 1290
Flags: W
LayerCount: 2
Fore
SplineSet
336 1232 m 1,0,-1
 646 1526 l 1,1,-1
 954 1234 l 1,2,-1
 861 1145 l 1,3,-1
 640 1330 l 1,4,-1
 427 1145 l 1,5,-1
 336 1232 l 1,0,-1
95 492 m 0,6,7
 95 605 95 605 140 702 c 128,-1,8
 185 799 185 799 261.5 869.5 c 128,-1,9
 338 940 338 940 439.5 980 c 128,-1,10
 541 1020 541 1020 654 1020 c 0,11,12
 769 1020 769 1020 867.5 982.5 c 128,-1,13
 966 945 966 945 1039 877 c 128,-1,14
 1112 809 1112 809 1153.5 714 c 128,-1,15
 1195 619 1195 619 1195 504 c 0,16,17
 1195 391 1195 391 1150 295 c 128,-1,18
 1105 199 1105 199 1028.5 129 c 128,-1,19
 952 59 952 59 850.5 19.5 c 128,-1,20
 749 -20 749 -20 636 -20 c 0,21,22
 521 -20 521 -20 422 17 c 128,-1,23
 323 54 323 54 250.5 121.5 c 128,-1,24
 178 189 178 189 136.5 283 c 128,-1,25
 95 377 95 377 95 492 c 0,6,7
285 504 m 0,26,27
 285 424 285 424 313 357.5 c 128,-1,28
 341 291 341 291 390 242.5 c 128,-1,29
 439 194 439 194 506.5 167 c 128,-1,30
 574 140 574 140 654 140 c 0,31,32
 729 140 729 140 793 167 c 128,-1,33
 857 194 857 194 904.5 241.5 c 128,-1,34
 952 289 952 289 978.5 353.5 c 128,-1,35
 1005 418 1005 418 1005 493 c 0,36,37
 1005 572 1005 572 977 639.5 c 128,-1,38
 949 707 949 707 900 756 c 128,-1,39
 851 805 851 805 783 832.5 c 128,-1,40
 715 860 715 860 636 860 c 0,41,42
 561 860 561 860 497 832.5 c 128,-1,43
 433 805 433 805 385.5 757 c 128,-1,44
 338 709 338 709 311.5 644 c 128,-1,45
 285 579 285 579 285 504 c 0,26,27
EndSplineSet
EndChar

StartChar: otilde
Encoding: 245 245 176
Width: 1290
Flags: W
LayerCount: 2
Fore
SplineSet
278 1270 m 1,0,1
 301 1322 301 1322 338 1362 c 0,2,3
 354 1379 354 1379 374 1395.5 c 128,-1,4
 394 1412 394 1412 419 1425 c 128,-1,5
 444 1438 444 1438 473.5 1446 c 128,-1,6
 503 1454 503 1454 538 1454 c 0,7,8
 578 1454 578 1454 612.5 1436.5 c 128,-1,9
 647 1419 647 1419 676 1398.5 c 128,-1,10
 705 1378 705 1378 730 1360.5 c 128,-1,11
 755 1343 755 1343 778 1343 c 0,12,13
 808 1343 808 1343 833 1360 c 128,-1,14
 858 1377 858 1377 876 1398 c 0,15,16
 897 1423 897 1423 915 1454 c 1,17,-1
 1011 1395 l 1,18,19
 987 1340 987 1340 951 1297 c 0,20,21
 935 1279 935 1279 915 1261 c 128,-1,22
 895 1243 895 1243 870.5 1229.5 c 128,-1,23
 846 1216 846 1216 816.5 1207.5 c 128,-1,24
 787 1199 787 1199 752 1199 c 0,25,26
 711 1199 711 1199 677 1216.5 c 128,-1,27
 643 1234 643 1234 614 1254.5 c 128,-1,28
 585 1275 585 1275 559.5 1292.5 c 128,-1,29
 534 1310 534 1310 512 1310 c 0,30,31
 482 1310 482 1310 456.5 1292.5 c 128,-1,32
 431 1275 431 1275 413 1254 c 0,33,34
 392 1229 392 1229 375 1199 c 1,35,-1
 278 1270 l 1,0,1
95 492 m 0,36,37
 95 605 95 605 140 702 c 128,-1,38
 185 799 185 799 261.5 869.5 c 128,-1,39
 338 940 338 940 439.5 980 c 128,-1,40
 541 1020 541 1020 654 1020 c 0,41,42
 769 1020 769 1020 867.5 982.5 c 128,-1,43
 966 945 966 945 1039 877 c 128,-1,44
 1112 809 1112 809 1153.5 714 c 128,-1,45
 1195 619 1195 619 1195 504 c 0,46,47
 1195 391 1195 391 1150 295 c 128,-1,48
 1105 199 1105 199 1028.5 129 c 128,-1,49
 952 59 952 59 850.5 19.5 c 128,-1,50
 749 -20 749 -20 636 -20 c 0,51,52
 521 -20 521 -20 422 17 c 128,-1,53
 323 54 323 54 250.5 121.5 c 128,-1,54
 178 189 178 189 136.5 283 c 128,-1,55
 95 377 95 377 95 492 c 0,36,37
285 504 m 0,56,57
 285 424 285 424 313 357.5 c 128,-1,58
 341 291 341 291 390 242.5 c 128,-1,59
 439 194 439 194 506.5 167 c 128,-1,60
 574 140 574 140 654 140 c 0,61,62
 729 140 729 140 793 167 c 128,-1,63
 857 194 857 194 904.5 241.5 c 128,-1,64
 952 289 952 289 978.5 353.5 c 128,-1,65
 1005 418 1005 418 1005 493 c 0,66,67
 1005 572 1005 572 977 639.5 c 128,-1,68
 949 707 949 707 900 756 c 128,-1,69
 851 805 851 805 783 832.5 c 128,-1,70
 715 860 715 860 636 860 c 0,71,72
 561 860 561 860 497 832.5 c 128,-1,73
 433 805 433 805 385.5 757 c 128,-1,74
 338 709 338 709 311.5 644 c 128,-1,75
 285 579 285 579 285 504 c 0,56,57
EndSplineSet
EndChar

StartChar: odieresis
Encoding: 246 246 177
Width: 1290
Flags: W
LayerCount: 2
Fore
SplineSet
841 1222 m 256,0,1
 796 1222 796 1222 765.5 1252.5 c 128,-1,2
 735 1283 735 1283 735 1328 c 256,3,4
 735 1373 735 1373 765.5 1403.5 c 128,-1,5
 796 1434 796 1434 841 1434 c 256,6,7
 886 1434 886 1434 916.5 1403.5 c 128,-1,8
 947 1373 947 1373 947 1328 c 256,9,10
 947 1283 947 1283 916.5 1252.5 c 128,-1,11
 886 1222 886 1222 841 1222 c 256,0,1
449 1222 m 256,12,13
 404 1222 404 1222 373.5 1252.5 c 128,-1,14
 343 1283 343 1283 343 1328 c 256,15,16
 343 1373 343 1373 373.5 1403.5 c 128,-1,17
 404 1434 404 1434 449 1434 c 256,18,19
 494 1434 494 1434 524.5 1403.5 c 128,-1,20
 555 1373 555 1373 555 1328 c 256,21,22
 555 1283 555 1283 524.5 1252.5 c 128,-1,23
 494 1222 494 1222 449 1222 c 256,12,13
95 492 m 0,24,25
 95 605 95 605 140 702 c 128,-1,26
 185 799 185 799 261.5 869.5 c 128,-1,27
 338 940 338 940 439.5 980 c 128,-1,28
 541 1020 541 1020 654 1020 c 0,29,30
 769 1020 769 1020 867.5 982.5 c 128,-1,31
 966 945 966 945 1039 877 c 128,-1,32
 1112 809 1112 809 1153.5 714 c 128,-1,33
 1195 619 1195 619 1195 504 c 0,34,35
 1195 391 1195 391 1150 295 c 128,-1,36
 1105 199 1105 199 1028.5 129 c 128,-1,37
 952 59 952 59 850.5 19.5 c 128,-1,38
 749 -20 749 -20 636 -20 c 0,39,40
 521 -20 521 -20 422 17 c 128,-1,41
 323 54 323 54 250.5 121.5 c 128,-1,42
 178 189 178 189 136.5 283 c 128,-1,43
 95 377 95 377 95 492 c 0,24,25
285 504 m 0,44,45
 285 424 285 424 313 357.5 c 128,-1,46
 341 291 341 291 390 242.5 c 128,-1,47
 439 194 439 194 506.5 167 c 128,-1,48
 574 140 574 140 654 140 c 0,49,50
 729 140 729 140 793 167 c 128,-1,51
 857 194 857 194 904.5 241.5 c 128,-1,52
 952 289 952 289 978.5 353.5 c 128,-1,53
 1005 418 1005 418 1005 493 c 0,54,55
 1005 572 1005 572 977 639.5 c 128,-1,56
 949 707 949 707 900 756 c 128,-1,57
 851 805 851 805 783 832.5 c 128,-1,58
 715 860 715 860 636 860 c 0,59,60
 561 860 561 860 497 832.5 c 128,-1,61
 433 805 433 805 385.5 757 c 128,-1,62
 338 709 338 709 311.5 644 c 128,-1,63
 285 579 285 579 285 504 c 0,44,45
EndSplineSet
EndChar

StartChar: oslash
Encoding: 248 248 178
Width: 1290
Flags: W
LayerCount: 2
Fore
SplineSet
262 111 m 1,0,1
 184 179 184 179 139.5 275.5 c 128,-1,2
 95 372 95 372 95 492 c 0,3,4
 95 605 95 605 140 702 c 128,-1,5
 185 799 185 799 261.5 869.5 c 128,-1,6
 338 940 338 940 439.5 980 c 128,-1,7
 541 1020 541 1020 654 1020 c 0,8,9
 719 1020 719 1020 779 1007.5 c 128,-1,10
 839 995 839 995 893 972 c 1,11,-1
 1000 1117 l 1,12,-1
 1120 1030 l 1,13,-1
 1020 894 l 1,14,15
 1101 825 1101 825 1148 726 c 128,-1,16
 1195 627 1195 627 1195 504 c 0,17,18
 1195 391 1195 391 1150 295 c 128,-1,19
 1105 199 1105 199 1028.5 129 c 128,-1,20
 952 59 952 59 850.5 19.5 c 128,-1,21
 749 -20 749 -20 636 -20 c 0,22,23
 567 -20 567 -20 505 -7 c 128,-1,24
 443 6 443 6 387 31 c 1,25,-1
 267 -132 l 1,26,-1
 147 -45 l 1,27,-1
 262 111 l 1,0,1
789 830 m 1,28,29
 754 844 754 844 716 852 c 128,-1,30
 678 860 678 860 636 860 c 0,31,32
 561 860 561 860 497 832.5 c 128,-1,33
 433 805 433 805 385.5 757 c 128,-1,34
 338 709 338 709 311.5 644 c 128,-1,35
 285 579 285 579 285 504 c 0,36,37
 285 432 285 432 307.5 370.5 c 128,-1,38
 330 309 330 309 372 261 c 1,39,-1
 789 830 l 1,28,29
491 173 m 1,40,41
 528 157 528 157 568.5 148.5 c 128,-1,42
 609 140 609 140 654 140 c 0,43,44
 729 140 729 140 793 167 c 128,-1,45
 857 194 857 194 904.5 241.5 c 128,-1,46
 952 289 952 289 978.5 353.5 c 128,-1,47
 1005 418 1005 418 1005 493 c 256,48,49
 1005 568 1005 568 980 632 c 128,-1,50
 955 696 955 696 910 744 c 1,51,-1
 491 173 l 1,40,41
EndSplineSet
EndChar

StartChar: rcaron
Encoding: 345 345 179
Width: 850
Flags: W
LayerCount: 2
Fore
SplineSet
116 1437 m 1,0,-1
 209 1526 l 1,1,-1
 430 1341 l 1,2,-1
 643 1526 l 1,3,-1
 734 1439 l 1,4,-1
 424 1145 l 1,5,-1
 116 1437 l 1,0,-1
184 1000 m 1,6,-1
 341 1000 l 1,7,-1
 373 817 l 1,8,9
 395 857 395 857 424.5 894 c 128,-1,10
 454 931 454 931 490.5 959 c 128,-1,11
 527 987 527 987 570 1003.5 c 128,-1,12
 613 1020 613 1020 663 1020 c 0,13,14
 684 1020 684 1020 701 1018.5 c 128,-1,15
 718 1017 718 1017 734 1013.5 c 128,-1,16
 750 1010 750 1010 766 1004.5 c 128,-1,17
 782 999 782 999 801 990 c 1,18,-1
 758 791 l 1,19,20
 729 808 729 808 691 817.5 c 128,-1,21
 653 827 653 827 621 827 c 0,22,23
 570 827 570 827 528.5 795 c 128,-1,24
 487 763 487 763 455.5 714 c 128,-1,25
 424 665 424 665 403.5 606.5 c 128,-1,26
 383 548 383 548 374 494 c 1,27,-1
 374 0 l 1,28,-1
 184 0 l 1,29,-1
 184 1000 l 1,6,-1
EndSplineSet
EndChar

StartChar: rcommaaccent
Encoding: 343 343 180
Width: 850
Flags: W
LayerCount: 2
Fore
SplineSet
184 1000 m 1,0,-1
 341 1000 l 1,1,-1
 373 817 l 1,2,3
 395 857 395 857 424.5 894 c 128,-1,4
 454 931 454 931 490.5 959 c 128,-1,5
 527 987 527 987 570 1003.5 c 128,-1,6
 613 1020 613 1020 663 1020 c 0,7,8
 684 1020 684 1020 701 1018.5 c 128,-1,9
 718 1017 718 1017 734 1013.5 c 128,-1,10
 750 1010 750 1010 766 1004.5 c 128,-1,11
 782 999 782 999 801 990 c 1,12,-1
 758 791 l 1,13,14
 729 808 729 808 691 817.5 c 128,-1,15
 653 827 653 827 621 827 c 0,16,17
 570 827 570 827 528.5 795 c 128,-1,18
 487 763 487 763 455.5 714 c 128,-1,19
 424 665 424 665 403.5 606.5 c 128,-1,20
 383 548 383 548 374 494 c 1,21,-1
 374 0 l 1,22,-1
 184 0 l 1,23,-1
 184 1000 l 1,0,-1
376 -99 m 1,24,25
 389 -156 389 -156 380 -212 c 128,-1,26
 371 -268 371 -268 349.5 -318 c 128,-1,27
 328 -368 328 -368 298.5 -411.5 c 128,-1,28
 269 -455 269 -455 241 -486 c 1,29,-1
 145 -445 l 1,30,31
 164 -410 164 -410 181 -371 c 128,-1,32
 198 -332 198 -332 208.5 -290.5 c 128,-1,33
 219 -249 219 -249 221.5 -205.5 c 128,-1,34
 224 -162 224 -162 214 -118 c 1,35,-1
 376 -99 l 1,24,25
EndSplineSet
EndChar

StartChar: germandbls
Encoding: 223 223 181
Width: 1212
Flags: W
LayerCount: 2
Fore
SplineSet
184 1038 m 2,0,1
 184 1154 184 1154 209.5 1250 c 128,-1,2
 235 1346 235 1346 289 1415 c 128,-1,3
 343 1484 343 1484 427 1522 c 128,-1,4
 511 1560 511 1560 627 1560 c 0,5,6
 687 1560 687 1560 748 1544.5 c 128,-1,7
 809 1529 809 1529 857 1506 c 1,8,-1
 812 1355 l 1,9,10
 770 1377 770 1377 716 1390.5 c 128,-1,11
 662 1404 662 1404 609 1404 c 0,12,13
 536 1404 536 1404 490.5 1376 c 128,-1,14
 445 1348 445 1348 419.5 1300 c 128,-1,15
 394 1252 394 1252 384.5 1187.5 c 128,-1,16
 375 1123 375 1123 375 1050 c 2,17,-1
 375 1000 l 1,18,-1
 1093 1000 l 1,19,-1
 1093 852 l 1,20,-1
 746 423 l 1,21,22
 819 409 819 409 886 377.5 c 128,-1,23
 953 346 953 346 1003 299.5 c 128,-1,24
 1053 253 1053 253 1083 193 c 128,-1,25
 1113 133 1113 133 1113 62 c 0,26,27
 1113 -17 1113 -17 1088 -84.5 c 128,-1,28
 1063 -152 1063 -152 1020 -209 c 128,-1,29
 977 -266 977 -266 919 -311.5 c 128,-1,30
 861 -357 861 -357 794 -391.5 c 128,-1,31
 727 -426 727 -426 654.5 -449.5 c 128,-1,32
 582 -473 582 -473 511 -485 c 1,33,-1
 454 -342 l 1,34,35
 548 -318 548 -318 631.5 -286.5 c 128,-1,36
 715 -255 715 -255 777.5 -211 c 128,-1,37
 840 -167 840 -167 876.5 -109 c 128,-1,38
 913 -51 913 -51 913 24 c 0,39,40
 913 93 913 93 884 140.5 c 128,-1,41
 855 188 855 188 804.5 218 c 128,-1,42
 754 248 754 248 684.5 261.5 c 128,-1,43
 615 275 615 275 534 275 c 1,44,-1
 534 423 l 1,45,-1
 881 852 l 1,46,-1
 375 852 l 1,47,-1
 375 0 l 1,48,-1
 184 0 l 1,49,-1
 184 1038 l 2,0,1
EndSplineSet
EndChar

StartChar: ugrave
Encoding: 249 249 182
Width: 1295
Flags: W
LayerCount: 2
Fore
SplineSet
323 1408 m 1,0,-1
 437 1525 l 1,1,-1
 770 1239 l 1,2,-1
 679 1148 l 1,3,-1
 323 1408 l 1,0,-1
163 1000 m 1,4,-1
 353 1000 l 1,5,-1
 353 493 l 2,6,7
 353 413 353 413 364.5 348 c 128,-1,8
 376 283 376 283 405 237 c 128,-1,9
 434 191 434 191 485 165.5 c 128,-1,10
 536 140 536 140 616 140 c 0,11,12
 666 140 666 140 712.5 150.5 c 128,-1,13
 759 161 759 161 798.5 179.5 c 128,-1,14
 838 198 838 198 869 224 c 128,-1,15
 900 250 900 250 921 281 c 1,16,-1
 921 1000 l 1,17,-1
 1111 1000 l 1,18,-1
 1111 0 l 1,19,-1
 966 0 l 1,20,-1
 937 97 l 1,21,22
 911 75 911 75 877 54 c 128,-1,23
 843 33 843 33 801 16.5 c 128,-1,24
 759 0 759 0 709.5 -10 c 128,-1,25
 660 -20 660 -20 603 -20 c 0,26,27
 479 -20 479 -20 395 12 c 128,-1,28
 311 44 311 44 259.5 107 c 128,-1,29
 208 170 208 170 185.5 263.5 c 128,-1,30
 163 357 163 357 163 481 c 2,31,-1
 163 1000 l 1,4,-1
EndSplineSet
EndChar

StartChar: uacute
Encoding: 250 250 183
Width: 1295
Flags: W
LayerCount: 2
Fore
SplineSet
512 1235 m 1,0,-1
 845 1521 l 1,1,-1
 961 1405 l 1,2,-1
 605 1145 l 1,3,-1
 512 1235 l 1,0,-1
163 1000 m 1,4,-1
 353 1000 l 1,5,-1
 353 493 l 2,6,7
 353 413 353 413 364.5 348 c 128,-1,8
 376 283 376 283 405 237 c 128,-1,9
 434 191 434 191 485 165.5 c 128,-1,10
 536 140 536 140 616 140 c 0,11,12
 666 140 666 140 712.5 150.5 c 128,-1,13
 759 161 759 161 798.5 179.5 c 128,-1,14
 838 198 838 198 869 224 c 128,-1,15
 900 250 900 250 921 281 c 1,16,-1
 921 1000 l 1,17,-1
 1111 1000 l 1,18,-1
 1111 0 l 1,19,-1
 966 0 l 1,20,-1
 937 97 l 1,21,22
 911 75 911 75 877 54 c 128,-1,23
 843 33 843 33 801 16.5 c 128,-1,24
 759 0 759 0 709.5 -10 c 128,-1,25
 660 -20 660 -20 603 -20 c 0,26,27
 479 -20 479 -20 395 12 c 128,-1,28
 311 44 311 44 259.5 107 c 128,-1,29
 208 170 208 170 185.5 263.5 c 128,-1,30
 163 357 163 357 163 481 c 2,31,-1
 163 1000 l 1,4,-1
EndSplineSet
EndChar

